<svg width="201" height="195" viewBox="0 0 201 195" fill="none" xmlns="http://www.w3.org/2000/svg">
<g clip-path="url(#clip0_220_523)">
<path d="M175.504 53.8166C176.909 53.629 178.499 53.2588 180.166 52.6838C184.947 51.0336 186.832 47.7711 186.398 46.2045C184.994 41.1286 183.677 36.7152 182.356 32.2917C181.904 30.7771 181.452 29.2613 180.995 27.7174L180.124 28.2063L180.068 28.1078M175.504 53.8166L138.132 70.5673L138.119 70.594L138.1 70.6342C138.093 70.6484 138.083 70.6689 138.073 70.6913L138.055 70.733L138.041 70.7761C137.938 71.0864 137.823 71.3681 137.678 71.6441C136.672 73.5536 134.53 75.2418 131.709 75.9149C128.502 76.6802 125.51 75.8952 123.807 74.2871L123.539 74.0342C122.897 73.2577 121.81 73.0978 120.962 73.521L121.41 74.4154L120.962 73.521C119.989 74.007 119.58 75.1179 119.942 76.099L119.987 76.313C120.632 79.3751 118.331 82.7508 114.436 83.6802C111.815 84.3056 109.297 83.5954 107.71 82.1221L107.492 81.9196C107.409 81.8343 107.331 81.7485 107.256 81.6615L107.174 81.5652L107.07 81.4924C106.461 81.0655 105.631 80.9699 104.909 81.3305L105.357 82.2249L104.909 81.3306C104.328 81.6204 103.949 82.1378 103.816 82.7146L103.751 82.992L103.843 83.2618C103.869 83.3379 103.89 83.3986 103.909 83.4502C103.947 83.5593 103.971 83.6275 103.992 83.713C104.738 86.8189 102.449 90.2736 98.4958 91.217C95.13 92.0201 91.9724 90.6331 90.6782 88.2738L90.5939 88.1202L90.4624 88.0043C89.9639 87.5646 89.2416 87.5664 88.7999 87.9989L88.7997 87.9991C88.6555 88.1404 88.5868 88.2914 88.5544 88.38C88.5202 88.4733 88.5056 88.5544 88.4985 88.6063C88.4847 88.7082 88.4871 88.7957 88.4896 88.8442C88.4947 88.9468 88.5103 89.0489 88.5227 89.1219C88.543 89.2416 88.5732 89.3859 88.5978 89.5031C88.6039 89.5322 88.6096 89.5597 88.6148 89.5847C88.6188 89.6041 88.6226 89.6203 88.6254 89.6316L88.6278 89.6409L88.6321 89.6623L88.643 89.7003C88.6639 89.7732 88.6895 89.8449 88.7022 89.8804C88.7039 89.8851 88.7054 89.8892 88.7066 89.8926C88.7158 89.9186 88.7192 89.9294 88.72 89.9318C89.4724 93.0736 87.2772 96.4648 83.5618 97.3513C82.4834 97.6086 81.4236 97.6096 80.4237 97.4113L79.7098 97.2697L79.3561 97.9047C78.4741 99.4878 76.8704 100.759 74.8062 101.251C71.9098 101.942 69.1273 100.845 67.703 98.8311L67.1583 98.0611L67.0881 98.1046C66.4579 97.5903 65.5608 97.4741 64.8025 97.8527C64.0677 98.2195 63.667 98.9414 63.6568 99.6864L63.4311 99.7402L63.9402 100.847C64.0616 101.11 64.144 101.311 64.1904 101.504C64.5365 102.944 63.9721 104.602 62.489 106.149C61.0147 107.686 58.7208 109.001 55.9418 109.664C51.6084 110.698 47.7411 109.773 45.9302 107.925L45.8458 107.839L45.7433 107.776C45.1157 107.386 43.9635 106.693 42.9751 106.102C42.4795 105.806 42.0226 105.533 41.6897 105.335L41.5132 105.23L37.7086 89.1306L130.793 29.936L173.375 16.2076L180.068 28.1078M175.504 53.8166C175.502 53.8007 175.5 53.7848 175.497 53.7689L174.509 53.9218L174.521 54.0804C174.525 55.6358 171.244 57.9818 166.788 59.5195C163.328 60.7134 160.125 61.0911 158.414 60.6289C158.313 60.6014 158.216 60.5709 158.125 60.5374C158.006 60.4936 157.896 60.4447 157.797 60.3907C157.795 60.3931 157.787 60.3988 157.78 60.4046C157.77 60.412 157.76 60.4197 157.76 60.4219M175.504 53.8166L180.068 28.1078M180.068 28.1078C180.515 29.6193 180.958 31.1028 181.4 32.5838C182.72 37.0046 184.033 41.4045 185.434 46.4696C185.521 46.7837 185.402 47.6522 184.469 48.7725C183.584 49.8344 182.077 50.966 179.838 51.7388C177.835 52.43 175.963 52.8083 174.431 52.925L173.354 53.0071L173.52 54.0746L173.521 54.076L173.521 54.0806C173.521 54.085 173.521 54.0922 173.519 54.1028C173.517 54.1241 173.51 54.1585 173.493 54.2073C173.457 54.3081 173.384 54.4496 173.25 54.6294C172.979 54.9931 172.525 55.4271 171.879 55.897C170.593 56.8323 168.696 57.8031 166.46 58.5746C164.555 59.2321 162.749 59.6268 161.267 59.7648C159.727 59.9083 158.722 59.7561 158.274 59.5125L157.562 59.1263L157.09 59.6775M157.76 60.4219L156.821 60.0753M157.76 60.4219L156.805 60.1202C156.81 60.1046 156.816 60.0896 156.821 60.0753M157.76 60.4219C157.745 60.4609 157.728 60.5059 157.707 60.5558L157.32 61.2689C157.339 61.2793 157.359 61.2895 157.378 61.2996C157.191 61.7055 156.99 62.1261 156.883 62.3489C156.855 62.4069 156.834 62.4514 156.821 62.4789C156.818 62.4913 156.813 62.5036 156.807 62.516C156.802 62.5281 156.797 62.5402 156.794 62.5524M156.821 60.0753C156.851 59.9926 156.886 59.9315 156.907 59.8974C156.934 59.8532 156.96 59.8193 156.977 59.7978C157.011 59.7558 157.04 59.7253 157.055 59.7109C157.068 59.6982 157.08 59.6869 157.09 59.6775M156.821 60.0753C156.687 60.4397 156.199 61.4599 155.99 61.8959C155.959 61.9622 155.933 62.015 155.917 62.0499L155.867 62.1559L155.859 62.1933M157.09 59.6775L157.037 59.7399C157.068 59.7032 157.095 59.677 157.107 59.6659C157.112 59.661 157.117 59.6565 157.121 59.6525C157.129 59.6456 157.135 59.6402 157.14 59.6365C157.153 59.6251 157.163 59.617 157.165 59.6151C157.169 59.6122 157.175 59.6078 157.164 59.616L157.163 59.6165C157.159 59.6199 157.14 59.6343 157.12 59.651C157.119 59.6525 157.116 59.6544 157.114 59.6568C157.108 59.6618 157.1 59.6689 157.09 59.6775ZM155.859 62.1933C155.862 62.1845 155.865 62.1766 155.868 62.1697C155.875 62.1519 155.881 62.1372 155.885 62.1274L155.892 62.1109M155.859 62.1933C155.855 62.2042 155.851 62.2164 155.846 62.23M155.859 62.1933L155.858 62.1994L155.851 62.2161L155.846 62.23M156.794 62.5524L156.499 62.4103L155.892 62.1183C155.883 62.1376 155.876 62.1536 155.873 62.1604C155.877 62.1509 155.88 62.1429 155.882 62.1367C155.887 62.1243 155.891 62.1151 155.892 62.1109M156.794 62.5524L156.199 62.4203L156.199 62.4202L155.817 62.3356C155.821 62.3184 155.825 62.302 155.829 62.2866M156.794 62.5524C156.792 62.5571 156.767 62.6259 156.767 62.6259C156.145 65.2843 153.885 67.5832 150.772 68.326M155.892 62.1109L155.894 62.1081C155.895 62.1045 155.894 62.1071 155.892 62.1109ZM155.846 62.23L155.84 62.2471L155.83 62.2734L155.827 62.2819L155.826 62.2844L155.826 62.2851L155.826 62.2853L155.826 62.2854L155.829 62.2866M155.846 62.23C155.841 62.2469 155.835 62.2659 155.829 62.2866M155.829 62.2866L155.826 62.2854L155.806 62.3402L155.793 62.3969C155.263 64.6587 153.315 66.6882 150.546 67.3518M150.772 68.326L150.554 67.3501C150.551 67.3507 150.549 67.3512 150.546 67.3518M150.772 68.326L150.538 67.3537C150.541 67.3531 150.544 67.3524 150.546 67.3518M150.772 68.326C148.366 68.8593 144.573 68.22 142.439 65.5081C142.346 65.3895 142.148 65.4112 141.98 65.4611C141.467 65.614 139.865 69.11 139.049 70.9666C139.042 70.9845 139.031 71.0073 139.02 71.0299C139.009 71.0526 138.998 71.0752 138.99 71.0925L138.134 70.5628C138.544 69.6293 139.156 68.2729 139.734 67.1246C140.022 66.5532 140.312 66.0127 140.57 65.5965C140.698 65.3907 140.834 65.1909 140.97 65.0266C141.038 64.9446 141.122 64.8529 141.219 64.7693C141.304 64.6959 141.466 64.5708 141.693 64.5032L141.693 64.5031C141.827 64.4633 142.037 64.4134 142.274 64.4225C142.51 64.4315 142.925 64.5094 143.225 64.8908L142.442 65.506L143.225 64.8908C145.058 67.2206 148.409 67.8221 150.546 67.3518M88.6311 89.6539C88.6322 89.6582 88.6314 89.6553 88.6304 89.6512L88.6311 89.6539Z" fill="#D9D9D9" stroke="#0E6F3B" stroke-width="2"/>
<path d="M168.266 0.996565C168.204 0.998925 168.127 1.00771 168.038 1.02836L168.037 1.02761C167.796 1.08403 167.402 1.24808 166.878 1.68771C166.714 1.82557 166.429 2.01385 166.099 2.22181C165.747 2.44312 165.284 2.7241 164.72 3.05862C163.59 3.72823 162.038 4.62303 160.132 5.70363C156.317 7.86542 151.068 10.7784 144.912 14.1355C132.598 20.8496 116.643 29.3453 101.245 37.167C85.8411 44.9912 60.7723 56.8996 39.5652 66.8471C28.9594 71.8219 19.3155 76.3081 12.3232 79.5506C8.82696 81.1718 5.99356 82.4822 4.03414 83.3872C3.05442 83.8398 2.2932 84.191 1.77687 84.4291L1.18934 84.6999L1.0395 84.769L1.02068 84.7776C1.02298 84.8405 1.03452 84.9396 1.06568 85.0957C1.09637 85.2494 1.13651 85.415 1.18637 85.6206C1.20047 85.6787 1.21535 85.7401 1.23101 85.8053C1.26913 85.964 1.47158 86.4665 1.88246 87.3509C2.27282 88.1912 2.80629 89.2838 3.44027 90.5566C4.33736 92.3576 5.42722 94.5025 6.58413 96.7793C7.06256 97.7209 7.55246 98.6851 8.04493 99.6568C11.2632 106.007 14.5678 112.323 18.147 118.619C18.2942 118.543 18.4728 118.455 18.6871 118.364C25.6826 115.018 33.5064 111.11 41.7635 106.855L41.0605 105.465L41.0601 105.465C39.1001 101.584 40.6445 96.8826 44.5298 94.9279C44.5304 94.9276 44.531 94.9273 44.5315 94.927L47.2603 93.5394L47.2644 93.5373C47.7611 93.2876 48.2763 93.1062 48.7658 92.9733C50.4643 92.5122 51.7375 92.5462 52.9934 92.9644C53.881 93.2599 54.7678 93.76 55.7362 94.3061C56.0238 94.4682 56.3185 94.6344 56.6226 94.8005C57.9618 95.5233 59.1953 95.2947 59.9851 94.7119C60.799 94.1112 61.1128 93.1897 60.7934 92.3624C59.2884 88.4638 60.345 83.9065 64.3052 81.9154L64.3065 81.9147L68.4811 79.8237L168.266 0.996565ZM168.266 0.996565C173.095 9.73183 177.539 18.3693 179.999 27.892C179.972 27.9085 179.946 27.9252 179.92 27.9418L177.985 21.4458C177.219 18.8751 174.645 17.3511 172.066 17.8403C171.894 17.8729 171.652 17.9523 171.574 17.9781C171.561 17.9823 171.553 17.9851 171.55 17.986L171.55 17.9861C168.888 18.7743 167.001 21.6713 168.092 24.4701C169.323 27.629 169.797 30.3102 170.15 32.3027C170.164 32.3841 170.178 32.4645 170.192 32.5436C170.308 33.193 170.203 33.6723 170.041 33.9625C169.888 34.2372 169.68 34.362 169.448 34.3857C169.194 34.4115 168.754 34.3295 168.167 33.8575C167.582 33.3862 166.903 32.5622 166.231 31.2417C164.437 27.714 161.094 24.7601 156.994 25.9745C153.018 27.1517 150.93 31.4838 152.153 35.5879L152.153 35.5881L153.995 41.7654C154.18 42.3857 154.05 42.8685 153.764 43.2537C153.456 43.6692 152.93 44.0111 152.304 44.1824C151.677 44.3537 151.051 44.3266 150.58 44.1296C150.143 43.9473 149.801 43.61 149.657 43.0131C148.665 38.883 144.137 37.0621 140.594 38.0231C140.337 38.0929 140.111 38.1814 139.92 38.2561L139.893 38.2669C136.032 39.7775 134.319 44.2649 135.886 48.2518C136.921 50.886 135.971 52.5144 134.855 53.165C133.67 53.8557 132.159 53.6121 131.393 52.2016C129.601 48.9041 125.917 47.2019 122.369 48.1612C121.876 48.2945 121.379 48.4736 120.888 48.7205L118.511 49.9133L118.511 49.9136C114.664 51.8482 112.975 56.6095 115.075 60.4729C115.635 61.5036 115.699 62.3134 115.566 62.9054C115.431 63.5042 115.073 63.9853 114.602 64.317C114.122 64.6552 113.567 64.8081 113.108 64.7833C112.663 64.7592 112.377 64.5815 112.222 64.3192C110.342 61.1314 106.791 59.3654 103.221 60.3306C102.733 60.4628 102.213 60.6465 101.719 60.8949C97.8302 62.8496 96.4038 67.5002 98.2767 71.3844C98.5803 72.014 98.5201 72.3795 98.4323 72.5769C98.3329 72.8003 98.1017 73.0229 97.7145 73.1768C97.3281 73.3303 96.8758 73.3757 96.4947 73.3133C96.0957 73.248 95.9298 73.0976 95.884 73.0238C93.9529 69.9106 90.4545 68.0685 86.8684 69.0383C86.3755 69.1716 85.8782 69.3507 85.3872 69.5975L85.3871 69.5975C81.5104 71.547 80.0014 76.2506 81.958 80.1251L81.958 80.1251L81.9641 80.1369C82.296 80.7729 82.0145 81.6899 80.9754 82.3322C79.9942 82.9387 78.8212 82.9518 78.0166 82.1047L77.2915 82.7925L78.0165 82.1047C77.0198 81.0556 75.9178 80.0846 74.599 79.5065C73.2461 78.9136 71.7311 78.7624 69.9774 79.2385C69.4588 79.3793 68.9513 79.5874 68.4824 79.823L168.266 0.996565ZM17.736 118.828C17.736 118.828 17.738 118.827 17.7418 118.826C17.7378 118.828 17.736 118.828 17.736 118.828ZM0.968912 84.8095C0.968897 84.8095 0.96926 84.8092 0.970071 84.8085L0.968912 84.8095Z" fill="#EA5050" stroke="#0E6F3B" stroke-width="2"/>
<path d="M194.911 150.108C194.765 150.091 194.606 150.079 194.434 150.068L194.43 150.068L192.612 149.949C192.612 149.949 192.611 149.949 192.611 149.949C190.2 149.803 188.049 151.117 187 153.126L186.282 154.502L185.326 153.281C184.316 151.993 182.785 151.118 181.023 151.01L181.023 151.01L179.2 150.898C177.32 150.784 175.6 151.557 174.432 152.853L173.708 153.657L172.963 152.873C172.087 151.95 170.919 151.295 169.566 151.089C169.566 151.089 169.565 151.089 169.565 151.089L167.755 150.821L167.751 150.82C164.984 150.399 162.388 151.945 161.377 154.415L160.234 157.209L159.482 154.288C158.91 152.062 157.08 150.29 154.661 149.922C154.66 149.922 154.66 149.922 154.659 149.922L152.849 149.654L152.845 149.653C150.969 149.368 149.187 149.988 147.905 151.187L147.893 151.175L147.878 151.19L147.837 151.224M194.911 150.108L147.4 150.649L147.893 151.174C147.875 151.192 147.856 151.208 147.837 151.224M194.911 150.108L195.057 150.131C195.24 150.16 195.423 150.204 195.633 150.26M194.911 150.108L195.633 150.26M147.837 151.224C147.793 151.26 147.748 151.291 147.703 151.317C147.63 151.36 147.559 151.388 147.496 151.408C147.432 151.428 147.375 151.439 147.326 151.445C147.277 151.451 147.233 151.453 147.196 151.453C147.16 151.452 147.127 151.45 147.1 151.447C147.073 151.445 147.049 151.441 147.028 151.437C147.008 151.434 146.99 151.43 146.975 151.426C146.959 151.423 146.945 151.419 146.934 151.416C146.91 151.409 146.892 151.403 146.878 151.399C146.865 151.394 146.854 151.39 146.846 151.387L146.853 151.39C146.861 151.393 146.873 151.397 146.888 151.402C146.902 151.407 146.922 151.414 146.946 151.421C146.959 151.424 146.973 151.428 146.989 151.432C147.005 151.435 147.023 151.439 147.044 151.443C147.065 151.447 147.09 151.45 147.118 151.453C147.146 151.456 147.179 151.458 147.216 151.458C147.254 151.458 147.298 151.456 147.348 151.45C147.399 151.443 147.458 151.432 147.522 151.412C147.583 151.392 147.651 151.364 147.721 151.324M147.837 151.224C147.798 151.256 147.759 151.289 147.721 151.324M147.721 151.324C147.451 151.566 147.2 151.852 147.111 151.961C147.018 152.075 146.915 152.151 146.885 152.173L146.883 152.174C146.834 152.21 146.784 152.242 146.74 152.27C146.65 152.326 146.542 152.387 146.429 152.447C146.2 152.57 145.91 152.712 145.606 152.846C145.306 152.979 144.973 153.112 144.663 153.208C144.509 153.256 144.344 153.3 144.183 153.329C144.036 153.355 143.824 153.381 143.6 153.349M147.721 151.324L143.6 153.349M143.6 153.349L143.742 152.359M143.6 153.349L147.201 150.453C146.818 150.769 146.459 151.18 146.336 151.331C146.213 151.482 144.304 152.439 143.742 152.359M143.6 153.349C143.14 153.284 142.662 153.02 142.372 152.847C142.037 152.648 141.74 152.435 141.601 152.335L141.344 152.148L141.241 151.848C140.601 149.965 139.017 148.46 136.911 147.993L135.126 147.597C132.704 147.06 130.32 148.057 128.99 149.948L128.831 150.175L128.578 150.287C128.159 150.475 127.682 150.543 127.249 150.565C126.803 150.588 126.325 150.565 125.862 150.524C125.436 150.486 125.046 150.318 124.74 150.15C124.422 149.975 124.125 149.759 123.871 149.555C123.364 149.146 122.961 148.722 122.839 148.591L122.737 148.483L122.672 148.35C121.909 146.799 120.463 145.593 118.624 145.185L115.479 144.488C112.271 143.777 109.127 145.764 108.414 148.958L107.437 148.741L106.461 148.525L106.537 148.185C107.25 144.992 105.247 141.863 102.039 141.151L98.8943 140.454C97.7354 140.197 96.5888 140.291 95.5637 140.667L94.9308 140.899L94.4785 140.4C93.6878 139.528 92.6202 138.884 91.3668 138.606L88.2217 137.909C85.6533 137.339 83.1195 138.513 81.8482 140.647L80.0126 139.92L80.1121 139.474C80.4885 137.788 79.4321 136.138 77.7283 135.76L60.5575 131.952C59.7389 131.771 58.9381 131.919 58.2777 132.308L56.8923 133.123L56.7735 131.521C56.5432 128.417 54.3602 125.692 51.1575 124.9C51.1572 124.9 51.1569 124.9 51.1566 124.9L45.5893 123.537L45.5873 123.537C41.5908 122.55 37.5887 124.955 36.5977 128.941L36.5972 128.943L34.7529 136.306C34.7529 136.306 34.7528 136.307 34.7527 136.307C33.7626 140.292 36.1834 144.294 40.1792 145.282C40.1794 145.282 40.1796 145.282 40.1797 145.282L45.7392 146.648L45.7403 146.648C48.385 147.302 51.0516 146.463 52.8285 144.668L54.325 143.156L54.5346 145.27C54.6642 146.579 55.607 147.7 56.9663 148.002L63.4054 149.43L64.6289 149.701L64.0911 150.833L59.0601 161.426L101.378 175.74L146.179 188.666L196.805 179.229M143.6 153.349C143.6 153.349 143.6 153.349 143.6 153.349L143.742 152.359M143.742 152.359L196.805 179.229M196.805 179.229L196.243 176.286L196.123 175.659L196.641 175.286C198.029 174.287 198.968 172.688 199.083 170.834L199.979 156.331L199.979 156.331C200.157 153.468 198.294 150.972 195.633 150.26M196.805 179.229L195.735 149.88L195.633 150.26M195.633 150.26L195.735 149.88L195.633 150.26Z" fill="#D9D9D9" stroke="#0E6F3B" stroke-width="2"/>
<path d="M199.041 169.641L198.187 174.124C198.106 174.75 197.76 175.24 197.133 175.16C196.506 175.08 196.156 174.525 196.145 173.894C196.049 168.863 194.393 170.91 194.139 173.61C193.881 176.356 191.996 178.009 190.524 177.793L190.089 177.741C188.616 177.525 187.823 175.061 187.76 173.576C187.64 170.75 185.295 171.058 184.992 174.187C184.751 176.675 182.36 179.463 179.886 179.087C177.412 178.712 176.21 176.446 176.104 173.949C176.005 171.614 173.266 171.075 172.557 174.254C171.875 177.309 169.199 179.464 166.101 178.993C163.004 178.523 160.679 175.606 161.361 172.551C162.387 167.955 158.546 168.046 157.948 170.458C156.825 174.983 152.578 177.814 148.417 176.787C144.256 175.759 142.6 171.4 142.94 166.751C143.054 165.193 140.18 164.13 139.421 167.53C138.405 172.08 134.055 174.865 129.895 173.837C125.734 172.809 122.998 168.266 124.414 163.822C125.027 161.898 121.897 160.944 121.263 162.95C119.853 167.413 115.82 169.182 111.289 168.063L111.077 168.016C106.547 166.897 105.118 162.486 104.921 157.829C104.815 155.341 101.977 155.054 101.103 156.935C99.1254 161.188 96.0366 162.589 91.5066 161.47L85.9247 160.099C81.3944 158.98 77.9923 154.22 79.7893 149.917C81.2406 146.441 77.3916 144.542 76.3777 147.026C74.8691 150.72 71.3161 151.739 66.7862 150.62L61.2255 149.253C56.6952 148.134 53.98 143.6 55.069 139.066C55.6074 136.824 52.8175 135.308 51.5937 137.649C48.6607 143.262 44.1703 144.2 37.9901 140.983C34.0515 138.933 32.9393 135.529 36.4172 126.82C39.1286 120.031 20.9703 116.666 20.6173 116.413C20.2645 116.159 20.0172 116.703 20.0172 116.703C20.0172 116.703 18.4125 127.274 17.2519 133.33C17.0908 134.171 17.9156 134.536 17.9212 135.328C17.9624 141.158 15.6896 142.212 15.2012 144.615C14.3778 148.667 12.7172 156.605 15.4352 158.055L18.2423 159.368C53.3411 172.619 91.2031 183.641 127.971 190.652C152.632 195.355 169.638 196.43 190.243 192.945C192.31 192.578 194.592 191.681 195.345 191.27C196.099 190.859 196.342 190.503 196.482 189.874C198.113 182.293 198.69 180.873 200.423 169.146C200.599 167.952 199.356 167.312 199.043 169.641L199.041 169.641Z" fill="#EA5050" stroke="#0E6F3B" stroke-width="2"/>
<path d="M38.5679 117.221C38.5679 122.894 33.9577 127.496 28.2683 127.496C22.5789 127.496 17.9687 122.894 17.9687 117.221C17.9687 111.547 22.5789 106.946 28.2683 106.946C33.9577 106.946 38.5679 111.547 38.5679 117.221Z" fill="#F3F268" stroke="black"/>
</g>
<defs>
<clipPath id="clip0_220_523">
<rect width="201" height="195" fill="white"/>
</clipPath>
</defs>
</svg>
