<svg width="280" height="243" viewBox="0 0 280 243" fill="none" xmlns="http://www.w3.org/2000/svg">
<g clip-path="url(#clip0_230_566)">
<path d="M66.8549 83.8194L52.9301 83.9096L64.8439 138.217L108.411 171.3L182.71 178.648L239.892 131.618L243.544 111.417L66.8549 83.8194Z" fill="#FFFFFA" stroke="#D9D9D9"/>
<path d="M203.767 119.872L194.132 125.083L188.544 122.335L186.171 121.036L182.196 123.795L176.536 126.248L168.271 123.885L164.823 118.915L159.245 125.73L148.302 123.751L141.487 118.173L133.302 120.17L120.676 117.888L116.082 114.45L114.855 111.62L104.449 111.477L99.3176 106.203L96.7114 101.386L86.6912 103.921L81.9449 101.324L79.2579 92.1462L70.9211 94.9851L68.7002 92.8452L65.1001 88.7174L59.2077 87.6521L57.4433 82.9871L54.2284 81.5366L51.0135 80.0862L47.9508 77.7941L45.0403 74.6602L42.1298 71.5264L38.834 65.7152L36.7652 62.7335L36.9174 61.8918L37.5974 53.3226L43.7844 43.1413L65.4468 53.1421L96.6729 63.1336L127.29 76.4919L190.037 85.2282L232.044 88.4766L260.512 94.4925L258.991 102.91L254.335 114.237L249.822 115.159L241.556 112.796L236.13 118.769L230.927 118.697L224.274 121.841C223.355 120.515 221.179 117.804 219.832 117.561C218.485 117.317 214.531 121.238 212.722 123.229L210.045 123.614L205.603 119.334L203.767 119.872Z" fill="#D9D9D9" stroke="#D9D9D9"/>
<path d="M184.222 160.668C176.936 158.656 172.261 161.113 170.835 162.594L160.044 159.774L154.537 161.386L150.561 164.144L146.961 160.016L140.227 158.799L131.505 158.96L129.284 156.82L117.651 153.848L113.828 155.764L106.171 150.034C106.171 150.034 100.968 149.963 96.7596 149.202C96.6787 144.841 93.4638 143.391 92.622 143.239L86.7297 142.173L85.9592 136.819L77.0042 133.461L70.4222 131.402L74.0127 125.967L70.717 120.155L65.6664 119.242L64.2063 112.894L61.2861 100.197L56.8442 95.917L56.0738 90.5624L55.4554 84.3661L44.3507 73.6662L37.6166 72.4488C34.3542 74.4666 27.9693 80.6137 28.5287 89.0594C29.2279 99.6164 29.2472 118.743 55.8369 159.188C82.4265 199.633 191.147 199.296 200.244 192.249C207.522 186.611 225.346 173.608 233.349 167.811L252.894 127.015L250.816 114.47L242.935 114.784L234.142 120.148L229.486 131.475L220.541 137.681C218.962 140.003 215.346 145.26 213.512 147.71C204.823 149.616 199.952 155.399 198.603 158.053C197.15 158.08 193.599 157.843 191.027 156.683C188.455 155.523 188.225 159.364 188.431 161.429C190.064 162.014 191.508 162.681 184.222 160.668Z" fill="#D9D9D9" stroke="#D9D9D9"/>
<path d="M82.2724 46.6226C63.4169 43.2138 48.1961 42.7799 42.9426 42.9891L41.7965 44.5203L46.6949 46.2751L50.4472 49.5612L55.4978 50.4742L58.9458 55.4437L63.1546 56.2046L66.3695 57.655L67.14 63.0096L69.8983 66.9852L76.1663 61.1646L78.3872 63.3046L84.4413 73.0913L91.0136 65.5873L96.0642 66.5004L99.6643 70.6282L107.017 78.0419L113.366 76.5821L116.58 78.0325L121.641 88.5088L130.586 82.303L136.783 81.6849L139.004 83.8249L145.9 93.7637L155.839 86.8685L163.415 88.2381L166.325 91.372L169.165 99.7083L179.713 89.4462C179.713 89.4462 180.707 88.7567 184.459 92.0427C188.211 95.3287 189.59 97.3165 189.59 97.3165L196.852 90.8064L205.037 88.8092L210.168 94.083L219.651 89.7129C222.839 89.7098 230.195 90.0544 234.113 91.4583C238.032 92.8621 246.868 94.6334 250.796 95.3436C252.301 95.0361 256.273 93.8999 260.127 91.8152C261.466 84.4082 233.026 75.0362 218.638 71.2761C208.841 67.7665 160.799 73.8576 150.698 72.0315C140.597 70.2055 105.842 50.8837 82.2724 46.6226Z" fill="#EA5050" stroke="#EA5050"/>
<path d="M179.8 48.9564C180.432 47.3686 180.113 47.5752 180.385 45.7243C179.398 45.4919 178.45 45.3118 177.887 45.69C178.199 47.0033 178.445 48.3655 179.8 48.9564Z" fill="#0E6F3B"/>
<path d="M178.992 48.8103C177.688 48.6301 177.049 49.4047 176.938 50.9422L178.958 51.3075C179.138 50.3579 178.478 49.9933 178.992 48.8103Z" fill="#0E6F3B"/>
<path d="M142.005 43.375C140.501 42.9049 139.452 43.0908 138.958 44.0757C140.506 44.533 139.73 46.6023 141.348 47.0112C142.577 46.1173 141.489 44.8359 142.005 43.375Z" fill="#0E6F3B"/>
<path d="M140.101 49.2893L142.121 49.6545C142.522 48.317 141.733 47.8041 141.348 47.0113C140.383 47.6348 139.732 47.917 140.101 49.2893Z" fill="#0E6F3B"/>
<path d="M156.482 50.9991C155.31 50.8376 153.877 50.3004 153.177 50.8187C152.929 52.1682 154.606 52.1828 154.832 53.2041C154.199 53.0427 153.904 53.3649 153.834 54.0128C153.553 54.1828 153.217 54.2229 152.91 54.1031C152.574 53.9781 152.217 54.1447 152.096 54.4688C151.973 54.7942 152.137 55.1593 152.462 55.2824C152.597 55.333 152.736 55.372 152.874 55.397C153.596 55.5275 154.328 55.2912 154.88 54.7722L154.944 54.8932C155.65 55.918 157.119 55.4411 157.514 54.5234C156.558 53.7734 157.377 51.7919 156.482 50.9991Z" fill="#0E6F3B"/>
<path d="M160.781 52.6107C161.151 53.4373 164.38 54.0959 164.159 52.387C163.085 52.5371 160.821 50.9717 160.781 52.6107Z" fill="#0E6F3B"/>
<path d="M191.176 76.0465C191.726 74.8004 192.594 74.0169 193.707 73.5836C192.782 71.231 190.846 73.4956 189.19 73.1841C188.921 74.7836 189.582 75.7374 191.176 76.0465Z" fill="#0E6F3B"/>
<path d="M215.418 80.4293C215.508 79.1522 216.703 78.6694 215.93 77.6012C213.502 76.3174 212.359 80.8098 215.418 80.4293Z" fill="#0E6F3B"/>
<path d="M74.0412 56.9559C75.267 57.1375 76.0332 53.4862 74.2215 53.6507C72.8228 54.3192 72.3062 56.032 74.0412 56.9559Z" fill="#0E6F3B"/>
<path d="M178.908 74.663C179.333 74.2548 179.638 73.6754 179.677 72.716L178.061 72.4238C177.348 73.5014 177.523 74.2283 178.908 74.663Z" fill="#0E6F3B"/>
<path d="M215.199 81.6413C213.381 81.3734 213.136 80.0115 211.855 79.3678C210.32 79.857 208.043 81.4706 208.958 83.8508C210.156 83.0052 212.488 83.4442 212.926 84.9853C211.563 85.5699 208.943 84.3383 208.187 85.7976C209.885 86.1845 211.173 87.3247 214.104 87.7016C214.295 85.0103 215.529 83.761 215.199 81.6413Z" fill="#0E6F3B"/>
<path d="M170.321 80.6205C170.681 79.9522 170.262 78.1587 171.163 78.2695L171.162 78.2641C171.307 78.2729 171.453 78.2732 171.599 78.2701L171.567 78.3425C172.215 78.8369 172.654 79.4727 172.891 80.2508C171.66 79.6649 171.516 80.6454 171.056 81.1707C171.477 81.8222 172.739 81.8871 173.813 82.0863C176.41 79.3276 173.169 76.4314 173.803 72.9057C172.303 72.2728 172.187 73.6323 171.16 73.6795C170.915 75.0276 172.224 75.2956 171.861 76.7268C171.628 76.7072 171.416 76.7142 171.395 76.9954C171.314 76.9929 171.23 77.0022 171.149 76.9926C171.092 76.9859 171.038 76.9987 170.983 77.0061L170.978 76.9844C170.81 76.3942 170.25 76.0757 169.508 75.8841C168.72 76.9655 167.299 81.0547 170.321 80.6205Z" fill="#0E6F3B"/>
<path d="M189.637 79.9405C190.214 78.5966 189.317 78.2797 189.744 77.0393L187.724 76.6741C187.551 78.3255 187.795 79.6874 189.637 79.9405Z" fill="#0E6F3B"/>
<path d="M55.8637 58.2591C56.9182 57.4849 55.0703 56.7336 56.044 54.9539C54.8627 54.4395 54.4961 55.1017 53.5467 54.9196C52.9554 56.9788 54.9165 57.2673 55.8637 58.2591Z" fill="#0E6F3B"/>
<path d="M122.239 71.9279C122.323 71.3693 122.59 71.0752 122.862 70.7889L121.65 70.5698C121.503 71.2611 121.774 71.6614 122.239 71.9279Z" fill="#0E6F3B"/>
<path d="M144.277 74.6605L144.131 75.4685L145.343 75.6876C145.526 74.9715 145.113 74.6691 144.277 74.6605Z" fill="#0E6F3B"/>
<path d="M151.919 78.5455C152.782 77.8427 152.143 76.0408 150.264 76.1602C149.912 77.5828 150.463 78.3779 151.919 78.5455Z" fill="#0E6F3B"/>
<path d="M192.111 85.1928C191.797 85.1866 191.488 85.1497 191.204 84.9751C191.195 84.9699 191.185 84.9751 191.176 84.9699L191.256 84.8228C190.454 84.6726 190.942 83.6273 189.786 83.7226C188.69 84.5378 186.891 86.4187 187.698 88.3516C189.258 88.2234 189.792 86.6163 191.037 86.0348L191.028 85.9776C191.205 86.0512 191.384 86.1096 191.56 86.1416C191.921 86.2067 192.273 86.1975 192.597 86.1744C192.61 86.1731 192.617 86.1606 192.63 86.1594L192.653 86.327L193.057 86.4001C193.752 87.0976 192.875 88.8825 194.235 89.1164C195.509 89.2545 195.281 87.2297 195.628 86.0303C194.109 85.5384 193.273 83.4298 192.111 85.1928Z" fill="#0E6F3B"/>
<path d="M146.998 78.073C146.582 77.4293 145.131 77.0905 144.905 78.1117C145.393 78.8607 146.504 78.7086 146.998 78.073Z" fill="#0E6F3B"/>
<path d="M171.976 83.0059C171.749 83.5282 171.261 83.6728 171.279 84.5489C172.272 84.7909 172.994 84.6433 173.446 84.1061C172.644 83.9559 173.132 82.9106 171.976 83.0059Z" fill="#0E6F3B"/>
<path d="M171.133 85.3569C170.094 84.5467 169.948 83.1156 167.789 83.0834C167.167 85.0989 170.14 87.6182 171.133 85.3569Z" fill="#0E6F3B"/>
<path d="M145.825 79.9469C144.959 78.956 142.68 79.1854 142.704 81.0517C144.211 81.359 145.918 81.9491 145.825 79.9469Z" fill="#0E6F3B"/>
<path d="M150.6 81.2275C151.241 81.3052 151.991 81.5346 151.958 80.6386L151.152 80.4928C151.078 80.8985 150.737 80.9132 150.6 81.2275Z" fill="#0E6F3B"/>
<path d="M129.59 77.4291C128.94 78.7041 129.911 78.8553 130.987 78.9333C131.3 77.8913 130.668 77.5057 129.59 77.4291Z" fill="#0E6F3B"/>
<path d="M108.545 76.1278C108.707 75.0185 109.364 75.4361 108.837 74.5117C107.339 73.9123 106.932 76.1647 108.545 76.1278Z" fill="#0E6F3B"/>
<path d="M169.337 88.3699C169.895 88.4535 170.188 88.7203 170.476 88.9931C171.917 87.7446 169.925 86.7709 169.337 88.3699Z" fill="#0E6F3B"/>
<path d="M172.827 89.8354C172.314 89.7201 172.362 89.2158 171.688 89.2122C170.88 90.0936 172.845 90.6488 172.827 89.8354Z" fill="#0E6F3B"/>
<path d="M122.287 83.2016C124.008 83.6865 121.437 85.4696 122.287 83.2016Z" fill="#0E6F3B"/>
<path d="M170.7 92.3713C169.569 93.702 172.429 94.5667 172.243 93.0675C172.277 92.4549 171.333 92.5207 170.7 92.3713Z" fill="#0E6F3B"/>
<path d="M160.213 108.833C160.429 109.86 160.563 110.946 162.343 110.887C162.645 109.614 163.827 108.084 163.074 106.847C161.476 106.579 160.522 107.241 160.213 108.833Z" fill="#0E6F3B"/>
<path d="M157.497 110.011C157.602 110.764 156.579 112.296 157.462 112.508L157.485 112.519C157.461 112.564 157.433 112.605 157.42 112.655L157.347 112.933C157.278 113.21 157.211 113.487 157.094 113.756C156.956 114.079 157.104 114.453 157.426 114.591C157.472 114.61 157.519 114.626 157.565 114.634C157.849 114.685 158.142 114.537 158.262 114.259C158.405 113.927 158.493 113.585 158.579 113.244L158.617 113.096C158.8 112.533 159.688 112.98 159.628 112.067C158.681 111.545 159.11 110.068 157.497 110.011Z" fill="#0E6F3B"/>
<path d="M50.3698 109.419L53.6022 110.003C53.7041 111.699 54.2911 113.059 55.8462 113.747C57.791 112.596 56.4926 109.575 55.1065 108.606C53.8901 105.209 53.8459 101 51.5342 98.3626C51.1676 100.89 48.3169 99.8392 47.9024 102.295C49.2818 102.868 49.3624 102.615 51.0617 103.284C51.4 105.163 52.3241 107.966 50.3698 109.419Z" fill="#0E6F3B"/>
<path d="M68.6776 128.166C69.7289 127.332 69.5192 125.233 67.9771 125.117C66.689 126.087 66.7568 127.713 68.6776 128.166Z" fill="#0E6F3B"/>
<path d="M65.2992 128.39L65.4203 128.354C65.4222 128.363 65.4173 128.371 65.4191 128.38L65.4931 128.586C65.7152 129.214 65.9911 129.996 66.7925 130.256C66.8074 130.26 66.8222 130.264 66.8374 130.267C67.0024 130.297 67.1694 130.2 67.2234 130.036C67.2821 129.856 67.1832 129.662 67.0043 129.604C66.5232 129.447 66.3277 128.894 66.1395 128.357L66.084 128.203C66.0164 127.308 66.0865 126.314 65.8105 125.562C64.1993 125.107 63.3622 125.766 63.3523 127.619C63.7585 128.045 64.3397 128.35 65.2992 128.39Z" fill="#0E6F3B"/>
<path d="M179.624 165.33C180.81 166.134 181.081 163.096 180.464 162.979C180.527 164.266 179.554 164.042 179.624 165.33Z" fill="#0E6F3B"/>
<path d="M49.5303 150.99C50.6704 152.463 51.0258 149.718 49.5303 150.99Z" fill="#0E6F3B"/>
<path d="M211.003 181.017L211.018 181.113C210.737 180.911 210.476 180.718 210.248 180.529C210.241 180.524 210.232 180.526 210.225 180.521L210.268 180.467C209.085 177.918 206.38 181.525 205.311 182.493C206.515 183.021 207.436 185 209.206 184.03C209.732 182.842 208.237 183.053 208.763 181.863C209.297 181.871 209.53 181.448 209.972 181.321C210.144 181.458 210.331 181.598 210.531 181.741L210.426 181.747C209.57 182.307 210.263 183.357 211.345 183.582C211.897 183.188 212.062 182.236 212.188 181.231L210.976 181.012L211.003 181.017Z" fill="#0E6F3B"/>
<path d="M204.469 184.842C205.113 184.92 205.86 185.149 205.829 184.255L205.021 184.109C204.948 184.513 204.613 184.529 204.469 184.842Z" fill="#0E6F3B"/>
<path d="M191.91 185.075L191.691 186.287C192.693 186.52 192.816 187.287 193.38 186.175C192.573 186.024 193.074 184.981 191.91 185.075Z" fill="#0E6F3B"/>
<path d="M185.153 185.522L186.367 185.742L186.586 184.528L185.372 184.308L185.153 185.522Z" fill="#0E6F3B"/>
<path d="M188.935 185.372C187.13 186.432 189.869 189.161 190.663 187.353C189.252 187.273 189.67 185.923 188.935 185.372Z" fill="#0E6F3B"/>
<path d="M40.4752 99.9112C36.743 101.323 34.8301 91.0677 34.3402 85.7638C31.7038 76.3052 27.0086 68.6185 29.3185 113.54C32.2059 169.692 76.5959 183.802 88.3902 195.496C100.185 207.189 153.51 205.53 176.694 207.114C199.878 208.698 230.367 169.88 237.781 162.528C243.712 156.646 244.168 148.037 243.654 144.467L242.275 142.479L233.339 158.248L228.369 161.696L227.913 164.221L222.02 163.155L216.523 174.331L212.852 175.405L207.568 170.973L205.428 173.194L200.387 181.844L197.405 183.913L193.886 184.146L185.692 176.58L180.346 186.913L176.371 189.671L167.639 180.27L165.043 185.015L158.622 191.678L155.255 191.069L148.279 176.769L142.477 189.628L135.591 189.252L129.912 172.58L123.725 182.761L118.066 185.215L113.319 182.618L109.558 169.769L102.833 178.115L95.6425 179.422L92.4892 163.206L81.5559 170.791L76.8097 168.195L76.0296 153.277L69.5285 155.578L62.4901 156.044L62.4805 146.481L61.71 141.127L52.5315 143.813L49.5401 136.319C50.1725 131.218 51.0702 121.123 49.6017 121.553C48.1331 121.983 44.9126 125.052 43.4859 126.532C43.1007 123.855 41.8394 117.368 39.8762 112.841C37.4221 107.182 45.1405 98.147 40.4752 99.9112Z" fill="#EA5050" stroke="#EA5050"/>
<path d="M89.4717 172.396C90.5809 172.588 90.7758 170.664 90.3137 170.047L89.1015 169.828C88.3218 170.361 88.1566 172.275 89.4717 172.396Z" fill="#0E6F3B"/>
<path d="M186.808 187.908C186.124 188.394 185.931 189.364 187.397 189.266C187.539 188.573 187.281 188.176 186.808 187.908Z" fill="#0E6F3B"/>
<path d="M170.943 187.96C169.057 188.246 167.879 186.82 167.014 188.918C168.47 189.557 169.839 190.258 171.241 190.934C172.427 190.067 170.639 189.275 170.943 187.96Z" fill="#0E6F3B"/>
<path d="M88.3372 176.363C88.4294 174.968 90.2401 176.05 89.9876 174.158C89.4633 173.933 89.3203 173.445 88.4441 173.464C88.3454 175.087 87.2184 175.407 88.3372 176.363Z" fill="#0E6F3B"/>
<path d="M186.262 193.233L187.069 193.379C187.142 192.975 187.482 192.958 187.619 192.645C187.106 192.528 187.153 192.026 186.48 192.022L186.262 193.233Z" fill="#0E6F3B"/>
<path d="M102.225 182.629C103.343 183.207 103.4 183.217 104.65 183.068L105.307 179.431L103.691 179.139C103.593 180.865 102.97 181.836 102.225 182.629Z" fill="#0E6F3B"/>
<path d="M148.54 187.247L146.924 186.955C146.842 187.514 146.575 187.808 146.301 188.094C146.938 189.021 148.697 188.964 148.54 187.247Z" fill="#0E6F3B"/>
<path d="M172.783 191.63L170.763 191.265C169.729 193.288 173.042 193.887 172.783 191.63Z" fill="#0E6F3B"/>
<path d="M89.4763 176.987C88.6577 177.668 89.4188 177.506 89.1841 178.603L89.9922 178.749C90.1545 177.639 90.8109 178.057 90.2844 177.133L89.4763 176.987Z" fill="#0E6F3B"/>
<path d="M129.185 185.834C128.553 185.684 129.054 184.747 128.117 184.807C127.279 185.808 128.84 186.81 129.185 185.834Z" fill="#0E6F3B"/>
<path d="M81.5803 176.811C83.3007 177.296 80.7304 179.079 81.5803 176.811Z" fill="#0E6F3B"/>
<path d="M108.578 182.109C107.562 182.78 108.02 183.995 109.021 184.275C109.772 183.787 110.028 182.079 108.578 182.109Z" fill="#0E6F3B"/>
<path d="M133.337 188.254C133.038 187.166 132.143 186.491 130.324 186.458C129.423 188.737 132.454 190.198 133.337 188.254Z" fill="#0E6F3B"/>
<path d="M89.7 180.365C89.1875 180.248 89.2332 179.745 88.5609 179.742C87.7531 180.623 89.7182 181.178 89.7 180.365Z" fill="#0E6F3B"/>
<path d="M101.013 182.41C100.263 182.897 100.006 184.606 101.456 184.576C102.207 184.088 102.463 182.38 101.013 182.41Z" fill="#0E6F3B"/>
<path d="M111.153 186.329C111.236 185.769 111.504 185.477 111.777 185.189C111.217 184.87 110.866 184.409 110.306 184.09C110.018 185.234 109.857 186.286 111.153 186.329Z" fill="#0E6F3B"/>
<path d="M146.636 193.162C147.125 192.508 147.95 192.34 147.881 190.885L145.458 190.447C145.009 191.934 145.979 192.44 146.636 193.162Z" fill="#0E6F3B"/>
<path d="M85.5523 182.536C86.1635 183.463 87.0096 182.928 87.9766 182.974C88.4103 181.008 85.9503 180.709 85.5523 182.536Z" fill="#0E6F3B"/>
<path d="M90.289 181.723L90.0699 182.935C91.1409 183.742 91.5749 181.342 90.289 181.723Z" fill="#0E6F3B"/>
<path d="M171.098 196.332C170.548 198.027 171.994 199.092 172.899 197.91C171.864 197.686 172.788 196.102 171.098 196.332Z" fill="#0E6F3B"/>
<path d="M130.621 189.432C130.365 191.258 130.603 192.742 132.46 193.102C132.556 192.393 132.778 191.863 133.157 191.559C132.4 190.79 132.267 189.585 130.621 189.432Z" fill="#0E6F3B"/>
<path d="M150.015 192.938L149.796 194.15C150.696 194.429 151.332 194.327 151.558 193.636C151.036 193.408 150.889 192.92 150.015 192.938Z" fill="#0E6F3B"/>
<path d="M129.666 190.094C128.476 189.411 128.757 189.893 127.242 189.655C126.431 191.16 128.423 190.721 127.612 192.226L127.889 192.378C127.792 192.449 127.696 192.522 127.608 192.593C127.439 192.731 127.265 192.874 127.152 192.906C126.988 192.947 126.892 193.112 126.934 193.275C126.964 193.393 127.06 193.478 127.175 193.499C127.217 193.507 127.262 193.506 127.305 193.493C127.525 193.436 127.725 193.284 127.929 193.117C129.559 193.621 129.3 191.418 129.666 190.094Z" fill="#0E6F3B"/>
<path d="M144.217 197.314C146.417 197.538 146.776 193.455 148.621 196.024C148.916 195.102 149.713 194.499 149.059 193.6C146.92 193.736 143.398 193.602 144.217 197.314Z" fill="#0E6F3B"/>
<path d="M125.996 191.933C124.523 191.542 125.817 189.231 123.533 189.402L123.167 191.422C124.173 191.708 125.145 193.57 125.996 191.933Z" fill="#0E6F3B"/>
<path d="M133.161 196.149C133.013 196.373 133.174 197.03 133.419 197.031C133.793 197.029 134.031 194.829 133.161 196.149Z" fill="#0E6F3B"/>
<path d="M225.408 80.5663C225.318 81.4559 223.94 80.4888 223.314 80.6051C223.089 81.6022 222.332 81.7192 222.949 82.6252C224.221 82.8986 225.787 80.9704 225.408 80.5663Z" fill="#0E6F3B"/>
<path d="M258.668 141.236C258.608 140.57 257.459 140.661 258.152 139.474C260.143 132.703 259.744 124.771 259.455 118.431C256.943 118.053 256.666 116.124 255.52 114.799C257.434 109.577 260.225 105.62 262.595 101.058C261.054 98.8809 262.903 95.973 263.36 94.5206C265.28 88.4041 265.326 77.8846 263.78 73.7353C261.013 70.1511 253.665 70.3769 251.177 67.2845C249.693 65.4413 244.499 66.1885 242.361 65.2735C241.522 64.9149 240.96 63.925 240.156 63.6231C239.068 63.2144 237.579 63.3554 236.521 62.966C235.88 62.7319 235.454 61.7908 234.72 61.3887C233.665 60.812 232.398 60.9133 231.561 60.4003C228.402 58.4663 227.068 55.3499 222.446 55.4147C218.142 49.0441 207.926 49.7803 199.708 49.6349C198.416 49.8099 198.441 51.8831 197.176 52.0978C195.571 48.6559 192.503 52.5394 189.686 51.9953C190.609 47.3411 179.88 38.1568 175.788 36.5488L175.782 36.5859C175.656 36.4432 175.511 36.2919 175.342 36.1326L175.456 36.0715C164.882 19.5552 146.477 25.2867 131.74 31.4451C131.562 31.451 131.384 31.4607 131.213 31.4629L131.233 31.4142C126.387 31.8993 123.009 34.5013 119.082 36.3102C112.648 32.8819 105.469 34.8766 97.8133 31.6307C96.6067 31.9289 95.5477 32.4397 93.9578 32.1853C91.3611 30.1617 87.5188 31.0282 84.8496 31.7903L84.8581 31.8875C84.4776 31.7613 84.0546 31.6779 83.5929 31.664L83.6392 31.5715C83.529 31.6037 83.4203 31.6188 83.311 31.646C83.2899 31.6474 83.2723 31.639 83.2509 31.6421C83.1608 31.6502 83.0777 31.6769 83.0029 31.7155C80.6807 32.184 78.4775 31.4554 75.7432 31.3957C72.3887 31.3229 68.0803 32.7866 63.9186 32.1785C57.0875 31.1799 51.3047 29.2878 45.5904 29.6994C41.534 29.99 37.1383 32.1958 35.2017 34.0796C35.3131 37.5696 32.9454 41.6459 33.6336 45.0612C34.1739 47.7369 37.4474 48.1514 37.2016 50.7129C35.8576 53.4444 34.6668 55.7133 34.5286 58.5742C34.4665 59.8893 34.8616 62.6658 35.2683 63.7146C36.0908 65.8294 38.7636 66.643 38.5053 68.8893C37.2588 70.1485 35.1928 70.2288 33.2185 70.4368C31.5698 72.6421 29.1509 73.7416 28.5983 77.5288C27.0327 78.7843 25.8907 81.0812 25.0784 83.1508C24.4955 84.6344 23.641 86.9954 23.2477 88.661C21.9533 94.1377 22.8772 100.327 21.9422 105.114C23.3945 106.755 22.4419 110.11 21.9126 112.201C22.6283 115.003 24.173 117.229 23.207 121.197C25.4123 125.674 26.3489 131.033 27.1153 136.507C27.7507 137.242 28.3021 138.039 28.7706 138.89L28.4784 140.506C31.8955 145.204 32.8857 151.584 36.5002 156.142C36.1593 157.085 37.079 157.153 36.539 158.235C42.3328 165.404 44.9792 174.759 53.4544 180.069C52.8215 181.569 54.181 181.685 54.2283 182.712C59.1717 187.055 62.4824 192.533 68.9681 195.807C71.2319 199.066 76.3722 200.329 79.3318 203.105C84.719 205.666 93.2613 210.816 101.632 211.307C103.121 214.16 110.535 212.904 112.58 215.373C115.088 214.743 119.832 215.623 122.019 216.246C122.603 216.411 123.074 217.305 123.49 217.345C123.802 217.375 124.685 216.744 125.654 216.903C131.754 217.898 139.405 219.457 144.644 220.337C145.071 220.407 145.682 219.758 146.406 219.821C152.008 220.309 158.747 222.636 163.264 221.2C164.14 221.768 165.123 222.267 166.351 222.59C171.277 221.711 175.759 220.194 181.369 220.299C183.352 219.353 185.506 216.747 188.014 218.162C189.352 215.485 192.977 215.214 194.547 214.337C192.831 214.098 194.666 213.719 194.766 213.125C196.341 213.696 197.143 213.155 198.476 213.378C200.298 211.081 202.26 208.986 205.559 208.818C208.387 203.216 214.159 201.861 217.667 197.238L219.283 197.53C220.767 195.083 222.519 193.025 225.229 192.347C225.159 191.06 225.908 190.948 226.069 189.995C229.222 188.259 231.653 185.48 234.07 182.68C235.927 182.463 237.804 181.846 239.099 180.251C240.02 179.119 239.895 177.308 240.635 176.359C241.438 175.33 242.855 175.072 243.571 173.967C244.423 172.658 244.66 170.127 245.732 168.936C246.239 168.372 247.167 169.192 247.166 167.941C247.942 162.26 252.411 158.254 254.053 152.917C255.663 147.666 256.097 144.399 258.669 141.233L258.668 141.236ZM252.006 90.3819C254.31 89.1 258.565 87.5762 258.398 91.9546C256.201 92.3537 254.475 93.4306 252.23 93.7601C251.658 92.9822 251.526 91.8873 252.006 90.3819ZM246.749 84.8419C246.972 86.3495 249.728 87.5413 248.039 89.2474C248.445 89.672 249.027 89.977 249.986 90.0166C249.422 90.5613 248.521 90.6209 248.409 91.8176C244.75 90.619 244.1 93.754 240.365 92.4495C240.566 91.2898 240.812 90.1017 239.717 89.8428C239.645 89.6646 239.559 89.4823 239.476 89.2986L239.664 89.4022C241.699 88.487 240.906 86.4733 241.826 84.3691C240.919 83.2316 239.077 82.7439 238.628 81.2875C242.048 80.6386 242.491 84.9188 246.747 84.8416L246.749 84.8419ZM245.113 100.818C242.769 100.733 243.133 103.466 243.501 105.116C241.314 109.095 239.77 114.001 235.468 114.929C235.527 114.534 235.03 114.526 234.733 114.379C235.06 109.907 239.003 104.127 238.463 98.364C241.223 97.5887 242.67 94.9211 245.804 94.6845C249.14 96.8712 246.978 102.156 246.182 106.435C243.597 106.114 246.939 101.671 245.111 100.818L245.113 100.818ZM240.429 117.494L240.648 116.282C241.934 115.901 241.5 118.302 240.429 117.494ZM237.151 144.856C236.871 146.396 235.698 147.603 235.134 149.081C233.847 152.455 233.249 156.436 230.552 158.266C225.9 158.668 227.278 154.885 223.717 154.529C223.777 152.132 222.974 150.333 222.317 148.434L222.233 148.442C222.276 148.319 222.321 148.195 222.362 148.07C222.413 147.918 222.473 147.767 222.528 147.615C224.898 147.5 226.583 146.401 227.969 144.868C227.237 142.832 228.851 141.945 229.579 140.568C231.036 140.8 232.812 141.49 233.362 140.419C233.543 139.115 232.767 138.476 231.231 138.365L231.209 138.353C231.242 138.296 231.27 138.235 231.283 138.166L231.396 137.54C232.445 137.027 232.816 135.543 233.576 134.615C235.389 134.887 236.028 135.978 236.921 136.889C236.099 139.511 237.658 142.041 237.149 144.856L237.151 144.856ZM224.396 162.13C223.712 160.97 222.714 160.03 223.531 157.831C225.342 158.313 224.708 160.491 224.818 162.154C224.68 162.148 224.524 162.148 224.388 162.129L224.396 162.13ZM205.848 167.985C205.77 165.214 205.909 162.289 205.693 159.613C210.124 160.904 209.799 155.343 213.842 156.079C213.979 155.042 213.536 154.405 212.518 154.171C214.826 153.253 218.687 154.572 218.978 150.748L219.785 150.894C220.651 150.815 220.293 151.418 220.447 151.848C222.103 156.441 217.662 172.146 213.195 173.484C210.187 172.045 209.449 169.013 205.845 167.985L205.848 167.985ZM209.674 174.518C209.289 175.321 208.464 175.49 208.43 176.795C207.639 176.266 208.403 173.758 209.674 174.518ZM206.992 173.199C206.872 174.217 206.131 174.335 205.82 175.073C204.851 174.348 204.821 173.522 205.45 172.503C206.323 172.483 206.476 172.975 206.992 173.199ZM171.139 163.796C173.671 162.1 176.676 159.227 180.757 161.363C181.179 160.784 182.148 160.992 182.263 159.966C186.729 164.725 183.852 183.604 177.771 187.108C171.402 185.875 172.515 179.449 170.304 175.328C170.641 174.964 171.309 175.078 171.33 174.261C171.135 170.866 170.476 167.788 171.139 163.796ZM186.881 160.384L188.39 160.657C188.109 161.574 187.142 161.391 186.7 160.769L186.472 160.802L186.487 160.784C186.617 160.644 186.745 160.514 186.873 160.382L186.881 160.384ZM186.449 159.889L186.66 159.857C186.545 159.972 186.431 160.087 186.325 160.2C186.013 159.398 185.028 159.065 184.648 158.31C182.487 158.765 182.76 159.187 180.537 157.983C176.604 158.597 172.618 159.134 169.89 161.483C164.976 157.38 155.43 158.522 150.792 160.951C148.366 156.435 137.829 156.397 133.419 157.81C132.392 156.873 131.44 155.886 130.624 154.803C128.623 155.83 127.801 153.463 127.538 153.41C127.017 153.302 125.851 154.289 125.298 154.259C124.395 154.207 123.569 153.234 122.616 152.939C118.646 151.711 115.68 152.369 113.508 152.544C112.315 151.959 112.394 150.492 111.521 149.684C108.063 149.262 104.331 147.057 101.746 148.424C100.788 148.557 100.015 148.968 99.2825 149.402C97.6626 147.679 97.5395 144.917 96.4944 142.793C93.3286 141.927 92.3853 139.519 88.3746 139.239C87.424 135.66 84.1541 133.686 78.5996 133.301C77.2622 133.169 78.0263 131.577 76.8715 131.32C75.4172 131.363 74.496 132.17 73.1623 131.065C73.8449 129.165 75.2576 128.313 76.0591 126.582C74.4955 122.249 71.7467 118.739 66.0603 117.266C66.4952 111.898 64.8685 107.962 62.9989 104.196C64.0506 101.59 63.7558 100.24 63.2865 97.9892C60.9313 97.6208 60.5981 95.8482 58.3261 95.4235C58.0502 94.0837 58.2159 92.4361 58.3214 90.8332C60.8621 91.3395 62.1627 89.598 64.6013 90.7168C66.3978 91.5406 66.8669 95.6099 68.9773 96.5147C72.9046 98.1982 73.662 95.9709 77.6426 94.7435C78.3743 98.9472 79.927 102.581 82.8314 105.278C89.1688 107.449 92.1734 104.821 96.0873 103.502C96.4655 104.064 96.2868 105.014 96.053 105.999C98.4862 108.148 99.5807 111.124 103.184 112.712C107.559 114.642 111.138 113.889 114.386 113.069C114.538 114.024 114.949 114.798 114.683 116.043C120.456 121.24 134.224 125.638 140.284 119.837C142.485 120.332 143.606 124.441 147.157 125.669C148.157 126.015 150.716 125.919 152.482 126.216C157.731 127.09 159.926 127.748 161.527 124.557C161.677 124.553 161.83 124.544 161.981 124.537L161.955 124.586C163.508 125.296 163.863 124.281 164.598 123.812C166.43 123.719 166.306 124.985 167.208 125.535C172.699 126.325 176.239 128.728 180.21 127.469C182.899 126.616 184.072 123.244 187.222 123.313C189.902 125.396 192.627 127.351 196.554 127.086C200.231 126.838 202.832 122.614 205.141 121.128C206.873 121.928 207.431 123.543 208.669 124.687C214.819 126.76 216.266 122.055 219.535 119.975C222.655 120.286 222.722 122.713 224.203 124.157C226.944 124.034 228.101 121.625 230.59 121.14C230.46 125.196 227.373 124.991 226.116 127.424C225.691 128.661 227.19 128.562 226.484 129.994C224.125 132.705 221.387 134.87 218.228 136.428C217.741 138.273 216.261 138.689 216.139 141.059C213.901 143.773 210.282 144.501 208.286 147.566C204.314 149.14 200.215 150.533 198.194 154.921C196.575 154.962 195.99 156.496 194.524 156.759L193.312 156.54C191.562 152.371 185.104 155.021 186.449 159.889ZM152.153 164.953C152.778 163.486 154.174 163.472 154.356 162.014C157.49 161.437 162.399 160.711 165.961 162.443C169.137 164.954 166.773 169.479 166.265 174.597C165.928 177.991 166.737 179.316 164.805 182.678C164.554 183.114 163.61 183.234 163.373 183.672C162.077 186.074 160.722 190.114 158.091 189.809C156.373 189.609 154.759 186.322 153.644 184.415C152.578 182.597 151.552 180.378 150.626 178.028C151.57 174.189 150.645 168.498 152.153 164.953ZM132.812 177.311C132.904 171.819 132.803 165.829 133.715 160.785C138.084 157.919 143.477 160.93 148.074 162.128C147.471 164.434 148.548 165.511 148.337 167.599C148.23 168.663 147.314 169.083 147.019 170.283C146.892 170.796 147.569 171.624 147.46 172.448C146.752 177.886 144.604 186.063 139.617 188.138C137.208 187.452 137.78 184.701 136.784 183.034C134.331 181.911 134.162 179.202 132.812 177.311ZM112.128 169.399C111.758 165.543 113.618 162.503 113.55 159.226C114.816 157.657 117.853 158.639 117.99 155.439C122.645 155.771 127.088 156.733 129.819 159.247C129.477 160.935 129.899 163.187 129.604 165.049C129.484 165.81 128.629 166.291 128.358 167.325C127.757 169.621 127.527 172.781 126.016 175.664C125.701 176.265 124.808 177.204 124.366 177.869C122.496 180.681 120.068 185.739 116.621 181.475C114.771 179.187 115.104 179.932 114.192 176.446C113.904 175.344 113.835 173.978 113.564 172.995C113.198 171.665 112.19 170.054 112.128 169.399ZM107.864 165.291C106.929 167.651 106.632 170.353 105.337 172.344C105.154 172.626 104.264 172.872 103.905 173.337C103.41 173.979 103.286 175.155 103.136 175.284C101.86 176.392 99.1491 177.124 97.0413 176.685C94.4588 169.131 94.5965 158.647 99.6227 150.867L99.5576 150.794L99.7173 150.7C100.492 150.233 101.162 149.833 101.988 149.735C102.102 149.721 102.2 149.673 102.287 149.612L102.339 149.689C104.893 150.509 106.131 152.24 109.32 152.62C109.644 154.163 110.287 155.483 111.087 156.694C110.569 160.166 108.729 163.109 107.864 165.291ZM73.3573 160.673C73.3144 160.679 73.2862 160.71 73.2524 160.734L73.2275 160.698C73.2797 158.823 74.1843 158.945 73.6734 160.617C73.5704 160.638 73.4657 160.659 73.3573 160.673ZM76.1927 151.22C70.9189 150.378 67.7265 156.958 63.56 151.857C63.1473 145.783 65.5651 140.026 67.8396 135.109L67.7955 135.046C67.8316 135.019 67.8731 135.011 67.905 134.978C68.1115 134.769 68.2568 134.571 68.3954 134.372C70.5385 132.115 76.1011 133.946 77.6845 136.055C77.3074 139.025 79.4907 140.22 80.7754 142.037C79.5476 145.53 77.3833 147.674 76.1927 151.22ZM73.442 154.895L73.2229 156.107L72.0108 155.888L72.2299 154.676L73.442 154.895ZM39.5702 105.542C39.648 105.573 39.7257 105.548 39.7976 105.515C39.6833 106.157 39.2132 106.286 38.4659 106.015L38.5386 105.613L38.3694 105.52C38.5365 105.442 38.6848 105.372 38.8128 105.308C38.9005 105.332 38.9904 105.364 39.0876 105.394C39.2416 105.446 39.4023 105.5 39.5702 105.542ZM36.8948 112.407L36.7763 112.005C36.9982 111.864 37.2803 111.553 37.591 110.864L39.2072 111.156L38.842 113.176C37.6403 113.303 37.8977 112.418 36.8948 112.407ZM39.1934 97.3849C38.8282 95.4623 36.5042 92.2189 36.4677 89.3821C36.4508 88.1291 37.1433 86.7123 37.1981 85.3419C37.3264 82.0934 38.4343 71.5223 44.3498 75.787C42.584 77.3418 44.1936 78.0553 44.4275 79.9733C43.7105 80.4678 42.5949 80.3878 42.1151 81.2242C42.8849 82.4568 44.9668 82.7793 46.2674 83.6438C45.8695 85.2772 45.9557 87.6084 44.6558 87.9419C45.2384 89.8934 48.1805 90.208 47.9659 92.7126C44.508 93.5008 43.5133 97.8391 39.1934 97.3849ZM42.4692 104.653C42.7096 103.304 44.2857 103.876 44.8546 102.998C44.9033 101.786 43.7095 101.437 43.1996 100.613C45.3124 98.2252 47.0238 95.2594 51.164 95.7941C50.9734 94.4541 53.3681 94.3829 53.5106 92.0461C53.6098 91.1513 52.6492 90.9933 51.6365 90.8728C50.5056 90.5988 51.5214 93.4232 50.3901 93.1508C48.9123 92.4108 49.8304 90.0057 50.0545 88.0835C52.5393 89.235 53.1091 86.8434 52.6591 85.2165C50.9509 84.4523 50.5268 85.5386 49.2806 85.4402C49.3576 83.6201 48.9794 82.1157 47.5137 81.3657C50.3039 79.8379 51.3565 85.1705 54.2022 85.9128C54.1863 87.5875 53.3981 88.149 53.1408 89.4759C54.7625 90.8243 55.8216 92.563 55.4236 95.3125C53.9256 95.5302 52.3573 95.6465 52.415 98.1064C52.3042 99.0077 54.0978 98.5879 54.7662 98.9487L54.7753 98.9468C54.7662 99.093 54.7707 99.2416 54.77 99.3892L54.6932 99.3527L54.2549 101.777C56.6695 102.923 57.1531 99.6132 56.0346 99.1936C56.0367 99.1436 56.0334 99.0943 56.0372 99.0446C56.2045 98.6768 56.5966 98.6329 56.6015 98.0288C60.0044 98.1416 59.5129 100.956 59.8385 103.204C56.8081 102.541 54.1725 106.541 56.3183 108.827C58.8888 109.476 58.8433 106.353 60.6124 105.847C61.7093 106.146 61.6293 107.261 61.8634 108.159C61.7933 109.249 60.8316 109.049 60.0278 109.081L59.5165 111.909L59.5962 111.901C59.5417 112.038 59.4889 112.177 59.4482 112.315L59.4437 112.311C58.8224 113.113 58.1017 113.772 58.0513 115.397C56.8686 114.881 56.7367 115.879 55.554 115.363C54.1222 115.676 53.5345 117.206 52.8767 118.632C49.3833 118.52 48.0742 121.559 44.8001 121.763C41.2307 117.446 40.8443 111.852 42.4692 104.653ZM54.7866 82.6806C55.208 82.8594 54.9158 83.5332 55.4486 83.6347C55.0731 84.7212 54.1739 83.4251 54.7866 82.6806ZM56.5923 88.8482C56.6792 88.704 57.5766 88.2891 57.8775 88.6633C58.5501 89.5012 55.7462 90.2685 56.5923 88.8482ZM64.4021 121.908C64.3155 121.907 64.227 121.915 64.1419 121.905C64.1301 121.903 64.1168 121.909 64.1048 121.909C64.082 121.313 63.9427 120.189 63.4175 118.036L64.6296 118.255C64.3679 120.174 65.3037 120.239 64.4021 121.908ZM63.854 115.612C61.6376 116.409 61.0148 114.401 60.5825 112.936L60.5635 112.926C60.5895 112.878 60.6191 112.83 60.6326 112.775C60.6537 112.686 60.6945 112.605 60.7238 112.52C62.6108 112.054 64.9914 112.994 63.854 115.612ZM56.4009 117.602C57.8225 117.442 57.6245 118.402 57.3209 119.437C59.3662 120.52 59.015 118.144 60.7724 118.81C60.6259 119.11 60.3491 119.218 59.8912 119.068C59.6021 121.388 61.8514 121.948 62.8703 123.361C63.3583 123.383 64.006 123.638 64.1555 123.176L64.1542 123.164C64.3004 123.173 64.448 123.174 64.598 123.171L64.5595 123.249C65.6342 123.44 66.8399 123.82 67.4609 123.357C67.7458 122.127 66.3684 121.283 67.5681 120.455C71.073 120.898 73.3959 124.878 71.91 128.75C71.789 129.064 70.6619 129.182 70.5521 129.338C70.2955 129.709 70.5756 130.641 70.2599 130.954C69.2987 131.905 67.1337 131.715 67.2529 133.565C67.1872 133.66 67.1091 133.755 67.0274 133.851C62.2257 135.956 59.7988 141.485 53.7079 141.73C50.6297 139.254 52.9605 134.709 51.3474 131.707C52.9117 126.035 52.5505 120.677 56.4009 117.602ZM82.5099 138.521C82.5229 138.497 82.5519 138.49 82.5622 138.463L82.5808 138.417C82.6278 138.349 82.6582 138.287 82.7166 138.214L82.6626 138.215C82.7136 138.087 82.7725 137.953 82.8278 137.821C83.7316 138.12 83.8177 137.24 84.8826 137.773C86.4086 140.69 81.0501 140.874 82.5099 138.521ZM81.5422 137.585L80.3654 137.372L80.5848 136.158C81.2125 136.312 81.9969 136.358 81.6509 137.185L81.7108 137.181C81.653 137.318 81.596 137.45 81.5422 137.585ZM79.9752 151.07C80.5396 149.294 80.2174 147.374 80.8517 146.222C81.7139 144.655 83.7585 144.452 83.9334 143.024C85.4732 143.036 87.864 144.275 88.855 143.496L89.0741 142.284C93.5325 142.607 94.868 145.096 96.0208 147.711C94.8211 160.242 88.4632 165.338 80.9479 168.769C76.7748 167.349 77.53 163.124 78.1103 159.077C78.2607 158.034 77.6719 156.828 77.8135 156.103C78.1075 154.602 79.3493 153.041 79.9752 151.07ZM90.6404 165.932L90.6593 166.068C90.5177 165.995 90.3738 165.925 90.2251 165.873L90.2346 165.859C91.2475 165.612 91.7241 163.063 92.9511 164.681C92.8723 165.212 92.6217 165.503 92.3637 165.776C92.2064 165.78 92.0575 165.787 91.9049 165.794L91.9238 165.747C91.373 165.63 91.0039 165.777 90.6404 165.932ZM87.8222 66.123C89.8237 66.1302 85.4337 68.3718 87.7491 66.527C87.7796 66.5029 87.7943 66.1231 87.8222 66.123ZM92.6707 66.9995L95.4991 67.5109C98.5258 70.6848 98.8651 75.8954 99.9186 79.9922C100.208 81.1206 101.35 82.6796 101.281 83.9936C101.145 86.5973 98.841 88.9433 97.8004 91.7087C96.6634 94.728 96.1977 97.6791 95.3123 100.855C93.0762 102.386 89.8717 102.523 86.316 102.149C83.595 100.15 81.5019 97.7168 80.6159 94.4431C82.9806 82.9119 86.4016 72.9033 92.6707 66.9995ZM111.154 77.8512C117.002 77.0274 116.711 81.5347 117.443 86.9155C117.708 88.8531 118.69 91.0106 118.587 92.1289C118.468 93.4321 117.362 94.9028 117.048 96.023C115.693 100.858 115.336 106.161 114.161 109.687C110.357 112.521 104.377 111.134 101.563 107.826C99.4761 105.375 99.6934 101.894 97.9557 100.081C100.668 90.2402 104.449 81.9377 111.154 77.8512ZM103.993 78.2255C105.288 77.0237 104.594 80.4793 103.993 78.2255ZM83.3093 70.3138C83.5913 69.3982 84.5564 69.5796 84.9985 70.2019C84.7165 71.1175 83.7514 70.9361 83.3093 70.3138ZM82.7295 78.1362C80.4675 81.6666 79.4977 87.0595 78.1528 91.9117C76.7195 92.4835 75.1207 91.6816 74.0782 93.6784L69.2296 92.8018C66.7197 88.5965 67.5073 84.7978 68.9578 78.1498C70.2378 72.281 72.2123 65.3505 76.397 62.3885C81.3505 65.6657 79.6026 73.5934 82.7295 78.1362ZM119.181 98.0774C120.931 90.7691 124.957 87.4863 129.302 83.6355L129.27 83.6002C129.629 83.4912 129.971 83.36 130.297 83.2174C130.896 82.957 131.403 82.708 131.979 82.7913L131.945 82.8617L137.602 83.8844C140.144 87.6922 143.064 91.8204 143.088 97.3929C143.116 104.237 139.869 111.563 138.554 117.852C131.467 120.899 124.319 115.562 117.14 113.98C116.39 110.368 117.343 107.473 118.231 103.33C118.599 101.613 118.814 99.607 119.181 98.0774ZM147.368 84.6487C147.437 84.6541 147.496 84.6336 147.56 84.6207C147.66 85.0631 148.065 85.2979 148.107 85.7836L148.154 85.8354C147.9 85.9183 147.645 86.0026 147.413 86.0928C147.361 86.1146 147.322 86.125 147.272 86.1454C146.933 85.8373 146.643 85.4963 146.394 85.1419C146.42 84.9726 146.454 84.8049 146.512 84.6364C146.722 84.6013 146.998 84.6217 147.368 84.6487ZM145.124 85.8684C145.161 85.8872 145.202 85.8999 145.243 85.9142C145.565 86.3757 145.947 86.836 146.425 87.251C146.479 88.0204 146.078 88.7164 145.387 89.5198L145.357 89.4586C144.844 89.3433 144.891 88.839 144.218 88.8354C144.114 88.083 145.135 86.5501 144.252 86.3383L144.187 86.3022C144.328 86.2355 144.469 86.1638 144.609 86.1021C144.777 86.0299 144.949 85.9532 145.124 85.8684ZM161.788 123.266C161.64 123.272 161.488 123.281 161.34 123.284L161.368 123.228C157.771 123.177 153.179 124.593 151.266 121.402C149.445 120.476 149.956 122.91 148.217 122.102C146.575 120.887 145.424 119.328 143.953 117.993C143.388 115.822 144.512 113.698 144.718 111.456C145.169 106.559 145.331 98.2956 148.19 94.5602C150.026 92.1612 155.3 90.2844 156.85 88.1987C159.771 88.4087 161.376 89.5349 164.048 89.9173C168.626 97.6378 167.469 112.845 161.788 123.266ZM174.603 96.6949C174.696 96.6472 174.787 96.5942 174.852 96.5051C176.906 93.7282 179.102 92.1591 181.387 91.8107C181.854 91.9403 182.429 91.8548 182.854 92.0654C183.902 92.5852 185.946 95.3972 186.496 97.3134C188.523 104.387 185.612 117.455 182.847 122.104C180.726 122.477 179.534 125.052 176.864 125.195C172.64 125.422 169.025 122.389 166.945 120.064C169.822 114.717 169.381 107.588 169.351 102.141C171.179 100.436 173.128 98.9053 174.603 96.6949ZM190.283 101.753C191.769 97.2845 196.08 95.4336 197.581 91.3902C199.901 91.1664 200.726 88.7948 204.08 90.0618C209.229 95.3145 205.59 113.437 200.841 119.516C198.55 122.449 197.111 123.445 193.758 124.077C191.233 122.765 189.434 120.954 188.024 118.868C190.779 113.054 188.61 106.788 190.283 101.753ZM211.605 122.297C208.945 121.195 207.721 119.102 206.273 117.161C208.501 113.412 207.448 105.371 209.121 101.404C209.587 100.301 211.096 99.068 212.203 98.2059C214.218 96.6371 216.288 93.1311 218.439 91.4061C220.37 91.7153 220.188 93.492 221.71 94.0836C221.653 98.2506 221.44 105.733 219.154 108.224C218.686 115.045 216.284 120.167 211.605 122.297ZM230.073 137.749C228.837 138.671 227.113 138.89 225.614 139.434C225.846 138.475 226.416 138.006 226.759 137.204C226.807 137.143 226.875 137.103 226.898 137.024C226.925 136.933 226.965 136.845 226.994 136.753C227.221 136.767 227.421 136.746 227.41 136.419C228.767 136.618 229.678 136.012 230.153 137.308L230.073 137.749ZM219.446 141.238C220.077 139.132 221.958 136.545 224.144 138.332C222.673 139.447 221.868 141.497 219.446 141.238ZM221.325 147.001L221.402 146.995C221.318 147.219 221.229 147.443 221.155 147.67C221.141 147.711 221.126 147.753 221.112 147.794C218.85 147.38 216.918 146.74 215.263 145.904C216.859 144.289 220.421 144.788 221.325 147.001ZM224.509 136.312L224.728 135.1C225.356 135.253 226.139 135.299 225.794 136.127L225.883 136.119C225.83 136.257 225.774 136.395 225.731 136.535L225.714 136.53L224.502 136.311L224.509 136.312ZM232.124 112.655C228.81 113.967 228.391 119.59 224.675 119.236C217.765 118.579 224.351 106.195 225.278 99.7354L228.108 100.247C228.483 96.7127 230.869 96.0766 231.846 93.4126L234.674 93.924C235.929 100.64 235.373 106.609 232.124 112.655ZM226.868 86.0458C227.007 86.1717 227.136 86.3079 227.269 86.4363C227.091 88.1114 225.826 87.4063 226.884 86.2572L226.85 86.0304L226.865 86.0452L226.868 86.0458ZM201.833 155.577C201.947 154.212 202.221 153.08 203.151 152.893C204.874 153.112 203.906 155.197 204.659 156.088C206.09 156.79 205.573 154.689 206.899 155.239C207.404 158.794 203.071 157.67 201.833 155.577ZM205.464 151.644C207.072 149.972 209.332 147.976 212.111 149.508C210.022 149.386 209.128 150.98 208.551 153.036C206.686 153.157 206.671 151.991 205.464 151.644ZM190.266 157.241L192.69 157.679L192.744 157.708C192.18 158.07 191.161 158.74 189.351 159.996C189.545 158.922 189.616 157.661 190.266 157.241ZM195.265 161.9L195.257 161.811C195.646 161.946 196.036 162.042 196.411 162.121L196.654 162.172L196.676 162.176C197.011 162.236 197.337 162.02 197.409 161.686C197.483 161.343 197.266 161.005 196.923 160.93L196.672 160.878C196.404 160.821 196.151 160.759 195.901 160.69C195.922 160.583 195.899 160.425 195.963 160.359C203.593 152.63 203.133 169.692 202.294 176.106L202.373 176.098C202.289 176.324 202.2 176.548 202.126 176.775C202.106 176.835 202.083 176.896 202.062 176.954C199.971 177.625 200.067 181.44 198.224 182.461C196.418 182.65 196.022 182.216 194.185 181.731C193.252 178.256 190.972 175.714 187.675 173.879C187.425 167.86 189.373 160.831 195.231 161.894L195.265 161.9ZM237.128 121.904C235.856 122.276 235.539 124.027 234.194 124.295C234.263 122.643 234.192 123.037 234.705 121.466L237.13 121.905L237.128 121.904ZM229.599 85.0791C233.045 83.7029 228.876 79.175 232.274 77.2182C232.979 78.2601 233.956 79.1131 236.093 79.1604C237.554 81.0621 236.193 83.6879 234.264 84.6709C234.041 86.0038 234.582 86.8059 234.009 88.3798C234.682 89.0908 235.939 89.398 236.141 90.4342C237.154 90.2383 237.499 89.0786 239.074 89.6953C239.149 89.8671 239.233 90.0387 239.305 90.2169L239.318 90.2488L239.115 90.1392C238.605 90.7614 237.628 90.71 237.207 91.4631C233.833 87.3919 230.937 92.8433 227.622 91.399C228.52 89.2979 230.344 88.5326 230.738 85.704C229.31 85.1748 228.537 85.5877 227.762 86.0004L227.793 86.2129C227.654 86.0749 227.517 85.9371 227.384 85.8121C227.603 84.8695 227.756 83.9707 227.393 83.4322L227.227 83.3413C227.23 83.3332 227.241 83.3316 227.244 83.3235C227.347 83.1109 227.435 82.8938 227.524 82.6788C227.583 82.5381 227.656 82.3985 227.719 82.2567C229.146 82.6296 228.922 84.1605 229.59 85.0776L229.599 85.0791ZM226.615 76.1952C228.153 76.3063 228.927 76.947 228.746 78.2493C227.397 78.0142 226.054 77.7626 226.615 76.1952ZM131.376 32.7353C131.532 32.7321 131.688 32.7238 131.847 32.7178L131.822 32.7723C136.928 31.9831 142.431 31.7664 147.244 30.5538C150.497 31.8478 153.446 29.6238 155.325 32.0148C161.868 31.0734 169.108 34.9586 174.58 37.1091C174.727 37.2557 174.855 37.3936 174.968 37.5254C179.491 42.6776 182.949 48.3874 188.251 52.9876C184.99 54.3973 180.357 53.8325 176.686 54.6518C173.3 57.5826 168.274 58.1481 163.065 58.4477C163.517 57.2289 163.871 55.8745 164.531 54.9576L161.701 54.4459C161.304 54.9201 162.242 57.6643 160.568 58.4134C155.152 56.2296 148.792 57.5518 143.267 54.8683C142.423 54.4585 142.072 53.4962 141.135 52.814C140.143 52.0904 138.482 51.9883 137.644 51.3485C136.411 50.404 135.952 48.1689 134.115 47.7899C134.625 45.4343 134.955 43.2027 133.449 42.2455C132.156 42.4516 132.258 44.3006 132.46 45.4046C130.94 44.9281 129.933 44.0958 130.07 42.4691L130.009 42.4736C130.073 42.3167 130.142 42.1587 130.209 42.0021C130.9 41.185 132.51 41.688 133.264 40.9603C134.249 39.1549 134.746 36.6458 135.645 34.7152C132.343 35.3874 129.867 37.2553 129.004 41.4419L129.062 41.4368C129.008 41.5627 128.954 41.6885 128.902 41.8146C125.784 39.0396 129.219 34.5514 131.376 32.7353ZM144.409 60.0815C144.136 60.3677 143.869 60.6619 143.786 61.2205L141.362 60.7822C141.513 60.3211 142.161 60.5738 142.647 60.5974C143.313 60.5387 143.222 59.3888 144.409 60.0815ZM130.224 50.8414L129.416 50.6953C129.419 50.0214 129.924 50.0691 130.039 49.5563C130.838 49.9337 130.782 50.3408 130.224 50.8414ZM126.072 48.4218L127.284 48.6409L126.918 50.661C125.202 50.8183 125.144 49.0591 126.072 48.4218ZM91.956 50.1813C94.2624 49.6369 98.0906 50.7915 98.6057 52.6352C100.963 51.2151 103.494 52.9852 107.237 53.3611C107.7 56.5514 106.146 59.019 108.346 61.0718C108.022 62.6421 106.424 62.3758 105.484 63.0576C106.166 65.3157 104.604 67.1422 102.991 67.6137C102.727 68.7393 103.77 68.9575 104.792 69.191C107.477 66.9487 109.199 63.319 112.056 61.3252C112.155 60.4321 111.194 60.2741 110.182 60.1519C110.631 58.1923 109.41 57.3908 109.773 55.4886C111.689 55.6906 112.245 56.836 113.594 57.4311C112.594 59.3955 114.308 60.6459 115.653 59.8895C116.909 59.7531 114.825 59.1156 115.541 58.2003C119.558 59.8252 122.441 62.7213 125.316 64.1398C125.899 64.4259 126.773 64.1859 127.336 64.505C128.853 65.3651 130.084 67.0808 131.747 67.8057C132.648 68.198 134.166 68.0901 135.383 68.4631C138.29 69.3555 140.649 71.8419 143.245 71.1361C145.342 73.3371 148.351 72.9371 151.365 74.6902C152.215 74.7275 152.366 73.7569 152.871 73.2936C153.764 73.3804 154.097 73.8561 153.864 74.7248C154.641 74.4846 154.857 73.4423 155.441 72.9238C158.145 73.6143 160.403 74.5302 163.12 74.312C164.827 74.5408 164.009 76.5206 166.06 76.5125C167.572 75.9966 165.624 74.9716 166.094 74.0153C171.744 72.3127 177.676 71.014 184.564 71.0961C190.883 68.7633 201.586 72.0179 208.583 72.1007C209.783 72.21 209.658 73.2374 210.859 73.3467C214.865 71.6511 218.829 74.7127 223.863 75.2805C223.955 77.4545 223.912 79.7223 226.768 79.9778C226.61 80.676 226.631 81.2501 226.879 81.6669L226.973 81.6525C226.864 81.8763 226.753 82.0978 226.662 82.3229C226.634 82.3892 226.603 82.4549 226.578 82.5198C226.02 82.6432 225.552 82.8958 224.973 82.9894C225.74 86.0939 222.435 85.5588 222.592 89.2346C215.89 87.2945 213.796 93.2803 208.713 92.1493C209.329 89.7434 208.021 88.2204 206.614 87.5975C203.147 86.0581 197.948 89.2939 195.378 89.7385C195.599 92.6034 193.033 91.451 192.958 93.8905C191.627 93.6672 190.825 94.2089 189.251 93.6374C189.571 91.7883 190.672 93.8735 191.746 93.6714C192.048 90.8193 193.997 88.6544 191.153 87.7229C190.558 87.7161 190.352 88.2666 189.794 88.3118C189.766 89.3915 190.78 89.7485 190.568 90.955C189.343 90.7143 188.842 91.5226 187.927 91.7291C186.292 90.886 182.657 88.2209 181.091 90.4481C178.529 90.8681 176.113 92.547 173.904 95.4576L173.9 95.4533C172.164 95.3291 171.868 97.2781 170.229 97.293C169.86 96.018 170.327 94.1625 167.839 94.3576C170.601 91.1089 165.754 88.0717 163.497 86.0626C160.814 86.5666 159.869 86.5314 156.409 86.0328C155.05 86.8737 152.99 87.5964 150.903 88.7924C149.173 89.7835 146.891 92.3958 146.525 90.2191C147.218 89.3865 147.781 88.4644 147.77 87.362C147.811 87.3451 147.842 87.3368 147.885 87.3202C148.079 87.2458 148.29 87.1761 148.498 87.1042C149.85 87.4425 150.738 87.1093 151.009 85.8909C149.933 84.6307 150.437 83.8805 150.381 82.4396C149.292 82.3367 148.599 82.8042 147.742 83.0368C147.623 82.9702 147.493 82.9189 147.358 82.9084C146.804 82.869 146.11 82.8184 145.432 83.1964L145.186 83.3328L145.067 83.5877C144.848 84.0592 144.714 84.5234 144.657 85.0033C144.654 85.0201 144.661 85.0371 144.66 85.0542C144.521 85.1196 144.382 85.1832 144.239 85.2442C144.141 85.2856 144.041 85.3405 143.944 85.3839C142.843 83.5923 140.447 82.6968 139.876 80.537C138.215 79.6699 138.239 81.2355 137.233 81.3108C135.059 80.8065 133.036 80.5138 131.884 81.4807C131.094 81.4839 130.386 81.7262 129.767 81.9951C129.48 82.1205 129.205 82.2273 128.933 82.3135L128.308 82.2006C126.911 84.262 123.857 83.934 122.583 86.1723C119.652 84.8931 120.06 82.9051 119.088 80.1165C117.157 74.5747 110.915 75.5098 106.636 77.448C105.539 74.943 105.683 73.0444 107.4 70.9107C106.315 70.4328 102.953 71.8259 103.179 73.4854C101.656 71.4802 99.5892 69.8514 99.3535 66.9526C95.9865 66.9592 95.4485 63.8284 92.2268 64.8297C93.0482 62.5078 91.8578 61.5816 92.3608 59.4821C92.3844 59.4673 92.4111 59.4634 92.435 59.4469C92.599 59.3183 92.7501 59.1753 92.8994 59.0319C93.2819 58.6664 93.4075 58.5779 93.6317 58.5975C94.0741 58.641 94.4667 58.3156 94.5085 57.8729C94.552 57.4305 94.2354 57.0274 93.7838 56.9961C92.7945 56.9007 92.2113 57.4628 91.7846 57.8707C91.6919 57.96 91.5979 58.0473 91.4981 58.1284C91.0879 58.2333 90.7567 58.4498 90.0917 58.1853C90.1573 56.5821 91.4211 56.7081 91.8152 55.5763L91.7922 55.5496C92.4808 55.4046 93.2479 55.1139 93.8084 54.3408C94.0165 54.055 93.9534 53.6542 93.6659 53.4458C93.3785 53.2374 92.9794 53.3008 92.7709 53.5882C92.4722 54.0001 92.048 54.1825 91.6019 54.2843L90.8376 54.1462C91.3124 53.3089 91.7067 52.3875 91.6674 51.3547L91.7378 51.3883C91.8116 50.9897 91.8847 50.5856 91.9577 50.1816L91.956 50.1813ZM89.0889 47.5768C88.8628 48.2696 88.2271 48.372 87.3266 48.0927C87.1389 46.8036 88.3566 47.5401 89.0889 47.5768ZM86.1487 45.3764C85.5914 46.1414 84.1605 46.1608 84.6055 44.6802C85.3389 44.7589 85.3679 45.3291 86.1487 45.3764ZM82.6926 41.4138L82.9117 40.2017C84.1976 39.8205 83.7636 42.2211 82.6926 41.4138ZM84.2123 33.0172C84.0467 34.6735 82.8481 34.0431 83.7599 32.9424C83.9129 32.9613 84.0632 32.9763 84.2123 33.0172ZM65.4397 49.1425C65.5397 47.589 64.0674 47.1264 65.216 45.7642C67.3027 46.4249 70.9104 46.6164 74.105 47.3713C74.1922 48.1867 73.1422 49.7927 74.2231 49.9203C74.309 50.32 74.3362 50.7752 74.2675 51.213C73.6319 51.3537 72.9047 51.6638 72.475 52.2137C72.2691 52.4772 72.3148 52.8592 72.5784 53.0651C72.6591 53.1283 72.7494 53.1672 72.8437 53.1843C73.0575 53.2229 73.2872 53.1445 73.4298 52.9617C73.6425 52.689 74.1523 52.4561 74.6775 52.3685C74.9516 52.4684 75.23 52.5535 75.5102 52.6285C75.6957 52.6795 75.8762 52.7486 76.0602 52.8079C76.1753 56.1909 77.8395 52.0344 79.0295 52.4338C78.8034 50.9344 77.8515 51.0544 76.6783 51.5915L76.686 51.6833C76.4073 51.5808 76.1265 51.4796 75.8429 51.404C75.7168 51.3707 75.5931 51.324 75.4659 51.2871C75.5571 50.5613 75.4568 49.8374 75.2788 49.2541L75.4253 49.2806C75.7415 47.3299 78.1689 49.222 77.5186 49.2418C78.7421 49.2057 79.4185 47.301 80.897 49.0182C81.9891 47.4302 83.9944 48.8202 85.8186 49.4907C85.2786 50.5735 86.1984 50.6407 85.8575 51.5839C87.6028 51.8924 87.7097 49.8395 89.455 50.1481C89.2256 51.0037 89.5491 51.4742 90.4147 51.5716C90.3917 52.3045 90.077 53.016 89.6718 53.7094L89.6825 53.5253L89.2835 53.4532C89.286 53.3719 89.2767 53.2885 89.286 53.2085C89.323 52.8884 89.0797 52.5993 88.7784 52.5639C88.4599 52.5272 88.1705 52.753 88.1338 53.0715C88.1087 53.2773 88.1193 53.4878 88.1232 53.6971L87.9952 53.6358C87.4581 56.9529 89.4277 58.5311 88.5546 62.0814C85.6827 62.1863 86.7152 67.9186 83.7495 67.8883C81.9027 67.7561 82.2032 66.1328 80.8093 65.6878C81.5487 60.9347 75.4199 60.9463 74.3742 57.4316C72.9464 56.7319 72.9157 58.0458 72.1348 58.2784C72.2869 59.3507 72.9556 60.0661 72.8356 61.3257C71.2738 60.9442 71.1012 62.5628 70.3772 63.3846C67.0972 62.2457 68.2111 58.0558 66.2932 55.9706C64.4102 55.9814 64.4474 54.6599 63.28 54.1742C64.7801 52.733 63.2976 48.7204 65.4397 49.1425ZM59.9088 63.5799C60.8762 60.8446 62.716 58.6113 63.9789 57.2229C64.4604 57.2421 64.6816 57.442 64.7139 57.773C66.7228 59.1531 65.4154 62.2494 66.0425 64.2716C66.6597 66.2624 68.0522 67.0322 69.0216 68.5651C68.2033 74.4374 64.543 81.1918 65.2576 87.077C63.5182 87.2545 63.3076 88.0057 61.8791 87.3007C61.0683 86.9003 57.8996 81.9344 57.6491 80.6948C56.9089 77.0476 58.466 67.6564 59.9088 63.5799ZM56.9159 45.5153C59.5724 46.458 59.9559 44.1248 62.4607 44.8489C62.8018 48.4239 61.1824 50.525 60.4497 53.6642C56.9251 53.2826 57.7679 49.8712 55.0464 48.9324C56.0185 48.2963 56.1482 46.4439 56.9159 45.5153ZM54.5351 51.7605C57.5145 53.5804 57.4304 57.5271 59.281 60.1286C58.1578 62.2446 57.8056 65.4718 55.026 65.2004C55.2711 65.8549 55.3988 66.5908 56.4231 66.7047C54.6284 70.5351 56.5877 76.3532 54.8208 80.1834L51.9925 79.6721C52.4248 78.6655 52.0938 78.1884 50.9995 78.2409C50.9843 74.9108 50.7028 71.7655 50.3779 68.6488C50.3786 68.6351 50.3861 68.6225 50.3852 68.6084L50.3778 68.322C50.3715 68.107 50.3598 67.8928 50.3498 67.6789L50.4026 67.7041C50.3086 65.5315 52.4907 61.7798 50.8363 60.6897C49.3247 61.117 48.9821 65.3873 49.0731 67.3264C49.071 67.3573 49.0591 67.3847 49.0623 67.4149C49.0841 67.7178 49.0923 68.0183 49.1006 68.3188L49.0447 68.2913C46.7973 71.3271 49.786 75.1826 48.1728 77.7299C46.5283 76.6329 47.9987 73.3749 46.221 72.3703C46.7277 66.7598 46.1709 61.8194 48.1879 56.8748L48.1902 56.8718C50.627 55.6347 51.9432 52.7783 54.5351 51.7605ZM50.9283 44.0156C49.5105 45.7898 51.8101 46.129 50.748 47.3208C47.8707 46.6668 47.5145 42.7517 44.1713 44.4629C43.8687 42.6559 49.6885 42.1991 50.9283 44.0156ZM37.7639 63.7485C36.4457 57.1058 40.7113 50.6868 44.2102 46.5561C45.4988 46.4865 45.2728 47.4679 46.5614 47.3984C47.0488 49.8281 46.1679 51.8732 47.8901 53.8969C47.9596 55.1855 46.9782 54.9594 47.0478 56.248C43.415 59.0612 46.3646 67.9893 42.802 70.5005C40.8085 68.5547 40.5064 65.4369 40.2678 62.275C40.2697 62.2649 40.2746 62.2571 40.2747 62.2467C40.3639 60.7052 40.6774 59.1347 40.9794 57.6178C41.1803 56.6127 41.3794 55.6074 41.5235 54.5991C41.5741 54.2519 41.3222 53.9334 40.9853 53.8829C40.6394 53.8343 40.3177 54.0752 40.2691 54.421C40.129 55.4074 39.9325 56.3889 39.7376 57.3706C39.4425 58.8489 39.1521 60.3783 39.0398 61.9226L38.9372 61.8745C39.0495 63.2247 38.3081 63.3445 37.7639 63.7485ZM29.364 110.211C28.2767 109.301 29.1805 108.658 29.4713 107.31C30.344 107.646 29.2746 109.331 29.364 110.211ZM31.7495 108.556C33.2532 101.392 30.9886 95.7434 33.6393 88.8708C34.9389 89.1162 34.0195 90.4033 34.0822 91.037C34.3568 93.8264 35.627 96.7245 36.3308 99.3708C37.6 99.8419 38.2612 99.4347 39.2322 99.4781C39.118 100.504 38.149 100.296 37.7279 100.875L37.7462 100.937C37.5408 100.977 37.3109 101.047 37.0761 101.124L36.8583 101.194C36.6481 101.26 36.5314 101.483 36.598 101.691C36.6447 101.837 36.7654 101.939 36.9068 101.964C36.9691 101.976 37.0341 101.972 37.0968 101.952L37.3257 101.878C37.5348 101.808 37.7439 101.738 37.9249 101.709C37.9426 101.707 37.9497 101.687 37.966 101.683L37.9875 101.756C37.7997 103.026 40.6032 103.867 39.6613 104.807C39.5456 104.774 39.4305 104.738 39.3235 104.705C39.1549 104.646 38.9956 104.595 38.8483 104.563L38.721 104.537L38.6043 104.596C38.4969 104.651 38.3882 104.704 38.2642 104.765L38.2826 104.73C36.345 105.216 36.2789 105.851 35.6781 107.597C33.9096 107.253 33.2714 108.542 31.7495 108.556ZM39.4541 137.486L39.5999 136.679C39.9299 136.815 40.0106 136.59 40.077 136.348C40.8907 136.329 40.3355 138.293 39.4541 137.486ZM64.6788 168.748C63.424 168.438 63.3375 169.58 62.4394 169.595C58.192 169.664 56.9501 162.416 58.3897 159.684C59.4832 159.732 60.0179 158.977 60.0398 157.481C57.7416 156.711 57.5732 159.989 55.3762 157.889C54.0008 157.881 55.4119 160.596 54.5339 160.24C52.6228 160.858 53.8245 158.76 53.6139 158.405C53.1844 157.684 51.521 157.577 51.5548 155.947C49.2707 156.118 49.6106 154.469 48.1376 154.077C47.0528 148.586 42.3494 143.723 44.5215 137.152C44.2337 136.291 42.2108 136.633 42.3163 135.502C42.0716 133.451 44.7055 135.548 44.7018 133.847L44.796 133.864C44.8281 133.889 44.8538 133.919 44.8959 133.927L45.704 134.073C45.8403 134.098 45.9712 134.008 45.9959 133.872C46.0205 133.736 45.9292 133.606 45.7928 133.581L44.9847 133.435C44.9157 133.423 44.8499 133.441 44.7966 133.476L44.7751 133.441C45.0484 129.669 41.5178 131.985 38.9336 131.133C39.5495 126.582 34.6345 125.871 35.7653 120.962C35.7993 120.351 34.8558 120.416 34.2218 120.268C34.2594 118.964 35.0238 118.708 35.7992 118.467C35.4035 116.386 33.7399 115.183 34.3975 112.372L36.0137 112.665C35.1282 114.332 35.4451 115.136 36.1644 116.447C37.6691 116.375 36.2554 115.001 37.7418 114.646C41.0321 115.698 40.1729 120.066 41.7526 122.464C42.4919 123.587 43.4484 124.133 44.6198 125.068C45.5045 124.983 46.0796 124.456 46.8591 124.222C48.0608 124.566 48.0761 125.731 49.9457 125.612C49.1312 133.166 47.9332 140.84 53.6003 144.633C56.2617 144.394 57.9191 142.708 60.3184 142.092C62.4423 144.067 60.561 146.809 60.6929 149.253C60.836 151.923 62.4809 154.287 61.8754 156.559C64.1819 157.832 65.3773 157.942 67.9361 157.655C66.9277 159.771 68.2694 161.476 66.1057 163.164C66.447 163.921 68.1688 163.724 67.488 165.192C67.3516 165.254 67.2139 165.323 67.0821 165.379C66.8716 165.466 66.6641 165.585 66.4547 165.695L66.5483 165.331C64.9932 164.643 64.4853 167.453 66.1831 167.351L66.2087 167.142C66.384 167.384 66.5465 167.64 66.7067 167.917C66.8509 168.168 67.0267 168.417 67.1974 168.665L66.957 169.995C65.7543 169.887 65.8812 168.858 64.6788 168.748ZM69.9702 171.791C68.5384 171.96 69.5679 170.42 69.5273 169.625L69.5233 169.609C69.6814 169.609 69.8402 169.596 69.9983 169.578L69.9314 169.698L70.7395 169.844C70.4127 170.392 70.8335 172.017 69.9702 171.791ZM82.4023 190.728C82.3423 188.944 83.6819 189.179 85.1187 189.55C84.5234 190.381 83.6283 190.793 82.4023 190.728ZM107.418 187.653C107.557 187.593 107.67 187.546 107.824 187.529C108.287 187.795 108.581 188.41 108.689 188.961C108.645 189.04 108.596 189.125 108.551 189.204L108.55 189.2C107.233 189.953 106.748 188.683 107.417 187.657L107.418 187.653ZM143.904 215.198C142.407 216.37 141.967 213.836 143.057 212.96C143.731 212.964 143.683 213.468 144.196 213.582C144.445 214.409 142.742 214.71 143.904 215.198ZM158.26 211.952C158.165 210.796 159.21 211.284 159.361 210.482C160.298 210.912 159.206 212.558 158.26 211.952ZM161.23 207.065C163.033 207.669 160.464 209.447 161.23 207.065ZM168.03 213.301C168.824 212.854 171.002 213.06 171.336 213.482C170.282 214.039 169.041 213.953 168.03 213.301ZM204.002 194.354C202.503 195.625 202.86 192.88 204.002 194.354ZM227.258 167.266C225.711 169.448 225.273 173.234 222.38 173.477C220.335 180.208 213.791 180.452 210.603 185.532L208.987 185.24C208.277 185.917 207.624 186.673 207.262 187.85C203.263 189.215 200.195 191.924 197.243 194.801C193.157 193.833 192.4 197.663 190.16 199.36C188.29 197.883 186.109 201.551 184.211 199.953C180.724 203.076 174.731 202.587 168.789 202.172C168.973 200.741 170.395 201.09 170.843 200.041C168.784 200.231 168.206 196.328 165.737 198.284C165.852 199.735 167.876 199.865 167.173 201.881C166.614 201.799 166.319 201.532 166.033 201.26C163.336 203.314 159.383 203.56 156.195 204.905C154.228 204.183 153.47 204.52 150.942 203.955C150.856 202.149 150.471 201.096 151.342 199.436C151.643 198.809 149.259 198.378 149.323 199.071C148.084 197.742 151.545 198.92 151.305 197.343C149.577 195.136 145.015 196.905 143.924 198.931C144.352 200.047 146.559 199.929 147.341 200.801C147.139 202.035 146.601 202.791 145.689 203.006C144.406 202.836 145.2 201.224 144.438 200.693C142.865 202.146 141.862 201.902 140.107 201.579C138.854 201.349 137.288 202.229 136.252 202.134C133.2 201.852 130.662 199.847 127.582 199.315C126.235 199.082 124.567 199.82 123.322 199.796C119.469 199.722 116.44 199.091 113.771 197.237C112.197 196.664 111.395 197.205 110.062 196.982C109.409 196.257 110.491 194.33 109.838 193.604C108.409 192.902 108.925 195.003 107.599 194.452C106.605 192.484 110.884 192.099 109.691 189.829C109.774 189.677 109.864 189.526 109.941 189.379L110.034 189.202L110.011 189.002C109.9 188.04 109.36 186.746 108.201 186.263L108.07 186.208L107.928 186.214C107.507 186.228 107.223 186.326 106.96 186.437L106.966 186.4C105.84 186.137 105.622 187.179 105.389 188.201L102.561 187.69C102.669 187.205 103.113 187.202 103.167 186.636C103.979 186.343 104.681 185.954 105.39 185.522L106.035 185.135C106.312 184.973 106.403 184.619 106.243 184.343C106.082 184.067 105.73 183.977 105.453 184.136C105.225 184.27 105.006 184.405 104.789 184.536C104.054 184.985 103.402 185.363 102.628 185.616L101.313 185.378C101.143 187.847 99.454 188.131 99.4823 190.888C101.145 191.587 101.248 190.036 102.53 190.186C102.106 191.423 102.82 191.869 102.9 192.756C103.891 192.996 104.848 193.186 105.066 192.315C104.528 194.964 100.201 192.124 97.2433 191.733C97.1409 191.098 96.8295 190.608 96.7274 189.971C91.7012 188.981 88.4178 186.784 86.1445 183.886C84.7747 183.779 84.5331 185.298 83.024 184.99C82.956 183.405 84.7085 183.337 83.9394 182.235C82.165 181.885 81.9892 183.838 80.3418 183.671C78.9818 183.788 79.1897 182.821 78.9447 182.167C73.0429 182.019 73.7604 177.281 70.1241 175.565C70.8809 173.938 72.0962 172.975 72.9481 171.485C72.6401 169.698 71.8775 168.223 70.3731 167.264C69.786 167.233 69.8184 168.092 69.6905 168.723C69.6465 168.725 69.5947 168.733 69.5531 168.733C69.1311 168.489 68.9278 168.095 68.1318 168.112L68.0954 168.179C67.9171 167.934 67.751 167.68 67.588 167.399C67.3814 167.041 67.1506 166.683 66.8782 166.344C66.8898 166.337 66.9011 166.332 66.9127 166.326L67.2101 166.277L67.0427 166.26C67.1585 166.207 67.2587 166.143 67.3829 166.091C67.4824 166.05 67.5881 165.994 67.6903 165.948C67.8755 166.308 69.1322 167.358 69.5452 166.843C69.9108 166.908 70.2374 166.948 70.6033 166.972L70.7098 166.979L70.8014 166.924C71.0042 166.803 71.1636 166.604 71.3322 166.393L71.5001 166.185C71.6242 166.037 71.6064 165.818 71.4585 165.694C71.3105 165.57 71.0914 165.589 70.9659 165.735C70.9019 165.811 70.8429 165.887 70.7848 165.958C70.6927 166.074 70.5999 166.193 70.5187 166.267C70.2563 166.247 70.0056 166.21 69.739 166.166C70.0191 164.587 70.8356 164.139 70.3668 162.674C70.422 160.763 71.4691 163.299 71.5059 163.297C72.8273 163.238 72.5106 162.461 73.5604 161.165C73.73 161.14 73.9017 161.094 74.0781 161.032L73.9624 161.239C75.0477 165.853 77.935 175.077 84.5838 169.42C85.946 169.299 85.2329 170.618 85.9809 170.924C87.6808 170.791 86.224 169.271 86.9693 167.765C88.1606 167.676 89.085 167.198 89.9974 166.709C90.0055 166.712 90.015 166.718 90.0231 166.721C87.8668 168.407 92.5029 170.333 92.1129 167.057C92.2196 167.054 92.3232 167.048 92.4315 167.045L92.5418 167.041L92.514 167.098C94.5313 167.23 93.02 169.81 92.996 171.356C94.7297 174.364 93.9036 179.357 97.1915 180.461C101.043 181.753 103.751 177.201 106.587 174.649L106.708 174.671C106.736 174.68 106.758 174.697 106.786 174.703L107.998 174.922C108.342 174.984 108.672 174.755 108.734 174.411C108.796 174.068 108.567 173.738 108.224 173.676L107.218 173.494C107.899 172.277 108.41 170.817 109.153 169.689C110.338 171.798 110.424 174.67 110.192 177.762C110.046 177.768 109.904 177.775 109.76 177.782L109.785 177.731C108.983 177.581 109.471 176.537 108.315 176.632C107.91 176.557 107.774 176.872 107.434 176.89C106.57 178.535 109.495 181.579 109.962 179.051C110.108 179.044 110.255 179.036 110.402 179.031L110.374 179.089C112.723 180.638 114.467 182.61 115.559 185.033C119.8 186.332 122.345 184.92 124.297 182.858C125.251 181.85 125.59 179.722 126.79 178.302C127.148 177.878 128.299 177.811 128.625 177.382C129.269 176.532 129.142 175.194 129.943 174.698C130.782 176.826 130.799 179.522 131.125 182.004L131.325 181.976C131.01 182.249 130.689 182.534 130.521 182.868C130.459 182.989 130.508 183.137 130.629 183.199C130.652 183.21 130.673 183.218 130.697 183.222C130.801 183.241 130.909 183.191 130.96 183.091C131.059 182.898 131.258 182.703 131.47 182.51C133.124 185.825 134.1 189.611 138.222 191.216C141.778 190.338 144.754 187.526 146.552 184.376C147.318 183.033 147.078 179.459 149.851 179.966C149.11 185.663 152.831 188.265 154.748 192.116L158.788 192.847C162.371 191.135 164.305 184.616 168.807 185.896C168.885 185.253 167.834 185.393 168.218 184.538C168.935 184.72 169.237 184.308 169.246 183.47C171.928 185.732 172.535 189.435 176.231 190.993C179.545 190.845 180.24 186.924 182.983 185.954C183.242 184.121 183.455 182.22 185.257 182.61C185.119 181.603 184.964 179.675 185.914 178.976C187.162 180.124 187.56 183.153 190.066 181.395L189.701 183.414C192.287 183.102 193.612 185.508 195.543 185.723C199.725 186.185 202.442 182.805 203.285 177.525L203.201 177.532C203.244 177.41 203.289 177.286 203.33 177.161C203.377 177.018 203.436 176.876 203.486 176.734C204.44 176.877 204.584 177.584 205.306 177.89C205.464 179.476 204.092 178.862 204.059 180.168C204.813 182.441 207.626 180.693 207.326 178.255C208.281 179.327 209.057 178.327 210.083 179.171C211.614 179.173 211.528 176.842 212.686 176.304C213.673 176.536 214.623 176.717 215.183 176.338C217.782 172.952 221.191 170.736 221.892 164.619C223.144 165.017 222.764 166.544 224.327 166.726C224.329 166.772 224.333 166.819 224.335 166.865C224.34 167.104 224.367 167.359 224.392 167.614L224.265 167.551C222.989 167.903 224.017 169.566 224.229 170.048C224.983 169.677 226.614 168.143 225.235 167.358C225.225 167.184 225.201 167.009 225.197 166.836C225.193 166.688 225.183 166.538 225.174 166.389C225.982 166.123 226.898 166.537 227.471 167.22L227.239 167.254L227.258 167.266ZM238.299 154.66C237.176 156.977 236.032 159.265 234.706 160.686C232.955 162.563 231.476 165.357 230.305 166.566C229.929 166.955 229.65 167.257 229.279 167.634C228.477 167.483 228.964 166.438 227.809 166.533L227.813 166.562C227.072 165.83 225.979 165.406 225 165.716L225.07 165.619C225.623 164.299 223.53 164.805 224.219 163.388C224.5 163.43 224.784 163.447 225.067 163.451L225.036 163.527C225.726 163.987 226.574 164.344 226.837 165.104C228.266 165.806 227.75 163.705 229.074 164.257C229.78 162.825 228.28 162.923 228.706 161.687C233.565 161.39 234.233 155.053 238.136 153.379C237.479 151.092 239.058 146.346 240.147 144.563C240.706 144.645 241 144.914 241.286 145.186C239.675 147.75 239.822 151.555 238.321 154.664L238.299 154.66ZM240.013 142.87L240.159 142.064L240.967 142.21L240.822 143.016L240.013 142.87ZM242.579 137.91C237.693 137.061 240.488 130.881 233.759 131.309C234.449 129.77 232.772 129.873 233.464 128.335C235.755 129.432 236.034 127.628 236.73 126.422C237.186 129.324 241.022 128.097 243.307 129.28C244.377 127.304 242.398 125.169 242.859 122.523C240.845 121.827 240.48 123.508 238.931 123.482C239.277 121.605 241.135 121.906 241.938 120.688C243.25 120.72 243.233 121.675 244.694 121.603C246.273 120.392 246.874 116.742 244.909 115.801C246.028 114.354 247.535 117.708 249.063 118.221C249.253 125.825 245.435 131.846 242.583 137.911L242.579 137.91ZM254.157 110.797C252.883 108.766 258.02 103.708 255.508 101.028C253.359 101.076 254.034 103.783 253.49 105.253C252.096 109.022 250.263 113.941 247.108 112.861C246.557 110.686 248.771 108.828 249.49 106.616C250.144 104.599 249.812 102.224 250.586 100.556C251.839 97.8564 254.884 97.6873 255.72 95.2256L258.145 95.6639C258.627 101.17 256.52 106.668 254.157 110.797Z" fill="#0E6F3B"/>
<path d="M150.672 189.302L150.38 190.918C151.478 190.574 151.843 192.406 152.4 191.283C151.061 191.151 151.829 189.56 150.672 189.302Z" fill="#0E6F3B"/>
<path d="M138.773 42.7907C139.548 41.8703 141.085 42.0492 142.297 41.759C142.28 39.6785 144.107 36.8169 145.559 35.2559C150.501 36.2971 153.966 35.99 157.827 36.6392C158.358 37.4481 158.829 38.2981 159.48 39.0243C161.169 39.453 164.274 38.1248 164.402 39.4968C163.61 41.5789 158.576 37.5518 158.712 40.9716C158.717 41.8782 160.694 41.4185 160.951 42.1465C160.957 42.3145 160.969 42.4818 160.973 42.6495L160.916 42.6217L160.624 44.2377C161.322 44.3953 161.896 44.3739 162.313 44.1259L162.299 43.9601C162.341 43.9694 162.387 43.9863 162.429 43.9939C162.82 44.0645 163.201 44.043 163.547 44.0239C163.864 44.0066 164.162 44.0047 164.422 44.0553L164.408 44.0874C165.202 44.8324 166.172 45.4547 167.898 45.5529C168.9 44.6179 169.523 43.1417 171.9 44.1902C172.49 42.9565 170.668 43.3956 170.978 42.3547C173.253 43.4266 173.319 41.3141 175.238 41.8731L175.229 41.7777C175.468 41.8591 175.703 41.9417 175.947 42.0013L176.194 42.0651C176.211 42.0699 176.227 42.0729 176.243 42.0756C176.566 42.1341 176.885 41.9362 176.971 41.6128C177.061 41.2726 176.857 40.9247 176.517 40.8354L176.255 40.7688C176.1 40.7304 175.948 40.6751 175.797 40.6286C174.529 38.0629 171.779 37.9552 168.218 36.8507C166.957 36.4593 165.646 35.2958 164.397 34.9082C159.503 33.3959 151.486 32.9549 145.518 33.1641C141.219 33.3152 138.624 32.912 137.184 35.4124C136.023 37.4294 135.801 40.6193 138.773 42.7907ZM167.894 40.9626C167.019 40.9818 166.875 40.4916 166.35 40.2664C166.352 39.5295 168.743 39.955 167.894 40.9626ZM164.627 42.8754L164.634 42.9236C164.234 42.8494 163.838 42.8474 163.486 42.8673C163.274 42.8793 163.073 42.8847 162.88 42.8742C162.808 42.6369 162.621 42.478 162.244 42.4498C162.239 42.3029 162.231 42.1571 162.224 42.0099L162.274 42.0345C162.561 42.0707 164.731 41.7155 164.627 42.8754ZM139.683 35.4453C140.105 35.624 139.813 36.2979 140.345 36.3994C140.357 36.7562 140.12 36.7532 139.868 36.7304L139.06 36.5843C139.333 36.298 139.601 36.0041 139.683 35.4453Z" fill="#0E6F3B"/>
<path d="M166.633 46.821C166.107 46.719 165.595 46.5708 165.081 46.4239C164.281 46.1958 163.453 45.9575 162.57 45.8796C162.25 45.8513 161.969 46.0856 161.939 46.4053C161.911 46.7236 162.112 46.9947 162.465 47.0358C163.246 47.1109 163.979 47.3181 164.761 47.5412C165.304 47.6969 165.85 47.8512 166.408 47.9607L166.416 47.9622C166.729 48.0188 167.029 47.814 167.09 47.5034C167.152 47.1879 166.949 46.8816 166.633 46.821Z" fill="#0E6F3B"/>
<path d="M165.678 49.4473C165.458 49.4319 165.235 49.4263 165.014 49.421C164.548 49.4098 164.112 49.3954 163.71 49.2965C163.447 49.2403 163.171 49.3887 163.102 49.6561C163.035 49.9237 163.194 50.1943 163.464 50.2621C163.553 50.2853 163.644 50.3051 163.733 50.3212C164.157 50.3979 164.578 50.4079 164.988 50.4177C165.196 50.4223 165.402 50.4265 165.608 50.4411C165.883 50.4595 166.12 50.2521 166.14 49.9776C166.16 49.7031 165.948 49.456 165.678 49.4473Z" fill="#0E6F3B"/>
<path d="M194.698 79.6021C193.623 79.0704 193.553 79.9844 192.612 79.6438C192.083 78.9503 192.676 77.4806 191.361 77.3315C189.366 78.2939 191.995 80.3807 190.484 82.1798C191.848 83.4903 193.066 82.7248 194.305 84.1223C194.515 82.3886 195.754 82.1382 195.842 80.2279L195.694 80.241C195.841 79.8487 195.961 79.4532 196.054 79.1223C196.099 78.9618 196.142 78.813 196.18 78.6844L196.254 78.4492L196.135 78.2346C195.903 77.8225 195.353 77.0955 194.775 76.7737C194.509 76.6229 194.154 76.7187 194 76.9951C193.846 77.2697 193.944 77.6179 194.221 77.7705C194.464 77.9065 194.798 78.2745 195.016 78.5956C194.995 78.6648 194.974 78.7393 194.954 78.8156C194.871 79.0631 194.772 79.332 194.682 79.5991L194.698 79.6021Z" fill="#0E6F3B"/>
<path d="M121.029 79.7929C120.92 80.2322 121.189 80.6771 121.629 80.7844C121.646 80.7875 121.664 80.7925 121.681 80.7956C122.102 80.8716 122.516 80.6076 122.622 80.1852C122.682 79.9388 122.735 79.6771 122.788 79.412C122.919 78.7576 123.052 78.0847 123.348 77.6306C125.451 77.6926 127.023 76.7686 127.658 75.1136C128.603 74.8065 129.681 74.3755 130.307 73.3569L130.32 73.3888C132.844 71.9589 129.931 69.8469 129.103 68.5794C127.401 68.5029 126.565 69.6764 126.426 71.8503C127.856 72.5557 127.759 71.0552 128.996 71.4806C128.923 71.8863 129.236 72.0211 129.254 72.3617L129.193 72.7017C128.802 73.323 128.056 73.614 127.238 73.8798C127.014 73.5977 126.792 73.3542 126.572 73.1563L126.611 73.1354C126.248 72.6804 126.754 71.6228 125.618 71.7042C124.286 71.6531 123.943 73.0251 123.159 73.7631C124.232 74.4647 124.34 73.9627 125.66 74.21C125.814 74.3508 125.954 74.4962 126.075 74.6379C125.482 75.9649 123.954 76.0573 123.058 75.9753L122.687 75.9412L122.418 76.1985C121.599 76.9805 121.377 78.1033 121.178 79.0932C121.132 79.3316 121.084 79.5698 121.029 79.7929Z" fill="#0E6F3B"/>
<path d="M147.385 78.7983C147.394 79.1025 147.616 79.3494 147.905 79.4017C147.947 79.4093 147.992 79.4122 148.035 79.4114C148.385 79.4016 148.66 79.1089 148.65 78.7611C148.642 78.5163 148.68 78.2414 148.715 77.968L148.745 77.7248C148.787 77.3794 148.598 77.0793 148.191 77.0214C147.844 76.9795 147.53 77.2286 147.488 77.5756L147.458 77.8067C147.417 78.1487 147.376 78.4924 147.385 78.7983Z" fill="#0E6F3B"/>
<path d="M174.26 86.3829C174.26 86.4316 174.26 86.4769 174.261 86.5188C174.094 86.7058 173.731 86.8471 173.349 86.9954L173.132 87.0813C172.949 87.1542 172.861 87.3608 172.935 87.5447C172.982 87.6626 173.084 87.7419 173.202 87.7632C173.266 87.7748 173.333 87.7695 173.397 87.7428L173.608 87.6594C174.154 87.4469 174.671 87.2447 174.927 86.8078L174.981 86.7132L174.973 86.6039C174.97 86.5426 174.969 86.4695 174.97 86.3862C174.972 85.9919 174.973 85.3976 174.666 84.7439C174.583 84.5673 174.369 84.4921 174.194 84.5735C174.016 84.656 173.939 84.8681 174.023 85.0468C174.264 85.5544 174.262 86.0339 174.26 86.3829Z" fill="#0E6F3B"/>
<path d="M127.792 79.2824C127.587 79.466 127.315 79.4499 126.851 79.4042C126.569 79.3775 126.251 79.3462 125.931 79.396C125.646 79.4402 125.452 79.7076 125.496 79.992C125.532 80.2175 125.707 80.3864 125.919 80.4247C125.974 80.4348 126.033 80.435 126.092 80.4266C126.282 80.3965 126.509 80.4185 126.748 80.4426C127.276 80.4946 127.932 80.5592 128.488 80.0584C128.704 79.8661 128.72 79.5353 128.528 79.3214C128.336 79.1059 128.006 79.0898 127.792 79.2824Z" fill="#0E6F3B"/>
<path d="M47.4506 127.249L47.1249 127.079C46.8564 126.949 46.5298 127.053 46.3945 127.321C46.2592 127.588 46.3669 127.915 46.6346 128.051L46.6474 128.057C46.873 128.674 46.6209 129.376 46.3537 130.114L46.2191 130.493C46.1227 130.776 46.2737 131.085 46.5591 131.18C46.5851 131.19 46.6117 131.197 46.6386 131.202C46.8979 131.248 47.161 131.101 47.2481 130.841L47.3759 130.479C47.6964 129.592 48.0946 128.485 47.5523 127.417L47.4506 127.249Z" fill="#0E6F3B"/>
<path d="M43.0284 128.101L42.2203 127.955C41.8768 127.893 41.5469 128.122 41.4848 128.465C41.4227 128.809 41.6516 129.139 41.9951 129.201L42.8032 129.347C43.1466 129.409 43.4766 129.18 43.5387 128.836C43.6008 128.493 43.3718 128.163 43.0284 128.101Z" fill="#0E6F3B"/>
<path d="M57.002 148.445C57.0801 148.513 57.1732 148.556 57.2691 148.573C57.456 148.607 57.6535 148.543 57.7869 148.392C57.9887 148.161 57.9654 147.809 57.7341 147.607C57.3241 147.249 56.9648 146.929 56.7293 146.645C56.5331 146.413 56.1837 146.374 55.9461 146.573C55.7091 146.768 55.677 147.119 55.8727 147.354C56.1627 147.702 56.5561 148.055 57.002 148.445Z" fill="#0E6F3B"/>
<path d="M58.5461 151.799L58.5654 151.789C58.9868 150.554 58.3603 150.048 57.7185 149.549C56.5904 151.096 55.0645 150.728 54.0478 151.389C54.5113 151.537 55.2068 151.527 55.1869 152.012C53.3328 152.277 51.55 155.955 53.9064 156.787C53.7324 155.009 54.848 155.089 56.2188 155.537L56.2166 155.51C56.5109 155.671 56.8065 155.834 57.0967 155.989L57.9698 156.458L58.226 156.378C59.2075 156.065 59.8167 155.186 59.8151 154.089C59.816 153.103 59.312 152.256 58.5461 151.799ZM58.0647 155.078L57.6888 154.878C57.4034 154.725 57.1122 154.566 56.8247 154.407L56.8439 154.396C56.8096 154.067 56.9761 153.598 56.5857 153.517C56.8443 153.039 57.2567 152.786 57.9439 152.928L57.9413 152.894C58.3533 153.164 58.5589 153.661 58.5584 154.087C58.5573 154.266 58.5173 154.805 58.0647 155.078Z" fill="#0E6F3B"/>
<path d="M84.8048 176.285C84.8907 176.3 84.9829 176.299 85.0743 176.285C85.486 176.209 85.7589 175.816 85.6835 175.406C85.6476 175.21 85.6309 175.033 85.6135 174.87C85.5827 174.569 85.5491 174.255 85.4295 173.925L85.2962 173.557L84.9187 173.452C84.5494 173.351 84.1071 173.297 83.5622 173.282C83.1452 173.271 82.7986 173.601 82.7876 174.018C82.7768 174.433 83.1072 174.789 83.5238 174.793C83.7349 174.798 83.9221 174.811 84.0889 174.83C84.0951 174.892 84.1026 174.956 84.1093 175.025C84.1294 175.222 84.1518 175.435 84.1969 175.676C84.2541 175.994 84.5035 176.23 84.8048 176.285Z" fill="#0E6F3B"/>
<path d="M168.788 192.177L168.285 192.277L167.798 192.468C167.867 192.809 167.941 193.187 167.941 193.526C167.428 193.871 167.154 194.34 166.915 194.794C166.783 195.045 166.88 195.354 167.131 195.487C167.178 195.513 167.229 195.529 167.278 195.538C167.493 195.576 167.717 195.474 167.823 195.271C168.086 194.773 168.288 194.482 168.669 194.287L168.907 194.163L168.943 193.898C169.017 193.34 168.9 192.747 168.788 192.177Z" fill="#0E6F3B"/>
<path d="M86.7877 179.722C87.1383 179.696 87.4038 179.392 87.3788 179.039C87.3535 178.689 87.0459 178.428 86.6963 178.448C86.4409 178.467 86.1863 178.471 85.9207 178.478L85.8509 178.48L85.8784 178.424C84.5798 178.5 85.6388 176.941 84.0043 177.251C83.3032 178.369 83.6448 178.604 83.9701 179.748L84.0303 179.741C83.955 179.86 83.885 179.978 83.801 180.096C83.6192 180.352 83.6801 180.707 83.9359 180.889C84.0052 180.938 84.0847 180.97 84.1638 180.984C84.3742 181.022 84.5959 180.941 84.7284 180.756C84.8448 180.593 84.9467 180.423 85.0513 180.258L85.1091 180.371C85.5567 180.367 85.7954 180.066 86.0292 179.753C86.2881 179.744 86.5377 179.739 86.7877 179.722Z" fill="#0E6F3B"/>
<path d="M130.073 196.93C129.862 196.493 129.75 196.228 129.938 195.859C130.008 195.722 129.955 195.554 129.818 195.486C129.684 195.418 129.513 195.469 129.445 195.606C129.124 196.24 129.363 196.735 129.574 197.172C129.635 197.296 129.698 197.422 129.745 197.554C129.78 197.65 129.864 197.714 129.958 197.731C130.005 197.74 130.055 197.736 130.103 197.721C130.246 197.668 130.322 197.508 130.27 197.363C130.215 197.197 130.146 197.045 130.077 196.911L130.073 196.93Z" fill="#0E6F3B"/>
<path d="M208.776 79.0894C208.914 79.1143 209.063 79.077 209.179 78.9762C209.523 78.6698 209.9 78.4112 210.302 78.138C210.852 77.761 211.401 77.3421 211.881 76.8188L211.889 76.8724C212.557 75.9674 214.209 76.4818 214.678 75.2906C214.045 74.0235 212.569 74.1183 211.446 74.7062L211.227 75.9182L211.363 75.9932C210.932 76.5395 210.365 76.9358 209.761 77.3517C209.355 77.6294 208.934 77.9184 208.545 78.2635C208.348 78.4383 208.33 78.7392 208.504 78.9377C208.577 79.0186 208.672 79.0705 208.773 79.0887L208.776 79.0894Z" fill="#0E6F3B"/>
<path d="M126.681 196.508C126.414 196.706 126.219 196.834 126.058 196.929C126.012 196.842 125.971 196.753 125.926 196.656C125.883 196.565 125.842 196.474 125.796 196.384C125.671 196.141 125.375 196.047 125.134 196.171C124.893 196.294 124.797 196.591 124.921 196.833L125.033 197.067C125.147 197.312 125.274 197.59 125.514 197.87L125.74 198.135L126.066 198.01C126.43 197.869 126.781 197.661 127.269 197.295C127.486 197.133 127.533 196.825 127.369 196.608C127.205 196.39 126.896 196.366 126.679 196.518L126.681 196.508Z" fill="#0E6F3B"/>
</g>
<defs>
<clipPath id="clip0_230_566">
<rect width="248" height="202" fill="white" transform="translate(35.937) rotate(10.2478)"/>
</clipPath>
</defs>
</svg>
