<svg width="238" height="168" viewBox="0 0 238 168" fill="none" xmlns="http://www.w3.org/2000/svg">
<g clip-path="url(#clip0_220_558)">
<path d="M7.95322 54.592L11.9298 43.0361L17.4971 35.4649L72.7719 33.871H195.649L229.45 43.0361L232.234 51.0057L227.462 60.9677L225.871 77.704L232.234 100.019L187.696 136.679H58.0585L52.0936 121.139L19.4854 113.567L9.94152 100.019L11.9298 84.0797L9.94152 68.1404L7.95322 54.592Z" fill="#D9D9D9" stroke="black"/>
<path d="M41.3567 16.3377C29.8245 16.7362 5.56724 3.98473 5.56724 3.98473C5.56724 3.98473 -0.397671 9.56348 1.19297 21.5179C2.78362 33.4724 11.5321 50.2086 15.9064 50.2086C20.2807 50.2086 24.655 54.1935 38.1754 47.4193C38.1754 35.4648 55.2748 43.036 55.2748 43.036L75.5555 39.8481L105.38 43.036L116.912 44.6299L137.591 43.036L174.175 41.8405C174.175 41.8405 189.684 40.6451 195.251 43.036C200.819 45.4269 217.918 50.2086 217.918 50.2086C217.918 50.2086 226.758 44.827 230.643 40.6451C235.797 35.0977 233.825 36.6603 237.006 24.7058C240.187 12.7513 233.825 0.796875 233.825 0.796875C224.281 11.1574 204.795 16.3377 197.637 15.9392C190.48 15.5407 180.14 13.5483 180.14 13.5483C180.14 13.5483 172.315 11.9424 167.018 11.1574C158.533 9.90015 155.485 9.56348 145.146 11.5559C134.807 13.5483 120.491 19.5255 120.491 19.5255C114.526 14.7437 97.0292 12.3529 97.0292 12.3529L79.5322 13.1498C79.5322 13.1498 52.8889 15.9392 41.3567 16.3377Z" fill="#EA5050"/>
<path d="M230.643 98.425C225.553 102.25 200.421 114.364 188.491 119.943C187.033 119.81 183.878 120.581 182.924 124.725C181.97 128.869 176.694 130.968 174.175 130.304L167.018 127.116L156.281 133.491L149.918 130.304L141.567 127.116L130.433 135.484L120.491 130.304L116.912 133.491L108.164 135.484L95.0409 127.116C97.0292 130.304 85.8947 133.491 85.8947 133.491L79.5322 130.304L75.5555 121.935H69.9883L67.6023 130.304L58.8538 133.491L52.8889 121.935L43.7427 117.552H34.9942C33.1384 114.231 29.0292 108.068 27.4386 109.981C25.848 111.894 22.7992 110.778 21.4737 109.981L18.2924 103.605L9.54386 105.598C8.21832 105.199 5.9649 107.51 7.55555 119.943C9.54387 135.484 38.1754 166.964 55.2748 166.964C72.3743 166.964 73.1696 162.182 83.5088 162.182C93.848 162.182 110.152 166.964 122.48 166.964C132.342 166.964 154.955 164.307 165.029 162.182C168.078 163.643 177.039 166.167 188.491 164.573C202.807 162.581 224.281 149.829 230.643 133.491C237.006 117.154 233.825 102.808 230.643 98.425Z" fill="#EA5050"/>
<path d="M41.3567 16.3377C29.8245 16.7362 5.56724 3.98473 5.56724 3.98473C5.56724 3.98473 -0.397671 9.56348 1.19297 21.5179C2.78362 33.4724 11.5321 50.2086 15.9064 50.2086C20.2807 50.2086 24.655 54.1935 38.1754 47.4193C38.1754 35.4648 55.2748 43.036 55.2748 43.036L75.5555 39.8481L105.38 43.036L116.912 44.6299L137.591 43.036L174.175 41.8405C174.175 41.8405 189.684 40.6451 195.251 43.036C200.819 45.4269 217.918 50.2086 217.918 50.2086C217.918 50.2086 226.758 44.827 230.643 40.6451C235.797 35.0977 233.825 36.6603 237.006 24.7058C240.187 12.7513 233.825 0.796875 233.825 0.796875C224.281 11.1574 204.795 16.3377 197.637 15.9392C190.48 15.5407 180.14 13.5483 180.14 13.5483C180.14 13.5483 172.315 11.9424 167.018 11.1574C158.533 9.90015 155.485 9.56348 145.146 11.5559C134.807 13.5483 120.491 19.5255 120.491 19.5255C114.526 14.7437 97.0292 12.3529 97.0292 12.3529L79.5322 13.1498C79.5322 13.1498 52.8889 15.9392 41.3567 16.3377Z" stroke="black"/>
<path d="M230.643 98.425C225.553 102.25 200.421 114.364 188.491 119.943C187.033 119.81 183.878 120.581 182.924 124.725C181.97 128.869 176.694 130.968 174.175 130.304L167.018 127.116L156.281 133.491L149.918 130.304L141.567 127.116L130.433 135.484L120.491 130.304L116.912 133.491L108.164 135.484L95.0409 127.116C97.0292 130.304 85.8947 133.491 85.8947 133.491L79.5322 130.304L75.5555 121.935H69.9883L67.6023 130.304L58.8538 133.491L52.8889 121.935L43.7427 117.552H34.9942C33.1384 114.231 29.0292 108.068 27.4386 109.981C25.848 111.894 22.7992 110.778 21.4737 109.981L18.2924 103.605L9.54386 105.598C8.21832 105.199 5.9649 107.51 7.55555 119.943C9.54387 135.484 38.1754 166.964 55.2748 166.964C72.3743 166.964 73.1696 162.182 83.5088 162.182C93.848 162.182 110.152 166.964 122.48 166.964C132.342 166.964 154.955 164.307 165.029 162.182C168.078 163.643 177.039 166.167 188.491 164.573C202.807 162.581 224.281 149.829 230.643 133.491C237.006 117.154 233.825 102.808 230.643 98.425Z" stroke="black"/>
<path d="M98.7021 165.564C86.4319 161.917 81.9033 161.663 73.7354 164.165C69.4215 165.486 66.1041 165.888 59.7313 165.865C49.0462 165.826 46.1083 164.728 32.5997 155.725C30.6812 154.447 26.2181 150.47 22.6821 146.889C17.6159 141.758 15.5726 138.955 13.0467 133.673C6.55621 120.097 5.3237 114.502 6.47843 103.857C6.90634 99.9115 7.44944 94.532 7.68533 91.9021C7.9212 89.2721 8.49178 85.9253 8.95339 84.4649C9.62559 82.3378 9.50548 81.0693 8.34972 78.0892C6.82842 74.1666 6.52286 64.807 7.87195 63.4553C8.31007 63.0163 8.13821 60.7684 7.43875 57.7894C6.52207 53.8851 6.45947 51.8569 7.14006 48.1023C7.88657 43.9836 7.81839 43.095 6.62638 41.4071C3.22956 36.5975 2.24185 34.1514 0.962815 27.3822C-0.346762 20.451 -0.340875 19.759 1.10616 10.6005C1.93623 5.34692 2.75756 0.903047 2.93142 0.724527C3.40803 0.23594 9.69905 3.14172 12.4101 5.10257C13.7223 6.05184 16.2276 7.26713 17.9773 7.80325C19.727 8.33939 22.5902 9.42762 24.3399 10.2216C33.5298 14.3914 51.99 15.1399 70.8662 12.1078C81.9212 10.3321 99.6409 10.1308 105.463 11.7149C111.607 13.3866 118.589 15.9499 119.055 16.705C119.705 17.7597 122.694 17.5096 124.09 16.2837C124.781 15.6773 127.493 14.4563 130.118 13.5702C139.461 10.4157 146.722 9.23028 159.184 8.82422C170.414 8.45831 171.836 8.56667 174.692 10.0063C182.309 13.8449 197.086 15.046 206.055 12.5553C209.115 11.7057 212.254 11.0105 213.032 11.0105C213.809 11.0105 215.872 10.2567 217.615 9.33539C223.379 6.28923 233.178 0.391067 233.593 -0.282367C235.144 -2.79695 237.728 4.33133 237.976 11.8076C238.172 17.7344 237.274 26.7068 236.303 28.5255C235.735 29.5878 235.791 30.105 236.498 30.3474C237.613 30.7295 235.167 36.165 232.244 39.8026C230.631 41.8091 230.618 41.9833 231.924 43.9805C232.674 45.1268 233.102 46.5483 232.875 47.1393C232.649 47.7303 232.743 48.6664 233.084 49.2194C233.71 50.2347 232.02 54.4302 230.273 56.1988C229.753 56.725 229.098 58.8767 228.817 60.9806C228.537 63.0844 227.9 67.004 227.401 69.6914C226.512 74.4893 226.54 74.65 229.008 78.6692C230.946 81.8255 231.521 83.6704 231.521 86.7345C231.521 89.019 231.882 90.7073 232.37 90.7073C232.837 90.7073 233.007 91.3771 232.748 92.196C232.488 93.0148 232.666 94.7115 233.142 95.9666C234.833 100.424 236.359 111.41 235.508 113.003C235.065 113.833 234.703 116.131 234.703 118.111C234.703 123.255 233.295 129.14 230.709 134.806C228.991 138.572 226.546 141.631 220.247 147.9C208.446 159.643 203.274 162.878 195.024 163.673C192.57 163.91 189.489 164.259 188.177 164.45C184.83 164.937 187.367 163.58 191.037 162.921C195.784 162.068 208.411 155.854 212.123 152.544C214.852 150.112 214.889 149.997 213.71 147.72C212.712 145.792 212.413 145.622 211.986 146.738C211.275 148.592 210.048 148.438 210.048 146.494C210.048 144.546 213.311 144.273 214.82 146.095C215.365 146.753 216.235 147.291 216.754 147.291C217.676 147.291 225.159 139.128 225.159 138.123C225.159 137.844 226.233 136.052 227.545 134.141C228.857 132.23 229.931 130.085 229.931 129.375C229.931 128.666 230.422 127.116 231.023 125.933C232.22 123.572 233.908 114.729 233.908 110.812C233.908 106.959 232.672 107.093 230.092 111.225C224.358 120.412 218.269 124.579 209.433 125.366C204.866 125.773 203.695 125.661 203.866 124.831C204.146 123.472 202.958 123.663 195.746 126.135C192.473 127.256 189.459 128.062 189.049 127.924C188.638 127.787 190.779 126.885 193.807 125.918C199.692 124.04 201.914 122.936 201.217 122.238C200.979 121.999 197.768 122.869 194.082 124.171C190.397 125.473 186.119 126.546 184.575 126.555C182.768 126.565 181.284 127.138 180.407 128.164C179.127 129.663 177.633 130.134 175.204 129.807C174.631 129.729 173.02 130.04 171.625 130.498C169.491 131.197 160.199 131.851 148.959 132.092C147.366 132.127 146.527 132.473 146.834 132.971C147.134 133.456 148.5 133.574 150.177 133.259C151.996 132.917 152.837 133.012 152.522 133.524C151.57 135.066 126.326 135.844 103.076 135.048C86.5003 134.48 86.2379 134.451 82.7957 132.804C81.0315 131.961 77.3178 131.361 72.6554 131.167C60.4933 130.661 64.116 132.28 77.2285 133.21C79.3213 133.359 78.2932 133.522 74.7522 133.604C71.4219 133.68 66.7696 133.354 64.413 132.878C62.0568 132.403 58.4923 131.939 56.4917 131.849C52.3597 131.662 45.6459 128.535 41.4387 124.838C39.9077 123.493 39.5498 122.985 40.6433 123.71C43.2086 125.41 53.2349 130.273 55.5556 130.943C59.3101 132.027 57.1483 129.821 53.1697 128.508C50.8732 127.751 47.0855 125.914 44.7528 124.427C40.3404 121.614 38.892 121.545 36.211 124.015C33.665 126.361 28.7593 128.307 25.2578 128.36C21.1553 128.423 17.39 126.57 13.0059 122.333C10.0831 119.508 9.6258 119.291 9.6258 120.734C9.6258 121.652 10.1604 123.43 10.8139 124.686C11.4673 125.941 12.0041 127.515 12.0068 128.184C12.0173 130.786 19.0562 141.188 24.662 146.884C27.9013 150.177 30.8285 152.87 31.1668 152.87C31.505 152.87 33.1446 154.158 34.8101 155.732C38.5202 159.238 45.8054 162.724 52.1608 164.034C58.2866 165.296 68.787 164.476 75.1941 162.234C81.101 160.167 86.0622 160.204 94.1204 162.374C97.5057 163.285 104.758 164.444 110.236 164.949C115.714 165.454 120.102 165.959 119.987 166.071C119.873 166.183 116.2 166.461 111.825 166.688C105.413 167.021 102.87 166.803 98.7021 165.564ZM103.872 133.742C104.173 133.254 103.036 132.976 100.936 133.025C98.0401 133.092 97.8171 133.203 99.4974 133.742C102.329 134.651 103.311 134.651 103.872 133.742ZM118.585 133.742C119.646 133.056 119.646 132.975 118.585 133.014C117.929 133.038 116.676 133.366 115.802 133.742C114.211 134.427 114.211 134.427 115.802 134.471C116.676 134.495 117.929 134.167 118.585 133.742ZM127.523 133.976C126.534 133.785 125.102 133.792 124.342 133.992C123.581 134.191 124.391 134.347 126.14 134.338C127.89 134.329 128.512 134.166 127.523 133.976ZM97.1115 133.029C97.1115 132.637 95.6532 132.177 93.8707 132.006C90.7381 131.707 89.4508 132.176 90.5054 133.233C91.2873 134.016 97.1115 133.837 97.1115 133.029ZM111.909 133.132C112.393 132.81 113.26 130.143 113.837 127.206C114.413 124.268 115.169 122.041 115.516 122.256C116.194 122.676 115.736 126.283 114.513 130.155C113.857 132.232 113.906 132.389 114.883 131.351C116.068 130.093 117.79 118.47 117.79 111.732C117.79 109.548 118.165 107.386 118.623 106.927C119.099 106.449 119.354 103.57 119.219 100.192L118.983 94.2925L109.041 93.6966C103.574 93.3688 98.6529 93.2679 98.1057 93.4723C96.9731 93.8957 96.8458 107.732 97.9369 111.826C98.3571 113.402 98.5282 111.569 98.4393 106.444C98.3652 102.17 98.573 98.673 98.901 98.674C99.2291 98.6748 99.5062 101.276 99.5168 104.454C99.5519 114.948 101.775 129.103 103.562 130.21C104.548 130.821 104.435 129.903 103.024 125.841C102.241 123.588 101.691 118.433 101.494 111.496L101.187 100.668L101.89 110.231C102.277 115.491 103.115 121.767 103.753 124.178C104.391 126.589 105.127 129.524 105.388 130.7C105.736 132.262 106.453 132.929 108.049 133.171C109.251 133.354 110.413 133.551 110.632 133.61C110.851 133.669 111.425 133.454 111.909 133.132ZM104.395 118.6C104.395 117.504 104.576 117.056 104.796 117.604C105.017 118.151 105.017 119.048 104.796 119.596C104.576 120.144 104.395 119.696 104.395 118.6ZM143.785 133.226C142.852 132.291 136.681 131.982 137.246 132.898C137.532 133.362 139.237 133.742 141.034 133.742C142.83 133.742 144.069 133.51 143.785 133.226ZM88.3972 131.333C89.2332 130.885 90.3251 129.754 90.8234 128.821C91.5945 127.378 91.5365 127.199 90.4341 127.623C89.4182 128.014 89.2253 127.739 89.5399 126.349C91.1135 119.397 91.5174 117.023 91.6043 114.217C91.6905 111.433 91.7838 111.282 92.3398 113.021C92.8629 114.658 93.0117 114.303 93.1736 111.029C93.282 108.837 93.4436 106.506 93.5328 105.849C93.622 105.191 93.795 103.039 93.9174 101.067L94.1398 97.4806L94.7258 100.27C95.2354 102.696 95.3253 102.431 95.4164 98.2362L95.5211 93.413L84.7842 93.2528L74.0474 93.0928L74.1033 101.264C74.134 105.758 74.4668 110.153 74.8427 111.029C75.3065 112.111 75.5442 110.638 75.5821 106.447C75.6129 103.05 75.9604 100.27 76.3544 100.27C76.7484 100.27 76.9153 101.938 76.7253 103.976C76.5352 106.014 76.8045 111.304 77.3237 115.731C77.8429 120.158 78.3627 124.677 78.4788 125.773C78.595 126.869 78.7191 127.999 78.7547 128.285C78.8684 129.199 83.9365 132.121 85.433 132.135C86.2273 132.142 87.5611 131.781 88.3972 131.333ZM80.4098 127.162C80.4098 127.049 80.0581 125.729 79.6283 124.227C79.1916 122.701 79.1667 121.825 79.572 122.24C80.4714 123.162 81.5554 127.366 80.8937 127.366C80.6276 127.366 80.4098 127.274 80.4098 127.162ZM81.4326 118.202C81.4389 116.01 81.593 115.208 81.7758 116.42C81.9586 117.631 81.9537 119.424 81.765 120.404C81.5762 121.385 81.4266 120.393 81.4326 118.202ZM79.0358 117.006C79.0358 115.034 79.1909 114.227 79.3805 115.213C79.57 116.199 79.57 117.813 79.3805 118.799C79.1909 119.786 79.0358 118.979 79.0358 117.006ZM123.506 131.604C122.932 131.374 122.246 131.402 121.982 131.667C121.718 131.932 122.187 132.12 123.026 132.086C123.952 132.047 124.141 131.859 123.506 131.604ZM135.067 130.576C138.003 128.782 140.059 124.527 140.059 120.244C140.059 118.624 140.393 115.351 140.802 112.969C141.21 110.587 141.747 105.889 141.994 102.529C142.241 99.1684 142.653 95.8709 142.91 95.2008C143.312 94.1511 141.867 93.9488 132.469 93.7392C120.246 93.4666 120.272 93.454 121.636 98.8902C122.101 100.745 122.547 106.028 122.626 110.631C122.849 123.515 124.015 123.806 124.22 111.03L124.398 99.872L125.002 112.623C125.333 119.637 125.326 125.478 124.985 125.605C124.645 125.732 124.601 126.986 124.888 128.392C125.298 130.401 125.914 131.058 127.764 131.455C131.672 132.295 132.399 132.207 135.067 130.577L135.067 130.576ZM101.022 131.055C100.839 130.892 98.9521 130.506 96.8276 130.197C94.1445 129.806 93.1266 129.897 93.4944 130.493C93.7857 130.965 95.673 131.352 97.6885 131.352C99.704 131.352 101.204 131.218 101.022 131.055ZM142.842 130.555C142.572 130.116 141.656 129.758 140.807 129.758C139.958 129.758 139.263 130.116 139.263 130.555C139.263 130.993 140.179 131.352 141.298 131.352C142.453 131.352 143.121 131.007 142.842 130.555ZM148.807 130.071C148.807 129.899 147.823 129.763 146.62 129.77C145.028 129.779 144.738 129.976 145.554 130.493C146.566 131.136 148.807 130.845 148.807 130.071ZM65.1868 128.891C66.3246 127.829 66.8991 126.46 66.7757 125.105C66.421 121.213 67.84 113.022 68.8688 113.022C69.8648 113.022 70.8625 107.981 70.8625 102.948C70.8625 101.401 71.2643 100.27 71.8139 100.27C73.1501 100.27 67.7629 94.8068 64.995 93.3548C62.8807 92.2458 62.4469 92.2882 59.2984 93.9108C57.424 94.8769 54.8534 96.7926 53.586 98.1679C51.6227 100.299 51.3616 101.081 51.8212 103.458L52.3607 106.247L52.5595 103.458L52.7583 100.669L53.3654 103.059C53.6993 104.374 54.0149 106.921 54.0666 108.72C54.2087 113.655 58.0945 128.424 59.5492 129.559C61.3945 130.997 63.1544 130.788 65.1868 128.891ZM56.653 114.617C56.653 113.522 56.8336 113.073 57.0542 113.621C57.2748 114.169 57.2748 115.066 57.0542 115.614C56.8336 116.161 56.653 115.713 56.653 114.617ZM55.8577 109.039C55.8577 107.943 56.0382 107.494 56.2589 108.042C56.4795 108.59 56.4795 109.487 56.2589 110.035C56.0382 110.583 55.8577 110.134 55.8577 109.039ZM68.52 108.707C68.4855 107.866 68.6735 107.396 68.9378 107.661C69.202 107.925 69.2303 108.613 69.0005 109.188C68.7466 109.824 68.5582 109.635 68.52 108.707ZM77.2057 129.223C73.4302 128.666 69.2525 128.601 69.2525 129.097C69.2525 129.762 76.4159 130.347 77.6034 129.779C78.0408 129.57 77.8619 129.319 77.2057 129.223ZM158.639 129.366C159.525 128.693 160.252 126.987 160.41 125.207C161.187 116.464 162.096 109.748 162.194 112.027C162.255 113.451 162.619 114.617 163.001 114.617C164.054 114.617 164.677 110.434 164.825 102.364C164.949 95.6407 164.994 95.4526 165.422 99.8732C165.932 105.148 166.856 103.755 166.743 97.8808L166.675 94.2944H156.338H146.001L145.739 99.0762C145.412 105.031 146.369 120.196 147.072 120.197C147.358 120.197 147.548 114.549 147.495 107.644L147.398 95.0914L147.974 105.85C148.554 116.677 149.372 121.82 150.282 120.35C150.552 119.914 150.791 121.461 150.814 123.788C150.836 126.115 151.327 128.59 151.905 129.288C153.202 130.853 156.626 130.893 158.639 129.366ZM150.438 117.473C150.404 116.633 150.592 116.163 150.856 116.427C151.12 116.692 151.148 117.38 150.919 117.955C150.665 118.591 150.476 118.402 150.438 117.473ZM149.765 111.43C149.765 109.896 149.928 109.268 150.128 110.035C150.328 110.802 150.328 112.057 150.128 112.825C149.928 113.592 149.765 112.964 149.765 111.43ZM162.552 104.656C162.547 102.026 162.692 100.854 162.874 102.051C163.055 103.249 163.059 105.401 162.882 106.833C162.705 108.266 162.556 107.286 162.552 104.656ZM170.06 130.055C171.044 129.791 171.849 129.219 171.849 128.784C171.849 128.314 170.963 128.226 169.662 128.567C168.459 128.883 165.685 129.415 163.498 129.75L159.522 130.358L163.896 130.447C166.302 130.496 169.075 130.319 170.06 130.055ZM98.8291 128.419C98.2549 128.189 97.569 128.217 97.3047 128.482C97.0404 128.747 97.5101 128.935 98.3485 128.9C99.2751 128.862 99.4635 128.673 98.8291 128.419ZM178.099 127.678C179.463 126.72 179.809 125.908 179.454 124.49C179.119 123.153 179.313 122.588 180.107 122.588C180.729 122.588 181.631 121.458 182.111 120.078C183.33 116.572 183.136 115.323 181.82 118.204C180.685 120.687 180.255 119.57 181.111 116.366C181.401 115.281 182.032 114.693 182.65 114.931C183.769 115.361 183.986 114.837 185.247 108.641C187.212 98.9855 187.276 99.2876 182.431 95.2063C180.016 93.1711 177.631 91.5072 177.132 91.5089C176.632 91.5105 175.052 92.2278 173.62 93.1028C170.367 95.0902 170.279 95.085 170.165 92.9006C170.114 91.9143 169.743 92.9006 169.341 95.0922C168.634 98.9423 169.11 120.537 169.972 123.783C170.425 125.486 174.094 128.953 175.45 128.959C175.9 128.962 177.092 128.385 178.099 127.678ZM183.124 110.235C183.097 109.358 183.372 107.206 183.734 105.453C184.287 102.773 184.391 102.646 184.389 104.656C184.386 107.448 183.198 112.685 183.124 110.235ZM54.5363 126.589C53.6615 126.221 51.7465 125.469 50.2808 124.919C48.8151 124.368 46.3993 123.09 44.9124 122.079C43.1198 120.86 42.2088 120.587 42.2088 121.27C42.2088 122.539 51.4123 127.11 54.1387 127.195C55.9289 127.251 55.9685 127.19 54.5363 126.589ZM75.027 126.804C74.0488 126.615 72.2594 126.61 71.0504 126.793C69.8414 126.976 70.6418 127.131 72.8289 127.137C75.016 127.143 76.0052 126.993 75.027 126.804ZM188.949 124.974C190.305 124.39 190.188 124.289 188.154 124.289C186.841 124.289 185.052 124.597 184.177 124.974C182.821 125.558 182.938 125.659 184.972 125.659C186.285 125.659 188.074 125.351 188.949 124.974ZM124.528 124.177C124.257 123.739 123.878 123.38 123.686 123.38C123.493 123.38 123.335 123.739 123.335 124.177C123.335 124.615 123.714 124.974 124.177 124.974C124.64 124.974 124.798 124.615 124.528 124.177ZM22.9175 123.635C22.152 123.435 20.8994 123.435 20.1339 123.635C19.3684 123.836 19.9947 124 21.5257 124C23.0567 124 23.683 123.836 22.9175 123.635ZM52.5433 123.388C50.9857 122.379 49.9329 122.379 50.555 123.388C50.8253 123.826 51.6517 124.179 52.3914 124.172C53.5504 124.162 53.5714 124.053 52.5433 123.388ZM74.1657 123.64C73.5916 123.41 72.9056 123.438 72.6413 123.703C72.377 123.968 72.8467 124.156 73.6851 124.122C74.6117 124.083 74.8001 123.895 74.1657 123.64ZM194.888 122.903C196.646 122.197 198.085 121.318 198.085 120.949C198.085 120.302 192.246 122.597 191.183 123.663C190.343 124.504 191.471 124.272 194.888 122.903ZM188.997 122.568C190.18 122.118 190.977 121.578 190.769 121.37C190.561 121.161 188.99 121.504 187.279 122.133C185.567 122.761 184.77 123.301 185.507 123.331C186.244 123.362 187.815 123.019 188.997 122.568ZM25.3041 120.958C28.038 120.419 30.2749 119.701 30.2749 119.362C30.2749 119.023 28.3959 119.247 26.0994 119.86C23.803 120.472 20.9186 120.978 19.69 120.983C18.4612 120.989 17.6674 121.335 17.9259 121.755C18.1845 122.174 18.8319 122.387 19.3647 122.228C19.8974 122.069 22.5702 121.498 25.3041 120.958ZM211.234 121.358C209.062 120.762 207.132 120.427 206.945 120.614C206.372 121.188 210.77 122.385 213.593 122.423C214.468 122.434 213.406 121.955 211.234 121.358ZM46.571 121C46.3007 120.562 45.7216 120.203 45.2842 120.203C44.8468 120.203 44.7101 120.562 44.9804 121C45.2508 121.438 45.8298 121.797 46.2672 121.797C46.7047 121.797 46.8414 121.438 46.571 121ZM194.899 120.203C195.555 119.778 195.734 119.43 195.296 119.43C194.859 119.43 193.964 119.778 193.308 120.203C192.652 120.628 192.473 120.975 192.91 120.975C193.348 120.975 194.242 120.628 194.899 120.203ZM24.302 119.358C28.9199 118.148 31.8576 116.912 31.8576 116.181C31.8576 115.829 30.791 116.075 29.4874 116.726C28.1837 117.378 24.5153 118.387 21.3353 118.97C17.3417 119.701 16.4144 120.054 18.3371 120.11C19.8681 120.155 22.5523 119.817 24.302 119.358ZM192.847 118.592C194.022 117.414 191.73 117.682 188.935 119.049L186.549 120.216L189.307 119.795C190.825 119.564 192.417 119.022 192.847 118.592ZM211.203 119.404C209.017 118.463 207.761 118.463 209.215 119.404C209.871 119.829 210.945 120.157 211.601 120.133C212.388 120.104 212.252 119.856 211.203 119.404ZM51.4312 117.212C51.1518 116.007 50.2609 112.028 49.4515 108.37C48.321 103.261 47.4437 101.182 45.6667 99.401L43.3535 97.083V100.209C43.3535 101.928 43.63 103.163 43.968 102.954C44.306 102.745 44.5826 103.103 44.5826 103.751C44.5826 104.398 44.8224 105.554 45.1154 106.319C45.4787 107.268 45.3522 107.527 44.7178 107.134C43.4281 106.336 43.5422 107.278 45.3922 112.704C46.9877 117.383 48.6181 119.404 50.7989 119.404C51.6359 119.404 51.8041 118.821 51.4312 117.212ZM221.145 118.607C221.145 118.169 219.758 117.81 218.063 117.81C216.368 117.81 213.773 117.579 212.297 117.297C210.821 117.015 209.877 117.071 210.201 117.421C211.542 118.875 221.145 119.916 221.145 118.607ZM26.4979 116.543C28.5757 115.854 30.2757 114.923 30.2757 114.473C30.2757 113.999 29.6888 113.904 28.8839 114.246C24.7253 116.013 21.7089 116.953 19.9365 117.034C18.8429 117.084 17.2324 117.465 16.3576 117.88C13.8074 119.092 22.114 117.996 26.4979 116.543ZM24.4949 114.883C26.7833 114.244 28.8623 113.385 29.1149 112.976C29.7647 111.922 26.8013 112.047 25.7324 113.118C25.2458 113.605 24.3981 113.854 23.8488 113.671C23.2994 113.487 24.1628 112.713 25.7675 111.95C27.3721 111.187 28.685 110.22 28.685 109.803C28.685 108.734 28.3543 108.822 25.052 110.775C22.9283 112.03 20.3472 112.613 15.6616 112.894C10.4592 113.207 9.66437 113.41 11.5836 113.936C12.8947 114.295 15.9368 114.423 18.3439 114.219C21.4865 113.953 22.1597 114.048 20.732 114.554C19.6384 114.942 17.3804 115.296 15.7143 115.339C14.0481 115.383 12.885 115.743 13.1297 116.14C13.6743 117.023 18.9067 116.444 24.4949 114.883ZM201.271 115.817C200.177 115.191 198.746 114.678 198.09 114.678C197.4 114.678 197.736 115.159 198.885 115.817C199.979 116.444 201.41 116.956 202.066 116.956C202.756 116.956 202.42 116.476 201.271 115.817ZM218.952 116.127C216.647 115.742 212.713 114.735 210.21 113.888C205.978 112.456 204.285 112.328 205.485 113.532C206.574 114.623 216.185 116.897 219.564 116.863L223.143 116.826L218.952 116.127ZM193.125 113.964C193.796 113.121 193.959 111.447 193.619 108.882C193.191 105.644 193.316 105.058 194.436 105.058C195.568 105.058 195.683 104.455 195.235 100.874C194.947 98.573 194.476 96.428 194.189 96.1076C193.902 95.7873 192.694 96.4294 191.504 97.5346C189.745 99.1693 189.34 100.244 189.332 103.297C189.326 105.362 188.794 109.023 188.149 111.434C187.503 113.845 186.97 115.898 186.965 115.997C186.926 116.741 192.337 114.955 193.125 113.964ZM205.248 114.622C204.592 114.197 203.518 113.849 202.862 113.849C201.801 113.849 201.801 113.935 202.862 114.622C203.518 115.047 204.592 115.394 205.248 115.394C206.308 115.394 206.308 115.309 205.248 114.622ZM223.948 114.479C224.179 114.248 222.123 113.847 219.381 113.589C216.638 113.331 213.063 112.561 211.437 111.878C208.022 110.445 207.634 110.388 207.634 111.325C207.634 113.158 222.415 116.015 223.948 114.479ZM40.0538 113.036C40.4028 112.721 40.3421 111.602 39.9189 110.549C38.6695 107.44 36.6356 100.454 36.6356 99.2704C36.6356 98.6681 35.5563 97.3757 34.2373 96.3985C32.1836 94.877 31.7711 94.799 31.3663 95.8561C31.1063 96.5351 31.1218 98.3098 31.4008 99.8001C31.7292 101.554 31.5831 102.618 30.9864 102.818C29.8007 103.214 32.1219 111.569 33.9174 113.369C35.1281 114.582 38.547 114.396 40.0538 113.036ZM31.9264 105.513C31.8919 104.673 32.0798 104.202 32.3441 104.467C32.6084 104.732 32.6366 105.419 32.4069 105.995C32.153 106.63 31.9645 106.442 31.9264 105.513ZM225.921 112.336C225.921 111.961 223.279 111.454 220.049 111.209C216.819 110.964 213.061 110.186 211.698 109.48C209.381 108.279 208.066 109.022 210.185 110.334C213.207 112.205 225.921 113.823 225.921 112.336ZM19.9329 111.411C21.1102 111.027 19.4879 110.942 15.9563 111.203C12.6756 111.446 9.84228 111.774 9.65999 111.933C9.00386 112.502 17.99 112.047 19.9329 111.411ZM202.809 111.469C203.44 111.069 204.419 109.192 204.984 107.297C206.048 103.733 206.419 94.5383 205.534 93.6529C205.258 93.3761 204.284 93.6749 203.369 94.317C202.454 94.9591 201.134 95.4843 200.436 95.4843C199.33 95.4843 199.252 96.2079 199.834 101.085C200.261 104.673 200.21 107.233 199.69 108.206C197.889 111.577 199.681 113.452 202.809 111.469ZM19.4557 108.974C20.1298 108.249 19.7065 108.144 17.6524 108.53C16.1761 108.807 13.5602 109.034 11.8394 109.034C9.72298 109.034 8.88964 109.324 9.264 109.931C9.97041 111.076 18.2222 110.302 19.4557 108.974ZM224.267 110.303C223.696 109.743 214.539 108.221 214.142 108.62C213.416 109.348 217.6 110.527 221.086 110.577C223.018 110.605 224.449 110.482 224.267 110.303ZM228.469 109.671C227.727 108.928 227.302 108.928 226.56 109.671C225.818 110.415 226.03 110.628 227.515 110.628C228.999 110.628 229.211 110.415 228.469 109.671ZM26.2106 108.309C27.095 107.747 27.1342 107.097 26.4095 105.014C25.9129 103.587 25.5065 100.388 25.5065 97.9057C25.5065 93.7897 25.2911 93.233 23.0581 91.5787C20.0563 89.3548 19.3913 89.8432 20.7957 93.2406C21.3844 94.6649 21.9139 98.5317 21.9723 101.833C22.0307 105.135 22.134 108.106 22.2019 108.434C22.3696 109.247 24.8556 109.169 26.2106 108.309ZM228.381 108.235C229.22 108.235 229.907 107.929 229.907 107.556C229.907 106.817 216.411 105.554 215.738 106.229C215.511 106.456 215.541 106.857 215.804 107.12C216.452 107.769 224.472 108.902 225.797 108.532C226.379 108.369 227.542 108.235 228.381 108.235ZM12.5709 107.677C11.797 107.475 10.7233 107.489 10.1849 107.707C9.64645 107.925 10.2796 108.091 11.5918 108.074C12.9041 108.058 13.3446 107.879 12.5709 107.677ZM18.5624 106.956C19.5431 105.974 18.1954 104.435 16.6977 104.828C14.4936 105.405 14.0032 106.568 16.1639 106.094C17.6022 105.778 17.7198 105.868 16.7615 106.554C15.712 107.305 15.72 107.41 16.8277 107.42C17.5203 107.427 18.3009 107.218 18.5624 106.956ZM214.235 104.692C215.014 103.912 215.423 101.492 215.517 97.1047C215.592 93.5619 215.857 90.1327 216.105 89.4844C216.608 88.1718 215.171 87.8502 214.398 89.1025C214.128 89.5408 213.241 89.8995 212.429 89.8995C211.121 89.8995 210.966 90.5197 211.084 95.279C211.157 98.2377 210.92 101.824 210.557 103.249C209.976 105.53 210.088 105.839 211.494 105.839C212.373 105.839 213.606 105.323 214.235 104.692ZM231.498 104.643C231.498 103.687 230.305 103.448 225.533 103.448C222.252 103.448 219.568 103.78 219.568 104.186C219.568 105.211 221.583 105.638 226.925 105.746C230.501 105.819 231.498 105.578 231.498 104.643ZM17.4927 102.053C17.3154 98.1172 15.4238 89.9656 14.402 88.7343C13.3067 87.4147 13.2078 87.4433 12.7532 89.2125C11.9141 92.4783 12.606 102.047 13.7331 102.763C15.5403 103.912 17.5592 103.53 17.4927 102.053ZM231.1 101.854C230.83 101.416 229.398 101.057 227.919 101.057C226.44 101.057 225.008 101.416 224.738 101.854C224.437 102.341 225.673 102.651 227.919 102.651C230.165 102.651 231.401 102.341 231.1 101.854ZM224.24 100.331C226.274 98.8799 226.371 98.498 226.31 92.1426C226.233 84.1219 225.909 83.4126 222.739 84.3236C220.836 84.8704 220.363 84.7623 220.363 83.78C220.363 82.8597 220.876 82.6826 222.416 83.07C224.1 83.4936 224.42 83.3303 224.199 82.1602C223.833 80.2276 218.969 79.6937 218.273 81.5099C218.004 82.2117 218.331 83.4002 219 84.1509C221.145 86.5601 221.995 91.5258 221.149 96.7047C220.722 99.3174 220.371 101.545 220.368 101.654C220.352 102.335 222.424 101.627 224.24 100.331ZM219.767 81.3804C220.532 81.1799 221.785 81.1799 222.551 81.3804C223.316 81.5808 222.69 81.7449 221.159 81.7449C219.628 81.7449 219.001 81.5808 219.767 81.3804ZM230.703 99.4157C230.703 98.9515 230.345 98.7933 229.907 99.0642C229.47 99.3351 229.112 99.7149 229.112 99.9082C229.112 100.102 229.47 100.26 229.907 100.26C230.345 100.26 230.703 99.8799 230.703 99.4157ZM48.2239 97.4392C46.7192 96.2987 46.7254 96.2691 48.4697 96.2691C49.5364 96.2691 50.0472 95.9252 49.7343 95.4178C49.4455 94.9496 48.7201 94.7546 48.1222 94.9845C47.5243 95.2144 46.8236 95.0596 46.565 94.6403C45.9533 93.6485 43.8028 93.6514 43.8028 94.6443C43.8028 95.8396 47.1446 98.663 48.5259 98.6349C49.5207 98.6146 49.4606 98.3765 48.2239 97.4392ZM36.3768 93.5312C36.1359 92.902 36.366 92.2121 36.8882 91.9979C38.4719 91.3486 35.6652 89.8667 33.8611 90.3996C31.0502 91.2299 30.8475 92.1117 33.1769 93.3763C36.0522 94.9373 36.9317 94.9799 36.3768 93.5312ZM98.6799 90.2919C99.2245 89.6344 99.4911 89.0964 99.2724 89.0964C99.0537 89.0964 98.4292 89.6344 97.8846 90.2919C97.3401 90.9494 97.0735 91.4873 97.2922 91.4873C97.5109 91.4873 98.1354 90.9494 98.6799 90.2919ZM200.903 90.7251C200.644 90.306 199.907 90.165 199.265 90.4119C197.621 91.0441 197.815 91.4873 199.735 91.4873C200.636 91.4873 201.161 91.1443 200.903 90.7251ZM212.807 87.6398C213.242 87.3801 212.356 86.9131 210.838 86.602C207.715 85.962 206.846 86.2688 206.846 88.0113C206.846 88.9611 207.405 89.1029 209.431 88.6675C210.853 88.362 212.372 87.8995 212.807 87.6398ZM23.1069 87.0819C22.5536 86.4138 21.9371 86.0313 21.7369 86.2319C21.1853 86.7846 22.306 88.2966 23.2672 88.2966C23.7945 88.2966 23.7342 87.8393 23.1069 87.0819ZM16.9824 84.6414C15.1456 83.245 14.3743 83.2457 14.3743 84.6437C14.3743 85.928 15.8707 86.6492 17.3801 86.0925C18.123 85.8184 18.0157 85.4269 16.9824 84.6414ZM118.569 83.9161C117.885 83.0902 117.855 82.7207 118.471 82.7207C118.962 82.7207 119.364 82.362 119.364 81.9237C119.364 81.4854 118.827 81.1268 118.171 81.1268C117.214 81.1268 116.977 79.9061 116.971 74.9503C116.963 67.8965 116.193 60.4065 115.476 60.4049C115.208 60.4043 115.046 64.6183 115.115 69.7692L115.24 79.1343L114.48 70.7678C114.062 66.1662 113.399 62.0793 113.006 61.6856C112.583 61.2623 112.415 62.3265 112.595 64.2891C112.761 66.1149 112.615 67.4338 112.27 67.2201C111.925 67.0063 111.388 63.6823 111.076 59.8332C110.069 47.3886 109.197 45.5891 109.422 56.4214C109.536 61.9005 109.496 64.7696 109.334 62.7971C108.53 53.0558 107.177 43.6046 106.529 43.2037C106.131 42.9571 104.74 42.9896 103.438 43.2761C101.234 43.7612 101.069 44.0525 101.026 47.5192C101.001 49.5664 100.656 52.6759 100.261 54.4293C99.681 56.9992 99.61 56.4586 99.8942 51.6399C100.38 43.4025 98.8609 47.1353 97.9692 56.3697L97.3101 63.1959L97.098 57.6171C96.9167 52.8527 96.7967 52.4455 96.2753 54.8277C95.7686 57.1426 95.6734 56.7695 95.7152 52.6341C95.743 49.8934 95.528 47.4129 95.2374 47.1217C94.9469 46.8306 94.6621 48.7143 94.6045 51.3078C94.5125 55.4523 94.4289 55.6855 93.9139 53.2338C93.5916 51.6997 93.2808 50.8927 93.2233 51.4406C93.1657 51.9886 92.8103 52.4369 92.4335 52.4369C92.0568 52.4369 91.8996 51.4506 92.0842 50.2452C92.329 48.6473 92.2176 48.3774 91.673 49.249C90.5095 51.1109 88.9588 61.1254 89.0754 66.0243C89.1333 68.4568 88.8216 72.7604 88.3827 75.5879C87.9438 78.4153 87.4877 81.446 87.3692 82.3227C87.0874 84.4063 90.2216 84.8339 106.935 84.9923C118.074 85.098 119.442 84.971 118.569 83.9161ZM112.453 74.3526C112.448 71.7226 112.593 70.5506 112.775 71.7482C112.956 72.9457 112.96 75.0975 112.783 76.53C112.606 77.9624 112.457 76.9825 112.453 74.3526ZM90.8908 64.3905C90.8685 62.8564 91.1368 59.9873 91.487 58.0148C92.0768 54.6931 92.1269 54.6343 92.1645 57.2178C92.1868 58.752 91.9185 61.6211 91.5682 63.5935C90.9784 66.9152 90.9284 66.974 90.8908 64.3905ZM94.9256 63.5935C94.9256 61.6211 95.0807 60.8141 95.2702 61.8004C95.4598 62.7866 95.4598 64.4005 95.2702 65.3867C95.0807 66.373 94.9256 65.566 94.9256 63.5935ZM93.2438 58.0148C93.2438 56.919 93.4244 56.4707 93.645 57.0186C93.8656 57.5665 93.8656 58.4631 93.645 59.011C93.4244 59.5589 93.2438 59.1106 93.2438 58.0148ZM146.007 84.4294L153.165 83.9161L152.917 79.1343C152.644 73.8682 150.625 61.9119 149.565 59.2859C148.522 56.7007 148.714 59.4015 149.984 65.1874C150.609 68.0365 151.089 72.8781 151.05 75.9464L150.978 81.5252L150.363 77.289C149.551 71.7039 148.817 71.1454 148.684 76.0128C148.59 79.4648 148.495 79.2199 147.885 73.954C146.472 61.7668 143.243 47.1338 142.301 48.6488C141.898 49.2974 141.495 48.7247 141.151 47.0129C140.794 45.2407 140.266 44.5156 139.536 44.7963C138.94 45.0257 138.451 44.866 138.451 44.4415C138.451 43.1942 131.807 43.5574 129.88 44.9102C128.908 45.5925 128.101 46.7581 128.087 47.5003C128.073 48.2425 127.537 49.5459 126.894 50.3968C126.252 51.2476 125.727 53.3482 125.727 55.0646C125.727 57.5454 125.476 58.0889 124.504 57.7151C122.764 57.0461 122.326 58.7686 122.231 66.6618C122.17 71.7174 121.883 73.5027 121.154 73.3566C120.436 73.2128 120.159 74.6716 120.159 78.6032C120.159 81.5985 120.398 84.2882 120.69 84.5805C121.333 85.2247 136.152 85.1361 146.007 84.4294ZM142.583 71.1647C142.567 69.8497 142.732 69.2153 142.95 69.7549C143.168 70.2945 143.181 71.3703 142.979 72.1458C142.778 72.9212 142.599 72.4797 142.583 71.1647ZM144.999 68.3753C144.999 66.8412 145.162 66.2136 145.362 66.9806C145.562 67.7477 145.562 69.0029 145.362 69.77C145.162 70.5371 144.999 69.9095 144.999 68.3753ZM141.788 65.586C141.772 64.271 141.937 63.6365 142.155 64.1761C142.372 64.7157 142.386 65.7916 142.184 66.567C141.982 67.3425 141.804 66.901 141.788 65.586ZM126.776 61.2027C126.776 58.3535 126.921 57.1879 127.097 58.6125C127.273 60.0371 127.273 62.3682 127.097 63.7928C126.921 65.2174 126.776 64.0518 126.776 61.2027ZM144.082 64.0584C144.047 63.2183 144.235 62.7476 144.499 63.0124C144.764 63.2772 144.792 63.9646 144.562 64.5399C144.308 65.1757 144.12 64.9868 144.082 64.0584ZM124.291 61.6011C124.275 60.2861 124.44 59.6517 124.657 60.1913C124.875 60.7309 124.889 61.8068 124.687 62.5822C124.485 63.3576 124.307 62.9161 124.291 61.6011ZM140.993 60.8042C140.976 59.4892 141.141 58.8547 141.359 59.3944C141.577 59.9339 141.59 61.0098 141.389 61.7852C141.187 62.5607 141.009 62.1192 140.993 60.8042ZM142.862 57.5801C142.558 55.5473 142.472 53.7209 142.67 53.5217C142.869 53.3224 143.281 54.8227 143.585 56.8556C143.889 58.8885 143.975 60.7148 143.777 60.9141C143.578 61.1133 143.166 59.613 142.862 57.5801ZM137.782 57.2179C137.782 56.1221 137.962 55.6738 138.183 56.2217C138.404 56.7696 138.404 57.6662 138.183 58.2141C137.962 58.762 137.782 58.3137 137.782 57.2179ZM139.677 52.5864C139.348 49.82 139.266 47.369 139.495 47.1398C140.054 46.5801 141.105 55.2306 140.641 56.5647C140.439 57.1431 140.005 55.3529 139.677 52.5864ZM85.459 81.7242C86.28 78.6545 86.04 67.4346 85.165 67.9766C84.7275 68.2475 84.3445 70.6894 84.3137 73.4031C84.2829 76.1168 84.0146 78.9516 83.7172 79.7025C83.4199 80.4534 83.2707 76.8671 83.3856 71.7328C83.6364 60.5259 82.1037 47.5513 80.4651 47.0102C79.6523 46.7415 79.5006 47.048 79.9132 48.1254C81.5437 52.3832 82.8145 75.3592 81.37 74.465C81.0325 74.256 80.671 70.7381 80.5669 66.6476C80.4627 62.5571 80.0231 56.3509 79.59 52.8554C79.1568 49.3602 78.8025 46.0428 78.8025 45.4835C78.8025 44.924 78.3517 44.4664 77.8008 44.4664C77.2499 44.4664 76.3813 43.7959 75.8706 42.9765C74.8656 41.3639 71.6025 40.4333 69.1795 41.0683C68.1034 41.3502 67.6649 42.1838 67.6571 43.9616C67.6414 47.5868 66.7851 50.3956 66.056 49.2136C65.7244 48.6759 65.0564 50.8552 64.5499 54.1273C64.0493 57.3613 63.3138 61.0831 62.9154 62.3981C62.1953 64.775 62.1929 64.7726 62.5101 61.9997C64.1969 47.2526 63.7569 45.5981 61.6683 58.8334C60.9439 63.424 60.069 67.5386 59.7239 67.977C58.7689 69.19 57.0509 77.6577 57.5145 78.8667C58.1414 80.5013 71.637 83.162 80.4992 83.3982C84.5225 83.5054 85.0284 83.3344 85.459 81.7242ZM65.4988 60.4054C65.4988 58.4329 65.6539 57.626 65.8435 58.6123C66.0331 59.5985 66.0331 61.2123 65.8435 62.1986C65.6539 63.1848 65.4988 62.3779 65.4988 60.4054ZM66.262 53.2327C66.262 51.6986 66.4257 51.071 66.6258 51.8381C66.8258 52.6051 66.8258 53.8604 66.6258 54.6274C66.4257 55.3945 66.262 54.7669 66.262 53.2327ZM69.8553 48.9835C69.5272 48.1805 69.2697 46.5667 69.283 45.3971C69.304 43.5483 69.4145 43.4555 70.1292 44.6857C70.5813 45.464 70.8389 47.0778 70.7015 48.272C70.493 50.0854 70.3535 50.2027 69.8553 48.9835ZM169.732 82.291C175.055 81.6164 179.859 80.9104 180.405 80.7221C181.544 80.3299 181.682 73.6788 180.604 71.1649C180.123 70.0442 179.904 71.0894 179.864 74.6849C179.834 77.4975 179.62 79.6099 179.39 79.3791C179.16 79.1484 178.629 75.054 178.211 70.2802C177.409 61.1263 175.826 52.2019 175.278 53.7559C175.1 54.2628 175.509 58.6684 176.188 63.5458C177.545 73.2911 177.797 80.6869 176.706 78.7352C176.339 78.0777 175.797 73.9534 175.502 69.5701C175.208 65.1868 174.5 58.5521 173.929 54.8263C173.359 51.1005 173.196 47.9325 173.567 47.7865C175.859 46.8837 171.979 44.2643 167.018 43.3658C164.838 42.971 163.881 43.1801 162.946 44.2555C161.688 45.7016 160.012 56.5263 159.821 64.4442C159.725 68.4054 159.666 68.5364 159.13 65.9842C158.79 64.3663 158.48 63.8642 158.39 64.7887C158.306 65.6654 157.979 68.9556 157.664 72.1002C157.349 75.2448 157.371 77.6444 157.713 77.4326C158.055 77.2208 158.335 77.9653 158.335 79.087C158.335 80.2088 157.977 81.1265 157.539 81.1265C157.102 81.1265 156.744 81.6644 156.744 82.3219C156.744 83.8149 157.723 83.8127 169.732 82.291ZM172.96 70.4258C172.721 69.8002 172.658 68.4553 172.821 67.4372C173.039 66.0753 173.224 66.376 173.52 68.5747C173.936 71.6688 173.716 72.3982 172.96 70.4258ZM199.053 79.818C201.81 78.2215 204.701 76.3652 205.477 75.6926C206.558 74.7552 207.106 74.6887 207.823 75.4074C209.154 76.7411 211.366 76.5672 211.934 75.0843C212.2 74.3909 212.417 71.3637 212.417 68.3571C212.417 65.3505 212.775 62.6689 213.212 62.398C214.075 61.8639 214.27 56.2869 213.524 53.4999C213.037 51.681 209.493 50.2657 208.334 51.4274C207.964 51.7977 208.037 55.178 208.496 58.9391C208.956 62.7003 209.22 67.528 209.085 69.6671C208.876 72.9487 208.668 72.2489 207.748 65.188C207.149 60.5855 206.324 56.2819 205.916 55.6244C205.408 54.807 205.31 55.3111 205.605 57.2183C205.842 58.7525 206.198 62.8768 206.396 66.3834L206.756 72.7591L205.955 67.5789C205.515 64.7297 204.677 60.4261 204.093 58.0153C203.119 53.998 203.019 53.8649 202.896 56.4214C202.783 58.7472 202.646 58.9458 202.067 57.6168C201.632 56.6167 201.49 58.695 201.687 63.1956L202.001 70.3682L200.858 63.5941C200.228 59.8682 199.564 54.6681 199.381 52.0381C198.948 45.802 198.165 42.873 196.93 42.873C196.182 42.873 196.088 43.8214 196.556 46.6586C197.414 51.8718 198.004 65.2541 197.267 62.7971C196.938 61.7013 196.633 59.1012 196.589 57.0191C196.494 52.4507 194.92 51.8871 194.92 56.4214C194.92 60.8447 193.53 60.4241 192.945 55.8237C192.68 53.7416 192.292 50.9141 192.082 49.5404C191.818 47.808 192.06 46.9045 192.874 46.5918C193.734 46.2609 194.246 47.0324 194.795 49.488C195.482 52.5541 195.552 52.626 195.63 50.3445C195.677 48.9747 195.487 46.7147 195.21 45.3222C194.81 43.3206 194.352 42.8408 193.022 43.0309C191.659 43.2259 191.294 43.913 191.096 46.6586C190.93 48.9647 190.485 50.0457 189.704 50.0457C189.041 50.0457 188.562 49.289 188.569 48.2525C188.579 46.8025 188.729 46.6881 189.352 47.6548C190.011 48.6764 190.125 48.6475 190.135 47.4555C190.162 44.4532 186.837 46.6103 185.314 50.5834C183.947 54.1521 183.487 74.886 184.742 76.3628C186.046 77.8963 192.649 82.7214 193.443 82.7214C193.771 82.7214 196.295 81.4144 199.053 79.818ZM203.028 61.601C203.012 60.286 203.177 59.6516 203.395 60.1912C203.612 60.7308 203.626 61.8066 203.424 62.5821C203.222 63.3575 203.044 62.916 203.028 61.601ZM185.502 60.4056C185.502 59.3097 185.682 58.8614 185.903 59.4094C186.123 59.9573 186.123 60.8539 185.903 61.4018C185.682 61.9497 185.502 61.5014 185.502 60.4056ZM188 56.4207C188 54.0099 188.149 53.0237 188.332 54.2291C188.514 55.4345 188.514 57.407 188.332 58.6124C188.149 59.8178 188 58.8316 188 56.4207ZM212.234 58.0495C211.684 56.0881 212.013 54.9528 212.879 55.821C213.133 56.0756 213.215 57.1216 213.062 58.1455L212.782 60.0072L212.234 58.0495ZM186.297 52.4359C186.297 51.3401 186.478 50.8918 186.699 51.4397C186.919 51.9876 186.919 52.8842 186.699 53.4321C186.478 53.98 186.297 53.5318 186.297 52.4359ZM48.7227 80.3297C49.603 80.3297 51.3626 79.588 52.6331 78.6815C54.4 77.4207 54.9243 76.4372 54.8637 74.4974C54.788 72.075 54.7561 72.0507 54.1513 73.954C53.7562 75.1975 53.5277 72.717 53.5434 67.3545C53.5573 62.629 53.341 58.5345 53.0628 58.2556C52.7846 57.9768 52.5539 60.4087 52.5501 63.6596C52.5411 71.3712 51.7327 77.9388 50.7924 77.9388C50.3811 77.9388 50.2309 76.9525 50.4585 75.7471C51.4189 70.6608 51.8653 55.6238 51.0558 55.6238C50.5512 55.6238 50.1258 58.8213 49.9689 63.7927L49.7111 71.9615L49.403 61.9995C49.1164 52.7356 49.0587 52.4288 48.5804 57.6162L48.0659 63.1949L47.8044 56.4207C47.6605 52.6949 47.4596 49.2879 47.358 48.8496C47.2564 48.4113 47.1319 46.7077 47.0815 45.064C46.9941 42.2186 46.861 42.0754 44.3038 42.0754H41.6179L40.8464 50.6428L40.0748 59.2101L39.8284 53.6314L39.5819 48.0526L39.0365 52.0374L38.4911 56.0223L38.269 52.4359L38.047 48.8496L37.0482 54.0299L36.0495 59.2101L35.8709 54.4283C35.7044 49.9665 35.6464 49.8331 35.0039 52.4359C34.6252 53.9701 34.0685 59.2936 33.7668 64.2661C33.3686 70.8296 33.0042 72.9235 32.4367 71.907C31.9756 71.0812 31.8372 66.8025 32.0992 61.4716C32.5207 52.8939 32.4647 52.4356 30.993 52.4356C29.089 52.4356 28.8488 53.0371 28.0313 59.8506C27.1776 66.9662 28.5305 76.6139 30.4332 76.9805C31.1692 77.1221 32.1735 76.4849 32.6651 75.5645C33.5503 73.9072 33.5882 73.9143 36.6142 76.316C40.3318 79.2665 46.4929 82.1395 46.8571 81.0923C47.003 80.6728 47.8425 80.3297 48.7227 80.3297ZM37.6304 59.6086C37.6304 58.0744 37.7941 57.4468 37.9941 58.2139C38.1941 58.981 38.1941 60.2362 37.9941 61.0033C37.7941 61.7704 37.6304 61.1428 37.6304 59.6086ZM23.6534 72.9577C23.9928 72.4098 24.2823 67.7389 24.2968 62.5781C24.319 54.691 24.1344 53.2305 23.1399 53.4218C21.7318 53.6927 20.4555 60.8834 21.0161 65.3866C21.2208 67.0303 21.0644 68.3752 20.6685 68.3752C19.8415 68.3752 19.682 72.6239 20.4791 73.4226C21.3323 74.2775 22.9859 74.0354 23.6534 72.9577ZM219.581 70.7625C221.402 68.6579 221.723 59.4815 220.035 57.7895C219.289 57.0427 219.157 56.3643 219.658 55.8618C220.16 55.3593 220.141 54.3201 219.606 52.909C218.989 51.2834 218.327 50.7962 216.992 50.9864C215.043 51.2642 215.047 51.2006 216.475 59.2103C216.944 61.8403 217.115 65.8749 216.855 68.1761C216.338 72.7539 217.172 73.5454 219.581 70.7625ZM17.9032 63.3667C17.6453 61.0819 17.7863 57.6814 18.2163 55.81C18.912 52.783 18.8242 52.314 17.4206 51.5614C16.5529 51.096 15.73 50.834 15.5919 50.9791C15.4539 51.1241 14.9597 54.3891 14.4937 58.2345C13.4843 66.5636 14.2012 69.7579 16.7705 68.3799C18.166 67.6315 18.3117 66.9863 17.9032 63.3667ZM85.6829 63.0944C85.0559 57.9642 84.377 57.7414 84.377 62.666C84.377 65.1394 84.7278 66.7837 85.2554 66.7837C85.8348 66.7837 85.9803 65.5279 85.6829 63.0944ZM225.222 65.7875C225.389 63.4369 225.037 56.6926 224.672 55.2277C224.279 53.6558 224.291 53.6552 225.508 55.1808C226.669 56.6368 226.741 56.5196 226.73 53.1884C226.714 48.5492 225.882 47.3001 223.248 47.9624C220.961 48.5378 220.806 49.1668 221.96 53.1984C222.391 54.7064 222.794 58.38 222.855 61.3616C222.938 65.3736 223.251 66.7834 224.059 66.7834C224.66 66.7834 225.183 66.3354 225.222 65.7875ZM12.3145 48.5412C12.1641 48.3708 11.6732 49.2011 11.2235 50.3863C10.2798 52.8734 10.1173 62.2403 11.0024 63.1353C11.573 63.7124 12.8794 49.1812 12.3145 48.5412ZM55.4655 60.1928C55.2476 59.6533 55.0826 60.2877 55.0988 61.6026C55.1151 62.9176 55.2933 63.3591 55.4949 62.5837C55.6966 61.8083 55.6834 60.7324 55.4655 60.1928ZM112.319 52.0391L111.571 48.8512L111.5 51.6406C111.461 53.1747 111.693 55.8645 112.016 57.6178L112.604 60.8057L112.836 58.0163C112.963 56.4821 112.73 53.7924 112.319 52.0391ZM115.073 57.4352C114.809 57.1703 114.621 57.6411 114.655 58.4812C114.693 59.4096 114.882 59.5984 115.136 58.9627C115.366 58.3874 115.337 57.7 115.073 57.4352ZM159.914 54.8948C159.93 52.3369 159.478 52.9852 158.849 56.4224C158.489 58.3848 158.57 58.8573 159.12 58.0163C159.55 57.3588 159.907 55.9542 159.914 54.8948ZM56.8085 55.1925C56.5495 54.5161 56.167 54.1336 55.9585 54.3426C55.75 54.5515 55.8153 55.1049 56.1037 55.5724C56.8879 56.8439 57.3463 56.5969 56.8085 55.1925ZM229.855 47.9021C229.913 45.2547 228.82 43.8086 227.895 45.3085C227.601 45.7851 227.621 47.8531 227.938 49.904C228.398 52.8729 228.646 53.3081 229.157 52.0391C229.51 51.1625 229.824 49.3008 229.855 47.9021ZM27.5486 48.0862C28.9377 47.0393 28.7734 47.0077 25.9111 47.7711C22.009 48.8117 21.4535 49.2497 24.0359 49.2497C25.1188 49.2497 26.6995 48.7262 27.5486 48.0862ZM24.1186 46.7624C26.8542 45.8326 31.4604 43.471 34.3544 41.5143L39.6164 37.9566L43.3606 39.2305C45.4199 39.9311 47.4362 40.2991 47.8413 40.0483C49.0123 39.323 48.6955 38.0923 47.3378 38.0923C46.6558 38.0923 46.3226 37.7278 46.5974 37.2824C46.8722 36.8369 47.3886 36.653 47.7451 36.8738C48.1015 37.0946 52.9268 37.321 58.4676 37.3771C64.0087 37.4331 68.3272 37.6945 68.0648 37.9579C67.8019 38.2213 64.6519 38.6752 61.0647 38.9666C55.0681 39.4537 55.4717 39.5118 66.0749 39.6873C72.4175 39.7923 82.6971 39.9203 88.9189 39.9718C101.751 40.0779 101.477 41.0552 88.3436 42.026L79.9928 42.6434L87.2034 42.7588C91.1692 42.8222 96.3583 42.525 98.7355 42.0984C101.222 41.6521 105.695 41.5855 109.27 41.9417C112.688 42.2821 115.631 42.3217 115.811 42.0298C115.991 41.7378 114.129 41.291 111.672 41.0369C109.215 40.7828 106.819 40.1889 106.349 39.7171C105.737 39.1048 106.168 38.9838 107.854 39.2942C115.423 40.6883 121.161 40.9912 126.878 40.2985C131.407 39.7499 133.31 39.7804 133.518 40.4048C133.923 41.6223 135.32 41.4977 136.373 40.1502C136.89 39.4876 140.216 38.6136 144.413 38.0369C150.398 37.2147 152.614 37.2457 157.934 38.2262L164.296 39.3987L155.548 39.0771C150.721 38.8996 145.373 39.1368 143.618 39.6064C140.732 40.3784 140.954 40.4236 146.004 40.0932C149.066 39.8928 155.508 40.0497 160.32 40.442C167.562 41.0324 169.289 40.9567 170.346 40.0019C171.357 39.0897 173.892 38.8945 182.469 39.0682C188.434 39.1889 193.319 39.467 193.324 39.6862C193.329 39.9054 197.833 40.1938 203.332 40.3272C213.661 40.5777 221.252 39.5037 222.858 37.5649C223.344 36.9783 224.311 36.4984 225.008 36.4984C227.144 36.4984 224.489 38.4257 219.968 40.1564C216.904 41.3293 214.075 41.6619 207.64 41.6057C202.691 41.5626 200.261 41.7676 201.675 42.1092C205.83 43.1126 216.303 42.9312 218.999 41.8091C222.862 40.2017 226.142 39.4983 225.589 40.3962C224.812 41.6551 226.695 42.2999 227.994 41.2199C228.952 40.4224 228.985 40.0954 228.158 39.5695C227.465 39.1295 227.814 38.9096 229.215 38.9014C232.017 38.8851 232.624 37.957 234.605 30.6656C237.065 21.6065 237.61 11.6795 235.959 5.98842C234.444 0.768308 233.527 0.425691 229.738 3.66535C221.078 11.0708 213.146 14.9799 206.781 14.9799C205.446 14.9799 203.651 15.357 202.792 15.8179C200.936 16.8131 188.138 15.5799 181.848 13.7996C172.272 11.0896 152.227 10.2024 144.874 12.1635C142.503 12.7957 140.31 13.1558 140 12.9635C139.689 12.7714 136.976 13.4786 133.971 14.5351C120.855 19.1459 121.11 19.1143 114.958 16.8763C109.051 14.728 104.782 13.765 95.8978 12.5774C90.1853 11.8138 77.4607 13.1436 60.2499 16.3029C55.1512 17.2388 51.2644 17.4418 46.028 17.0457C36.4682 16.3226 25.8371 14.4239 23.6763 13.0535C22.7177 12.4458 20.8144 11.7152 19.4467 11.4301C18.0791 11.145 14.5366 9.31654 11.5744 7.36701C8.61231 5.41747 5.87505 3.82243 5.49162 3.82243C4.03475 3.82243 3.1253 8.47813 3.1564 15.7769C3.19815 25.5835 3.52704 28.0031 5.54388 33.346C7.45726 38.4143 14.5087 46.8585 16.8271 46.8585C17.667 46.8585 18.3541 47.2171 18.3541 47.6555C18.3541 48.7147 18.386 48.7097 24.117 46.762L24.1186 46.7624ZM19.9463 46.4631C19.9463 46.3067 21.8855 45.2891 24.2557 44.2018C26.6258 43.1145 30.7416 40.7437 33.4019 38.9334C36.0622 37.1231 38.2387 36.0212 38.2387 36.4847C38.2387 37.3383 28.8364 43.6957 25.9112 44.8193C23.1792 45.8692 19.9463 46.7603 19.9463 46.4631ZM20.7416 42.1388C20.7416 41.7345 22.0837 40.96 23.7241 40.4176C25.3644 39.8752 28.2585 38.5633 30.1553 37.5023C32.0521 36.4413 33.7594 35.7289 33.9492 35.9191C34.7529 36.7244 23.692 42.8739 21.4396 42.8739C21.0556 42.8739 20.7416 42.5432 20.7416 42.1388ZM82.5811 38.8256C74.1992 38.1038 75.5879 37.6218 85.9413 37.6593C91.1459 37.6782 95.1575 37.9259 94.8569 38.2098C93.9744 39.0417 88.3613 39.3233 82.5811 38.8256ZM203.12 38.974C196.274 38.1141 197.575 37.492 205.434 37.8675C211.499 38.1572 213.652 37.9243 217.518 36.5601C223.093 34.5927 224.484 35.0162 219.488 37.1599C215.299 38.9574 208.758 39.6822 203.12 38.974ZM20.7369 38.4639C20.7369 37.7971 32.6691 32.2631 33.124 32.7189C33.3427 32.9381 30.7868 34.4188 27.4442 36.0095C21.0591 39.0481 20.7369 39.1662 20.7369 38.4639ZM112.597 38.1372C111.722 37.7796 115.48 37.6734 120.947 37.9011C126.415 38.1288 131.038 38.4465 131.221 38.6071C131.903 39.2089 114.121 38.7602 112.597 38.1372ZM177.599 37.5246C176.169 37.3472 175.199 36.8784 175.443 36.4828C175.687 36.0872 176.857 35.949 178.043 36.1756C179.229 36.4022 183.062 36.8806 186.561 37.2389L192.924 37.8902L186.561 37.8687C183.062 37.8568 179.029 37.702 177.599 37.5246ZM139.606 36.458C138.569 34.7763 151.502 33.8625 156.737 35.2476L161.111 36.405L154.749 36.0233C151.249 35.8133 146.496 35.9641 144.187 36.3582C141.877 36.7524 139.816 36.7973 139.606 36.458ZM52.5505 35.7168C47.2774 35.2661 47.7385 35.2013 56.5271 35.1577C62.5563 35.1278 65.5294 35.3478 64.0827 35.7168C61.354 36.4125 60.6912 36.4125 52.5505 35.7168ZM84.2274 35.784C80.8721 35.5279 77.83 34.9922 77.4672 34.5936C77.0799 34.1681 77.409 34.0859 78.2644 34.3944C79.0657 34.6834 83.0025 34.945 87.0129 34.9759C91.8269 35.0128 93.7641 35.2646 92.714 35.7168C91.8391 36.0935 90.9444 36.3675 90.7257 36.3257C90.5069 36.284 87.5827 36.0402 84.2274 35.784ZM117.369 35.92C112.385 35.6427 109.814 35.0745 109.814 34.2505C109.814 33.8991 111.693 33.8798 113.989 34.2075C116.286 34.5352 120.282 34.8296 122.87 34.8616C125.459 34.8936 127.427 35.0483 127.245 35.2054C126.606 35.7559 121.309 36.1392 117.369 35.92ZM200.878 35.7608C199.112 35.3431 200.352 35.0678 205.65 34.7011C209.587 34.4286 214.239 34.0097 215.989 33.7702L219.17 33.3348L215.194 34.8624C211.159 36.4127 205.212 36.786 200.878 35.7608ZM177.615 35.1332C175.756 34.9655 174.235 34.4438 174.235 33.9741C174.235 33.3911 175.812 33.3185 179.205 33.7453C181.939 34.0892 185.521 34.4371 187.164 34.5183C188.808 34.5995 190.389 34.9024 190.677 35.1914C191.209 35.7241 183.795 35.6911 177.615 35.1332ZM20.4275 32.8619C19.743 31.0745 20.647 29.8697 21.8943 30.907C22.6118 31.5038 23.887 31.3996 26.2978 30.5472C28.1641 29.8874 30.4515 29.3758 31.3807 29.4105C32.5304 29.4533 32.689 29.6118 31.8772 29.9066C31.221 30.1449 28.9547 31.1925 26.841 32.2346C22.3259 34.4606 21.0861 34.5818 20.4275 32.8619ZM50.567 32.5353C48.4777 31.6356 56.3196 31.6059 61.3038 32.4947C64.5136 33.067 64.2265 33.1373 58.5202 33.1766C55.0208 33.2006 51.4418 32.912 50.567 32.5353ZM82.1961 32.5832C80.3452 32.281 78.5557 31.7364 78.2195 31.373C77.8833 31.0097 78.8162 30.9433 80.2925 31.2254C81.7687 31.5075 84.3846 31.7384 86.1055 31.7384C87.9888 31.7384 89.0386 32.0556 88.7427 32.5353C88.2064 33.405 87.2704 33.4118 82.1961 32.5832ZM201.28 32.5808C199.816 32.0778 200.892 31.8764 205.356 31.8179C208.691 31.7743 212.628 31.5496 214.104 31.3187C216.386 30.9619 216.518 31.0185 214.986 31.6964C212.432 32.8264 203.644 33.3934 201.28 32.5808ZM112.999 31.7347C112.203 31.2168 113.924 31.1252 118.169 31.4596C121.668 31.7354 124.68 32.0902 124.863 32.2482C125.655 32.9353 114.073 32.434 112.999 31.7347ZM144.224 31.7363C146.344 31.0974 158.316 31.4558 159.039 32.1798C159.234 32.3752 155.486 32.5043 150.711 32.4667C144.779 32.4199 142.724 32.1885 144.224 31.7363ZM176.625 31.5633C172.392 30.3041 175.227 29.8756 181.059 30.8932C183.902 31.3894 186.5 31.6268 186.833 31.4208C187.165 31.2149 187.957 31.3759 188.592 31.7786C190.21 32.8037 180.189 32.6234 176.625 31.5633ZM224.106 29.3762C225.105 28.2073 225.707 28.0303 226.484 28.6768C228.184 30.0901 227.681 30.9412 225.147 30.9412C222.86 30.9412 222.82 30.8815 224.106 29.3762ZM52.1576 29.3473C51.0046 28.8508 51.7704 28.6503 54.9413 28.6186C57.3471 28.5945 59.8524 28.9224 60.5085 29.3473C62.0428 30.3408 54.4649 30.3408 52.1576 29.3473ZM82.0935 28.4331C80.6239 28.0093 79.5503 27.5449 79.7076 27.4012C80.1009 27.0419 90.1223 28.4725 90.6059 28.957C91.2799 29.6323 84.8881 29.239 82.0935 28.4331ZM113.397 28.5348C112.387 28.0898 113.548 28.0053 116.579 28.303C119.203 28.5608 121.5 28.9013 121.682 29.0596C122.387 29.6716 114.902 29.1975 113.397 28.5348ZM144.415 28.5503C144.989 27.6195 153.842 27.6195 156.742 28.5503C158.067 28.9753 156.258 29.215 151.327 29.2679C146.575 29.3189 144.099 29.0619 144.415 28.5503ZM178.017 28.3888C176.377 27.9522 175.035 27.3331 175.035 27.0129C175.035 26.4535 180.688 27.1374 187.362 28.5044C190.395 29.1254 190.321 29.1565 185.772 29.1692C183.147 29.1764 179.658 28.8254 178.017 28.3888ZM200.883 28.5503C201.153 28.112 204.306 27.7589 207.889 27.7656C212.389 27.774 214.034 28.0167 213.21 28.5503C211.594 29.597 200.237 29.597 200.883 28.5503ZM24.894 26.8333C25.09 26.2435 25.8882 25.637 26.6678 25.4856C27.5745 25.3095 27.9569 25.5967 27.729 26.2826C27.533 26.8724 26.7348 27.4788 25.9552 27.6303C25.0485 27.8064 24.6662 27.5192 24.894 26.8333ZM55.1329 25.6118C55.8933 25.4124 57.3249 25.4052 58.3142 25.5958C59.3035 25.7864 58.6814 25.9496 56.9317 25.9584C55.182 25.9673 54.3726 25.8113 55.1329 25.6118ZM117.376 25.3625C115.967 24.7555 116.035 24.6712 117.973 24.6215C119.176 24.5908 120.16 24.9241 120.16 25.3625C120.16 26.2979 119.549 26.2979 117.376 25.3625ZM147.996 25.3625C146.41 24.8534 146.812 24.7108 149.985 24.6572C152.172 24.6202 154.498 24.9376 155.154 25.3625C156.641 26.3254 150.997 26.3254 147.996 25.3625ZM81.9846 24.5655C81.0482 23.9591 81.2192 23.8106 82.7799 23.8751C83.8735 23.9202 85.8419 24.2309 87.1542 24.5655C89.4526 25.1516 89.4234 25.1769 86.3589 25.256C84.6092 25.3011 82.6407 24.9904 81.9846 24.5655ZM179.014 24.5655C178.098 23.9728 178.376 23.7929 180.207 23.7929C181.519 23.7929 183.13 24.1406 183.786 24.5655C184.701 25.1583 184.423 25.3381 182.593 25.3381C181.28 25.3381 179.67 24.9904 179.014 24.5655ZM32.8973 24.0714C33.1616 23.8066 33.8476 23.7783 34.4217 24.0084C35.0562 24.2628 34.8677 24.4517 33.9412 24.4899C33.1028 24.5245 32.633 24.3362 32.8973 24.0714ZM227.139 23.7606C226.868 23.3222 227.205 22.9636 227.887 22.9636C228.569 22.9636 229.127 23.3222 229.127 23.7606C229.127 24.1989 228.79 24.5575 228.379 24.5575C227.967 24.5575 227.409 24.1989 227.139 23.7606ZM20.3551 21.3697C20.0848 20.9314 20.2426 20.5727 20.7058 20.5727C21.1691 20.5727 21.5481 20.9314 21.5481 21.3697C21.5481 21.808 21.3903 22.1666 21.1974 22.1666C21.0045 22.1666 20.6254 21.808 20.3551 21.3697ZM224.355 20.6604C224.355 20.2221 224.713 19.6418 225.15 19.3709C225.588 19.1 225.946 19.237 225.946 19.6753C225.946 20.1136 225.588 20.6939 225.15 20.9648C224.713 21.2357 224.355 21.0987 224.355 20.6604ZM122.952 47.6631C123.222 47.2248 122.885 46.8662 122.203 46.8662C121.521 46.8662 120.963 47.2248 120.963 47.6631C120.963 48.1014 121.3 48.4601 121.712 48.4601C122.123 48.4601 122.681 48.1014 122.952 47.6631ZM156.753 46.8662C156.753 46.4278 155.858 46.0692 154.764 46.0692C153.671 46.0692 152.776 46.4278 152.776 46.8662C152.776 47.3045 153.671 47.6631 154.764 47.6631C155.858 47.6631 156.753 47.3045 156.753 46.8662ZM221.174 46.0101C222.635 45.1399 217.546 45.9853 215.209 47.001C214.152 47.4602 214.686 47.5291 216.8 47.2064C218.549 46.9392 220.518 46.4008 221.174 46.0101ZM61.3142 46.0222C61.3142 45.558 60.9563 45.3998 60.5189 45.6707C60.0814 45.9416 59.7235 46.3214 59.7235 46.5147C59.7235 46.708 60.0814 46.8662 60.5189 46.8662C60.9563 46.8662 61.3142 46.4864 61.3142 46.0222ZM183.945 46.3217C183.371 46.0915 182.685 46.1198 182.42 46.3846C182.156 46.6495 182.626 46.8378 183.464 46.8032C184.391 46.765 184.579 46.5762 183.945 46.3217ZM124.544 45.2722C125.723 44.7646 125.105 44.576 122.158 44.5435C119.312 44.5122 118.52 44.7193 119.374 45.2722C120.803 46.1976 122.395 46.1976 124.544 45.2722ZM177.582 45.5248C177.008 45.2946 176.322 45.3229 176.058 45.5877C175.794 45.8525 176.263 46.0409 177.102 46.0062C178.028 45.968 178.217 45.7792 177.582 45.5248ZM85.9055 44.9882C85.0109 44.2215 80.4045 43.8087 80.4045 44.4952C80.4045 44.9226 81.7168 45.2722 83.3207 45.2722C84.9246 45.2722 86.0878 45.1444 85.9055 44.9882ZM94.2341 44.6195C94.4556 44.2604 93.5819 44.1218 92.2928 44.3114C91.0035 44.501 89.9488 44.7948 89.9488 44.9642C89.9488 45.5715 93.84 45.2584 94.2341 44.6195ZM115.399 44.4753C112.543 43.5588 111.255 43.5588 111.82 44.4753C112.091 44.9136 113.454 45.2365 114.85 45.1928C117.273 45.1169 117.298 45.0846 115.399 44.4753ZM158.744 44.4753C158.474 44.0369 157.29 43.7141 156.113 43.7578L153.972 43.8372L155.961 44.4753C158.784 45.3812 159.303 45.3812 158.744 44.4753ZM219.842 44.0022C221.887 43.3037 223.755 42.4179 223.992 42.0338C224.229 41.6496 222.887 41.9042 221.011 42.5994C219.134 43.2946 215.362 43.9114 212.628 43.9701C209.894 44.0287 207.657 44.3458 207.657 44.6745C207.657 45.7593 216.052 45.2961 219.842 44.0022ZM61.3182 43.6783C60.2246 43.3274 58.2562 43.0402 56.9439 43.0402C54.6239 43.0402 54.613 43.0578 56.5462 43.6783C57.6398 44.0292 59.6082 44.3164 60.9205 44.3164C63.2404 44.3164 63.2514 44.2987 61.3182 43.6783ZM186.979 43.6783C186.979 43.24 186.463 42.8813 185.833 42.8813C185.203 42.8813 184.466 43.24 184.195 43.6783C183.925 44.1166 184.441 44.4753 185.341 44.4753C186.242 44.4753 186.979 44.1166 186.979 43.6783ZM129.716 42.0548C130.536 41.5036 128.918 41.4163 124.546 41.7759C121.047 42.0637 118.035 42.4301 117.852 42.5902C117.048 43.2969 128.647 42.7734 129.716 42.0548ZM63.5053 41.535C62.7398 41.3346 61.4872 41.3346 60.7217 41.535C59.9562 41.7355 60.5825 41.8995 62.1135 41.8995C63.6445 41.8995 64.2708 41.7355 63.5053 41.535ZM154.991 41.5051C153.362 41.3338 150.499 41.3314 148.629 41.4995C146.758 41.6678 148.091 41.808 151.59 41.8109C155.089 41.814 156.62 41.6763 154.991 41.5051ZM190.957 41.4867C190.957 41.1579 188.004 40.8651 184.396 40.836C179.983 40.8004 178.747 40.9618 180.619 41.3289C184.553 42.1001 190.958 42.1979 190.957 41.4867ZM53.1597 40.7295C52.3942 40.5291 51.1416 40.5291 50.3761 40.7295C49.6106 40.93 50.2369 41.094 51.7679 41.094C53.2989 41.094 53.9252 40.93 53.1597 40.7295ZM123.868 166.602C123.665 166.273 125.782 165.907 128.573 165.788C131.363 165.669 135.494 165.221 137.752 164.792C140.009 164.363 143.15 164.012 144.731 164.011C146.311 164.011 151.294 163.097 155.803 161.982L164.002 159.953L168.529 162.076C171.644 163.537 174.908 164.331 178.998 164.62C183.672 164.951 184.533 165.192 183.031 165.749C180.451 166.706 175.035 165.893 168.111 163.511C164.076 162.123 161.95 161.758 160.953 162.28C157.108 164.297 137.878 166.906 124.787 167.188C124.485 167.194 124.071 166.931 123.869 166.602H123.868ZM85.9668 165.606C85.9668 165.167 86.1246 164.809 86.3175 164.809C86.5104 164.809 86.8894 165.167 87.1597 165.606C87.4301 166.044 87.2722 166.403 86.809 166.403C86.3458 166.403 85.9668 166.044 85.9668 165.606ZM185.382 160.027C183.9 158.866 183.723 158.464 184.686 158.451C187.648 158.41 190.949 159.504 190.949 160.525C190.949 162.126 187.688 161.835 185.382 160.027ZM176.832 158.654C175.411 158.477 174.247 158.007 174.247 157.611C174.247 157.214 174.784 157.096 175.44 157.348C177.07 157.975 176.946 156.854 175.242 155.558C174.006 154.618 173.995 154.496 175.144 154.474C175.856 154.46 176.884 154.986 177.429 155.644C177.973 156.301 178.873 156.839 179.429 156.839C179.985 156.839 180.646 157.377 180.898 158.035C181.159 158.718 180.94 159.176 180.386 159.103C179.853 159.032 178.254 158.83 176.832 158.654ZM117.2 157.155C117.464 156.89 118.15 156.862 118.724 157.092C119.359 157.346 119.17 157.535 118.244 157.573C117.405 157.608 116.936 157.419 117.2 157.155ZM182.201 156.109C182.201 155.1 183.78 154.667 185.948 155.083C188.764 155.622 188.096 156.839 184.984 156.839C183.453 156.839 182.201 156.51 182.201 156.109ZM60.8982 155.208C60.5629 154.664 61.1625 154.566 62.6408 154.922C65.688 155.655 65.9764 156.037 63.4834 156.037C62.3428 156.037 61.1794 155.664 60.8982 155.208ZM191.745 154.443C192.401 154.018 193.832 153.671 194.926 153.671C196.5 153.671 196.666 153.832 195.721 154.443C195.065 154.868 193.633 155.216 192.54 155.216C190.966 155.216 190.8 155.055 191.745 154.443ZM118.774 153.894C119.539 153.693 120.792 153.693 121.557 153.894C122.323 154.094 121.697 154.258 120.166 154.258C118.635 154.258 118.008 154.094 118.774 153.894ZM141.44 153.118C141.987 152.897 142.882 152.897 143.429 153.118C143.976 153.339 143.528 153.52 142.435 153.52C141.341 153.52 140.894 153.339 141.44 153.118ZM67.0779 152.3C67.8434 152.099 69.096 152.099 69.8615 152.3C70.627 152.5 70.0007 152.664 68.4697 152.664C66.9387 152.664 66.3124 152.5 67.0779 152.3ZM94.5014 152.326C95.0398 152.108 96.1135 152.095 96.8873 152.297C97.6611 152.499 97.2206 152.678 95.9083 152.694C94.596 152.71 93.9628 152.545 94.5014 152.326ZM62.3226 151.571C62.5869 151.306 63.2729 151.278 63.847 151.508C64.4815 151.762 64.293 151.951 63.3665 151.989C62.5281 152.024 62.0584 151.836 62.3226 151.571ZM164.307 151.255C164.036 150.817 164.194 150.458 164.657 150.458C165.121 150.458 165.5 150.817 165.5 151.255C165.5 151.694 165.342 152.052 165.149 152.052C164.956 152.052 164.577 151.694 164.307 151.255ZM116.985 150.944C116.985 150.773 118.238 150.486 119.769 150.307C121.3 150.128 122.552 150.268 122.552 150.618C122.552 150.969 121.3 151.255 119.769 151.255C118.238 151.255 116.985 151.115 116.985 150.944ZM167.687 150.727C168.234 150.506 169.128 150.506 169.675 150.727C170.222 150.949 169.775 151.129 168.681 151.129C167.587 151.129 167.14 150.949 167.687 150.727ZM189.001 150.515C190.172 149.368 194.131 148.576 194.131 149.49C194.131 150.454 192.226 151.255 189.931 151.255C188.881 151.255 188.531 150.976 189.001 150.515ZM64.8915 148.864C63.6124 148.314 63.846 148.187 66.0845 148.218C67.6155 148.239 69.9418 148.53 71.2541 148.864C73.4082 149.414 73.2923 149.476 70.0611 149.511C68.0927 149.532 65.7664 149.241 64.8915 148.864ZM91.5348 148.847C90.7182 148.306 91.8472 148.219 95.1138 148.571C97.7383 148.854 100.035 149.215 100.217 149.373C101.015 150.067 92.6071 149.557 91.5348 148.847ZM138.669 149.089C139.878 148.906 141.667 148.911 142.645 149.1C143.624 149.289 142.634 149.439 140.447 149.433C138.26 149.427 137.46 149.273 138.669 149.089ZM116.587 147.27C116.007 146.33 117.769 146.316 122.155 147.225L125.336 147.884L121.207 147.976C118.937 148.026 116.858 147.709 116.587 147.27ZM35.4646 145.796C34.1523 144.984 32.3629 143.498 31.488 142.495C29.8974 140.671 29.8974 140.671 31.488 141.565C33.3437 142.607 38.8332 147.227 38.2483 147.254C38.0295 147.264 36.7769 146.608 35.4646 145.796ZM161.921 146.883C163.973 146.188 170.272 145.959 170.272 146.58C170.272 146.964 168.214 147.25 165.699 147.216C163.183 147.181 161.483 147.032 161.921 146.883ZM190.37 146.797C190.635 146.532 191.32 146.504 191.895 146.734C192.529 146.989 192.341 147.178 191.414 147.216C190.576 147.251 190.106 147.062 190.37 146.797ZM194.938 146.489C194.32 146.106 194.902 145.572 196.57 144.989C199.253 144.052 200.196 144.234 199.393 145.536C198.726 146.617 196.065 147.187 194.938 146.489ZM92.3417 145.692C89.0501 145.179 89.2219 145.125 94.4819 145.015C97.6274 144.949 100.422 145.254 100.693 145.692C101.237 146.575 98.0117 146.575 92.3417 145.692ZM140.271 145.917C141.48 145.734 143.269 145.739 144.248 145.928C145.226 146.117 144.237 146.267 142.049 146.261C139.862 146.255 139.062 146.1 140.271 145.917ZM62.3183 144.87C61.3341 144.474 60.5288 144.031 60.5288 143.886C60.5288 143.497 74.3101 144.891 74.7412 145.323C75.4256 146.009 64.1221 145.597 62.3183 144.87ZM118.587 144.098L114.213 143.561L119.581 143.431C122.717 143.355 124.95 143.633 124.95 144.098C124.95 144.536 124.502 144.836 123.956 144.765C123.409 144.694 120.993 144.393 118.587 144.098ZM37.2497 142.074C33.8478 139.757 33.1609 138.408 36.4686 140.539C40.82 143.343 41.7794 144.095 41.0056 144.095C40.5724 144.095 38.8823 143.185 37.2497 142.074ZM163.921 143.298C165.014 142.947 167.877 142.672 170.283 142.687L174.657 142.714L170.681 143.334C168.494 143.676 165.631 143.951 164.318 143.945C161.996 143.936 161.985 143.919 163.921 143.298ZM92.3417 142.501C89.7495 141.954 89.8316 141.913 93.5346 141.903C95.7218 141.898 98.5849 142.166 99.8972 142.501C102.024 143.043 101.895 143.108 98.7042 143.099C96.7358 143.093 93.8727 142.824 92.3417 142.501ZM136.884 142.7C136.892 141.762 146.234 141.549 146.804 142.475C147.134 143.009 145.482 143.298 142.096 143.298C139.227 143.298 136.882 143.029 136.884 142.7ZM192.95 142.554C193.825 142.2 195.793 141.688 197.324 141.416L200.108 140.921L197.324 142.049C195.793 142.669 193.825 143.181 192.95 143.187C191.359 143.197 191.359 143.197 192.95 142.554ZM67.6867 141.704L64.1077 141.146L67.289 141.073C69.0387 141.032 71.9019 141.296 73.6516 141.658L76.8329 142.318L74.0493 142.29C72.5183 142.274 69.6551 142.011 67.6867 141.704ZM61.5395 140.425C61.8038 140.161 62.4897 140.132 63.0639 140.363C63.6983 140.617 63.5099 140.806 62.5834 140.844C61.7449 140.879 61.2752 140.69 61.5395 140.425ZM116.201 140.458C118.878 139.864 128.782 139.708 127.895 140.273C127.368 140.608 124.254 140.846 120.973 140.802C117.692 140.758 115.545 140.603 116.201 140.458ZM159.7 140.359C159.451 139.956 160.538 139.589 162.115 139.545C163.693 139.5 166.981 139.24 169.422 138.968C172.337 138.642 173.449 138.73 172.66 139.224C170.932 140.306 160.244 141.242 159.7 140.359ZM37.4587 137.817C33.958 135.613 31.116 132.928 32.2841 132.928C32.8083 132.928 39.8696 137.765 41.7929 139.442C43.5187 140.946 40.825 139.936 37.4587 137.817ZM94.5437 139.516C96.4143 139.347 99.2775 139.35 100.906 139.521C102.535 139.693 101.005 139.83 97.5052 139.828C94.0058 139.824 92.6731 139.684 94.5437 139.516ZM139.877 139.516C141.748 139.347 144.611 139.35 146.24 139.521C147.868 139.693 146.338 139.83 142.839 139.828C139.339 139.824 138.006 139.684 139.877 139.516ZM66.0903 138.506L64.102 137.868L66.2892 137.789C67.4921 137.745 68.4763 138.068 68.4763 138.506C68.4763 138.945 68.3868 139.268 68.2775 139.224C68.1681 139.18 67.1839 138.857 66.0903 138.506ZM75.4354 138.776C75.9821 138.555 76.8769 138.555 77.4237 138.776C77.9704 138.997 77.5231 139.178 76.4295 139.178C75.3359 139.178 74.8886 138.997 75.4354 138.776ZM194.94 138.622C194.944 138.339 197.001 137.433 199.513 136.608C202.025 135.783 204.618 134.908 205.274 134.665C206.268 134.297 206.297 134.433 205.448 135.48C204.888 136.171 203.636 136.93 202.665 137.167C201.694 137.405 199.557 137.945 197.917 138.367C196.277 138.79 194.937 138.904 194.94 138.622ZM115.582 138.062C115.826 137.817 119.375 137.504 123.469 137.367C127.754 137.224 130.068 137.379 128.923 137.733C126.633 138.441 114.914 138.73 115.582 138.062ZM40.5995 135.456C35.9949 132.519 33.4391 129.624 37.6487 132.113C39.2259 133.045 40.9465 134.328 41.4722 134.962C41.9979 135.597 42.8999 136.116 43.4766 136.116C44.0534 136.116 44.7464 136.475 45.0168 136.913C45.8825 138.317 44.2326 137.772 40.5995 135.456ZM89.9524 136.918C88.8562 136.568 91.5327 136.475 95.9173 136.71C100.292 136.944 104.02 137.265 104.202 137.423C104.862 137.995 91.8906 137.535 89.9524 136.918ZM138.069 136.895C134.993 136.486 136.058 136.338 142.775 136.242C147.55 136.173 151.308 136.251 151.126 136.417C150.397 137.077 141.807 137.392 138.069 136.895ZM169.485 135.689C175.961 134.351 176.875 134.363 173.859 135.747C172.547 136.349 169.862 136.822 167.894 136.799C164.392 136.758 164.426 136.734 169.485 135.689ZM191.198 136.407C191.547 136.057 194.589 134.836 197.957 133.692C201.325 132.549 204.797 131.319 205.672 130.958C206.731 130.522 206.997 130.569 206.467 131.099C205.551 132.015 196.479 135.618 192.948 136.469C191.637 136.785 190.849 136.757 191.198 136.407ZM63.7163 135.379C62.6227 135.063 65.6648 134.946 70.4765 135.12C75.2882 135.293 79.583 135.56 80.0204 135.712C81.6115 136.264 65.6481 135.938 63.7163 135.379ZM42.7421 132.827C40.6796 131.458 39.1383 130.192 39.3169 130.013C39.4956 129.834 41.5609 130.954 43.9066 132.502C46.2522 134.05 47.7935 135.316 47.3317 135.316C46.8699 135.316 44.8046 134.196 42.7421 132.827ZM157.165 133.784C156.035 133.267 157.073 133.093 160.744 133.184C163.587 133.254 167.703 133.04 169.89 132.708C172.939 132.245 173.42 132.298 171.952 132.934C169.3 134.083 159.099 134.67 157.165 133.784ZM187.293 133.949C187.839 133.403 194.53 131.44 196.096 131.367C198.019 131.277 194.991 132.794 191.608 133.614C187.256 134.67 186.517 134.727 187.293 133.949ZM47.3327 132.077C45.1022 131.217 41.8811 129.238 40.1748 127.68C36.9229 124.71 37.7796 124.784 41.8442 127.823C43.1565 128.804 46.1986 130.504 48.6045 131.6C53.8286 133.98 53.0382 134.276 47.3327 132.077ZM187.142 130.916C187.442 130.616 190.483 129.557 193.901 128.564C197.319 127.57 200.831 126.507 201.706 126.2C202.753 125.833 202.618 126.06 201.308 126.865C198.608 128.524 185.904 132.157 187.142 130.916ZM201.18 129.61C203.079 128.736 204.834 128.224 205.08 128.471C205.606 128.997 200.244 131.363 198.749 131.265C198.188 131.228 199.282 130.483 201.18 129.61ZM196.185 9.81799C197.034 9.17443 198.147 8.63649 198.657 8.62254C199.167 8.60859 199.765 8.1489 199.986 7.60099C200.276 6.87948 200.404 6.86701 200.45 7.5558C200.526 8.70399 197.437 10.9881 195.809 10.9881C194.953 10.9881 195.053 10.676 196.185 9.81799Z" fill="#0E6F3B"/>
</g>
<defs>
<clipPath id="clip0_220_558">
<rect width="238" height="168" fill="white"/>
</clipPath>
</defs>
</svg>
