<svg width="794" height="557" viewBox="0 0 794 557" fill="none" xmlns="http://www.w3.org/2000/svg">
<path fill-rule="evenodd" clip-rule="evenodd" d="M650.994 145.215C643.142 136.575 632.962 127.074 605.457 124.749C577.953 122.436 484.442 121.607 456.153 125.94C427.864 130.28 344.572 153.836 329.627 160.105C314.695 166.387 302.122 171.096 292.701 170.312C283.267 169.529 221.191 179.73 194.471 187.579C167.751 195.429 148.111 204.063 141.044 210.352C133.963 216.628 121.391 231.537 119.031 237.82C116.671 244.102 115.893 251.952 119.031 255.086C122.169 258.221 125.327 260.585 129.249 266.861C133.172 273.137 157.539 310.035 170.117 327.302C182.696 344.569 218.053 390.094 243.191 403.443C268.341 416.791 317.353 441.124 392.255 428.566C467.15 416.008 540.23 364.2 561.458 339.867C582.667 315.527 629.817 251.168 640.82 226.828C651.824 202.495 655.513 178.369 657.867 168.156C660.175 157.955 650.955 145.215 650.955 145.215H650.994Z" fill="#EA5050"/>
<path fill-rule="evenodd" clip-rule="evenodd" d="M632.923 150.306C632.923 150.306 575.482 158 550.669 162.663C525.861 167.34 457.08 170.008 439.71 182.223C422.346 194.445 361.028 216.945 339.093 224.011C317.146 231.084 262.707 230.06 233.426 231.699C204.158 233.344 186.431 233.752 163.724 234.678C141.031 235.617 130.229 226.608 147.249 239.361C164.282 252.12 176.653 246.401 184.382 272.341C192.104 298.267 179.863 307.315 223.421 321.493C266.973 335.67 316.465 360.683 382.86 348.915C449.254 337.14 496.924 299.666 515.87 291.991C534.816 284.303 561.348 274.614 582.316 255.954C603.298 237.295 622.413 219.005 634.92 188.894C647.44 158.764 638.726 153.479 632.923 150.306Z" fill="#0E6F3B" stroke="#0E6F3B" stroke-width="3" stroke-miterlimit="10" stroke-linecap="round" stroke-linejoin="round"/>
<path d="M618.531 151.016C618.535 151.006 618.539 150.996 618.543 150.985C617.755 151.156 616.501 151.434 614.846 151.799C611.857 152.46 607.561 153.409 602.335 154.545C592.543 156.674 579.513 159.451 565.798 162.188C552.083 164.925 537.678 167.621 525.136 169.588C512.608 171.553 501.898 172.797 495.593 172.613C483.152 172.252 468.482 174.5 454.758 178.329C441.031 182.159 428.294 187.558 419.706 193.471L419.422 193.059L419.706 193.471C402.353 205.416 370.089 220.58 347.387 223.884L346.178 224.06C323.943 227.298 300.704 230.682 270.551 231.007C255.236 231.169 243.968 231.939 233.187 232.764C231.973 232.857 230.765 232.951 229.558 233.044C220.046 233.782 210.595 234.515 198.732 234.854C187.587 235.174 182.866 235.741 179.503 236.153L179.396 236.166C176.063 236.575 173.997 236.828 168.296 236.531C164.617 236.343 161.33 236.434 158.712 236.695C156.074 236.958 154.17 237.387 153.218 237.845C152.984 237.958 152.836 238.059 152.752 238.14C152.73 238.161 152.715 238.178 152.705 238.191C152.712 238.199 152.721 238.209 152.733 238.221C152.808 238.295 152.955 238.398 153.211 238.514C154.251 238.989 156.521 239.455 160.374 239.769C164.26 240.085 166.759 240.752 168.816 241.822C170.712 242.807 172.206 244.124 174.031 245.733C174.173 245.858 174.317 245.985 174.463 246.114C178.516 249.677 184.628 254.833 200.539 261.798C232.416 275.753 250.006 280.821 289.076 282.767C328.193 284.709 350.893 284.255 387.918 276.514C424.96 268.76 486.855 245.824 535.804 223.872C560.301 212.887 570.746 207.916 577.197 203.578C581.653 200.582 584.186 197.906 588.153 193.713C589.92 191.845 591.973 189.677 594.607 187.044C603.055 178.602 609.125 169.371 613.084 162.246C615.063 158.684 616.512 155.652 617.467 153.512C617.944 152.441 618.297 151.595 618.531 151.016Z" fill="#8FD192" stroke="#0E6F3B"/>
<path d="M393.09 372.562L393.267 372.712V372.944V376.962L399.853 374.797V369.233L392.829 365.779L388.811 368.936L393.09 372.562Z" fill="#D9D9D9" stroke="#0E6F3B"/>
<path d="M376.05 371.714C376.071 371.768 376.09 371.826 376.108 371.888C376.289 372.524 376.252 373.514 375.678 375.09L375.678 375.091C375.095 376.685 374.384 377.481 373.741 377.86C373.507 377.999 373.289 378.077 373.102 378.118V379.932C373.316 379.94 373.598 379.951 373.936 379.962C374.764 379.99 375.934 380.023 377.301 380.045C379.97 380.089 383.384 380.089 386.468 379.925C387.078 379.084 387.22 378.097 387.054 377.034C386.876 375.887 386.34 374.683 385.682 373.57C385.027 372.461 384.268 371.472 383.669 370.757C383.37 370.4 383.113 370.113 382.932 369.917C382.902 369.884 382.874 369.854 382.848 369.827L376.05 371.714Z" fill="#D9D9D9" stroke="#0E6F3B"/>
<path d="M325.206 371.836C325.345 371.811 325.517 371.782 325.718 371.75C326.294 371.659 327.104 371.551 328.041 371.478C329.924 371.333 332.268 371.338 334.228 371.902C336.385 372.526 338.886 372.209 341.164 371.918L341.246 371.907C342.374 371.763 343.451 371.625 344.452 371.59C345.478 371.554 346.383 371.629 347.144 371.894C348.962 372.528 350.473 372.304 351.755 372.051C351.874 372.027 351.99 372.004 352.103 371.981C353.246 371.751 354.11 371.577 354.977 371.892L354.979 371.893C355.996 372.256 357.051 373.071 357.875 373.833C358.281 374.209 358.62 374.56 358.857 374.818C358.976 374.947 359.068 375.051 359.131 375.123C359.162 375.159 359.186 375.187 359.201 375.206L359.219 375.226L359.223 375.231L359.223 375.232L359.223 375.232L359.223 375.232L359.223 375.232L359.806 375.936L360.085 375.065L361.089 371.922L367.873 371.928C367.936 372.039 368.017 372.184 368.11 372.353C368.332 372.76 368.615 373.304 368.862 373.859C369.113 374.421 369.314 374.962 369.39 375.372C369.428 375.579 369.426 375.709 369.412 375.777C369.059 375.933 368.694 376.227 368.347 376.545C368.007 376.856 367.638 377.232 367.262 377.617C367.226 377.654 367.19 377.691 367.153 377.728C366.306 378.593 365.424 379.473 364.569 379.973L325.206 371.836ZM325.206 371.836V381.771M325.206 371.836V381.771M325.206 381.771C325.3 381.777 325.408 381.784 325.526 381.791C326.011 381.819 326.68 381.854 327.417 381.877C328.907 381.923 330.624 381.92 331.678 381.745L331.679 381.745C332.857 381.55 334.583 381.553 336.336 381.799C338.086 382.044 339.923 382.537 341.301 383.363C342.439 384.034 343.766 383.957 345.19 383.701C345.511 383.643 345.83 383.578 346.15 383.513C346.182 383.506 346.213 383.5 346.244 383.494C346.594 383.422 346.945 383.352 347.288 383.295C347.968 383.182 348.659 383.115 349.297 383.221C350.307 383.389 351.896 383.226 353.575 382.706C355.246 382.188 356.939 381.337 358.171 380.189C358.888 379.52 359.593 379.218 360.291 379.166C360.973 379.115 361.592 379.308 362.122 379.516C362.312 379.591 362.485 379.664 362.646 379.733C362.968 379.869 363.248 379.988 363.54 380.064C363.937 380.167 364.255 380.157 364.569 379.974L325.206 381.771Z" fill="#D9D9D9" stroke="#0E6F3B"/>
<path d="M313.303 379.267L314.814 371.928H311.856V377.476L313.303 379.267Z" fill="#D9D9D9" stroke="#0E6F3B"/>
<path d="M407.317 362.949L404.443 365.307L407.164 369.957L410.187 365.295L407.317 362.949Z" fill="#D9D9D9" stroke="#0E6F3B"/>
<path d="M363.33 218.85L363.271 218.881L363.23 219.018L362.954 219.958C362.718 220.76 362.386 221.887 362.002 223.184C361.236 225.78 360.263 229.063 359.439 231.81L359.439 231.811C357.8 237.228 356.698 246.505 356.698 258.014C356.698 268.387 360.746 282.813 362.746 289.943C362.953 290.678 363.137 291.336 363.294 291.904L363.294 291.905C364.904 297.813 369.212 302.645 372.855 304.785C374.614 305.809 376.033 305.943 378.143 305.744C378.849 305.677 379.649 305.569 380.568 305.446C382.375 305.203 384.644 304.897 387.574 304.718C387.799 304.703 388.019 304.69 388.234 304.676C392.283 304.423 394.77 304.268 398.203 303.685C401.826 303.069 406.505 301.976 415.156 299.784C432.393 295.415 438.823 289.982 442.025 283.051L442.025 283.05C445.305 275.977 447.453 266.22 445.302 258.143C443.526 251.514 440.322 244.153 436.534 235.451C435.648 233.416 434.73 231.307 433.791 229.118C431.368 223.467 425.6 217.698 420.374 213.31C417.771 211.125 415.321 209.297 413.521 208.016C412.622 207.376 411.885 206.872 411.374 206.53C411.119 206.358 410.92 206.227 410.785 206.138C410.741 206.109 410.703 206.085 410.673 206.065L410.673 206.065C410.6 206.056 410.492 206.042 410.352 206.025C410.07 205.99 409.657 205.942 409.136 205.889C408.093 205.783 406.615 205.655 404.881 205.57C401.407 205.4 396.925 205.403 392.843 206.084L392.842 206.085C390.836 206.417 387.978 207.379 384.791 208.655C381.613 209.927 378.143 211.498 374.925 213.029C371.708 214.559 368.747 216.047 366.591 217.152C365.513 217.705 364.636 218.162 364.029 218.481C363.726 218.64 363.49 218.765 363.33 218.85Z" fill="#D9D9D9" stroke="#0E6F3B"/>
<path d="M282.578 238.417C283.59 237.286 284.113 236.385 284.384 235.747C284.519 235.427 284.59 235.174 284.628 234.992C284.633 234.966 284.638 234.942 284.642 234.919C284.658 234.906 284.675 234.892 284.694 234.877C284.827 234.77 285.033 234.613 285.315 234.419C285.878 234.033 286.746 233.502 287.944 232.94C290.339 231.817 294.062 230.566 299.333 230.099C304.598 229.632 310.903 230.409 315.915 231.312C318.416 231.762 320.586 232.243 322.13 232.61C322.901 232.793 323.516 232.949 323.938 233.058C324.149 233.113 324.311 233.156 324.421 233.185C324.44 233.191 324.458 233.196 324.475 233.2L324.514 233.235C324.597 233.309 324.72 233.418 324.88 233.561C325.199 233.845 325.662 234.26 326.241 234.783C327.398 235.828 329.016 237.301 330.856 239.014C334.539 242.442 339.106 246.823 342.663 250.653L342.663 250.653C346.21 254.473 348.802 258.153 350.508 260.877C351.36 262.238 351.99 263.36 352.406 264.139C352.614 264.529 352.769 264.833 352.871 265.039C352.922 265.142 352.96 265.22 352.985 265.272L353.013 265.331L353.019 265.345L353.021 265.348L353.021 265.348L353.021 265.348L353.021 265.349L353.064 265.441L353.14 265.51C353.992 266.278 354.836 267.68 355.646 269.497C356.45 271.3 357.194 273.453 357.868 275.668C358.763 278.605 359.521 281.602 360.133 284.022C360.448 285.269 360.725 286.362 360.962 287.215L360.962 287.215C361.649 289.693 362.623 293.198 363.426 296.085L364.443 299.744L364.747 300.839L364.83 301.135L364.851 301.212L364.857 301.231L364.858 301.236L364.858 301.237L364.859 301.238C364.859 301.238 364.859 301.238 365.34 301.104L364.859 301.238L364.86 301.245L282.578 238.417ZM282.578 238.417C280.748 240.476 280.512 243.011 280.512 244.38V244.389V244.397V244.406V244.414V244.423V244.431V244.44V244.448V244.457V244.466V244.475V244.484V244.493V244.502V244.511V244.52V244.529V244.538V244.547V244.556V244.566V244.575V244.584V244.594V244.603V244.613V244.622V244.632V244.642V244.651V244.661V244.671V244.681V244.691V244.701V244.711V244.721V244.731V244.741V244.751V244.761V244.772V244.782V244.792V244.803V244.813V244.824V244.834V244.845V244.856V244.866V244.877V244.888V244.899V244.91V244.921V244.932V244.943V244.954V244.965V244.976V244.987V244.999V245.01V245.021V245.033V245.044V245.056V245.067V245.079V245.091V245.102V245.114V245.126V245.138V245.15V245.162V245.174V245.186V245.198V245.21V245.222V245.234V245.246V245.259V245.271V245.283V245.296V245.308V245.321V245.333V245.346V245.359V245.371V245.384V245.397V245.41V245.423V245.436V245.449V245.462V245.475V245.488V245.501V245.514V245.528V245.541V245.554V245.568V245.581V245.595V245.608V245.622V245.635V245.649V245.663V245.677V245.69V245.704V245.718V245.732V245.746V245.76V245.774V245.788V245.803V245.817V245.831V245.845V245.86V245.874V245.889V245.903V245.918V245.932V245.947V245.962V245.976V245.991V246.006V246.021V246.036V246.051V246.066V246.081V246.096V246.111V246.126V246.141V246.157V246.172V246.187V246.203V246.218V246.234V246.249V246.265V246.28V246.296V246.312V246.327V246.343V246.359V246.375V246.391V246.407V246.423V246.439V246.455V246.471V246.487V246.504V246.52V246.536V246.553V246.569V246.586V246.602V246.619V246.635V246.652V246.669V246.685V246.702V246.719V246.736V246.753V246.77V246.787V246.804V246.821V246.838V246.855V246.872V246.89V246.907V246.924V246.942V246.959V246.976V246.994V247.012V247.029V247.047V247.065V247.082V247.1V247.118V247.136V247.154V247.172V247.19V247.208V247.226V247.244V247.262V247.28V247.299V247.317V247.335V247.354V247.372V247.391V247.409V247.428V247.446V247.465V247.484V247.502V247.521V247.54V247.559V247.578V247.597V247.616V247.635V247.654V247.673V247.692V247.711V247.731V247.75V247.769V247.789V247.808V247.827V247.847V247.866V247.886V247.906V247.925V247.945V247.965V247.985V248.005V248.024V248.044V248.064V248.084V248.104V248.125V248.145V248.165V248.185V248.205V248.226V248.246V248.266V248.287V248.307V248.328V248.348V248.369V248.39V248.41V248.431V248.452V248.473V248.494V248.515V248.536V248.556V248.578V248.599V248.62V248.641V248.662V248.683V248.705V248.726V248.747V248.769V248.79V248.812V248.833V248.855V248.876V248.898V248.92V248.941V248.963V248.985V249.007V249.029V249.051V249.073V249.095V249.117V249.139V249.161V249.183V249.206V249.228V249.25V249.273V249.295V249.317V249.34V249.362V249.385V249.408V249.43V249.453V249.476V249.498V249.521V249.544V249.567V249.59V249.613V249.636V249.659V249.682V249.705V249.728V249.752V249.775V249.798V249.821V249.845V249.868V249.892V249.915V249.939V249.962V249.986V250.01V250.033V250.057V250.081V250.105V250.129V250.153V250.176V250.2V250.224V250.249V250.273V250.297V250.321V250.345V250.37V250.394V250.418V250.443V250.467V250.491V250.516V250.541V250.565V250.59V250.614V250.639V250.664V250.689V250.714V250.738V250.763V250.788V250.813V250.838V250.863V250.888V250.914V250.939V250.964V250.989V251.015V251.04V251.065V251.091V251.116V251.142V251.167V251.193V251.218V251.244V251.27V251.296V251.321V251.347V251.373V251.399V251.425V251.451V251.477V251.503V251.529V251.555V251.581V251.607V251.634V251.66V251.686V251.713V251.739V251.766V251.792V251.819V251.845V251.872V251.898V251.925V251.952V251.978V252.005V252.032V252.059V252.086V252.113V252.14V252.167V252.194V252.221V252.248V252.275V252.303V252.33V252.357V252.384V252.412V252.439V252.467V252.494V252.522V252.549V252.577V252.604V252.632V252.66V252.688V252.715V252.743V252.771V252.799V252.827V252.855V252.883V252.911V252.939V252.967V252.995V253.024V253.052V253.08V253.108V253.137V253.165V253.194V253.222V253.251V253.279V253.308V253.336V253.365V253.394V253.423V253.451V253.48V253.509V253.538V253.567V253.596V253.625V253.654V253.683V253.712V253.741V253.77V253.8V253.829V253.858V253.887V253.917V253.946V253.976V254.005V254.035V254.064V254.094V254.123V254.153V254.183V254.213V254.242V254.272V254.302V254.332V254.362V254.392V254.422V254.452C280.512 256.978 281.361 265.187 282.431 273.841C283.5 282.484 284.78 291.501 285.631 295.627C286.042 297.618 287.153 299.986 288.67 302.459C290.183 304.925 292.078 307.462 294.023 309.785C295.968 312.108 297.957 314.209 299.653 315.802C300.501 316.598 301.271 317.264 301.923 317.765C302.585 318.274 303.091 318.588 303.417 318.713L282.578 238.417ZM364.863 301.252L364.863 301.251L282.204 238.085C280.252 240.281 280.012 242.969 280.012 244.38V254.452C280.012 259.581 283.429 287.431 285.141 295.728C286.853 304.025 300.061 317.956 303.238 319.18C305.624 320.095 311.045 319.771 316.393 319.451C318.166 319.345 319.931 319.24 321.574 319.18L321.555 318.681C321.555 318.681 321.555 318.681 321.555 318.681C324.794 318.557 329.393 317.593 333.946 316.433C337.881 315.43 341.75 314.29 344.626 313.443C345.07 313.312 345.491 313.188 345.884 313.072L345.885 313.072C348.805 312.221 351.957 311.612 354.91 311.041L355.032 311.017C358.035 310.436 360.81 309.895 362.978 309.179C364.848 308.556 365.385 306.736 365.387 304.829C365.387 303.896 365.256 302.999 365.124 302.331C365.057 301.999 364.991 301.726 364.942 301.537C364.917 301.443 364.897 301.37 364.883 301.322C364.876 301.297 364.871 301.279 364.867 301.267L364.863 301.254L364.863 301.252L364.863 301.252Z" fill="#D9D9D9" stroke="#0E6F3B"/>
<mask id="path-11-inside-1_220_532" fill="white">
<path fill-rule="evenodd" clip-rule="evenodd" d="M289.051 306.318C289.051 306.318 285.381 315.994 282.198 317.717C279.02 319.426 276.096 321.37 271.447 321.37C266.798 321.37 260.444 322.088 256.768 319.776C253.111 317.464 248.462 314.284 246.257 311.363C244.066 308.429 239.91 298.902 238.431 292.062C236.96 285.229 235.747 274.245 235.507 268.131C235.254 262.03 235.254 259.4 234.035 255.948C232.816 252.502 233.795 247.509 234.035 244.387C234.275 241.272 234.528 239.801 236.72 237.845C238.924 235.896 241.129 233.454 243.573 234.672C246.018 235.896 254.816 241.978 258.24 246.259C261.67 250.546 263.381 252.813 266.798 255.948C270.215 259.096 271.447 260.074 274.384 262.276C277.309 264.471 280.006 265.935 280.006 265.935"/>
</mask>
<path fill-rule="evenodd" clip-rule="evenodd" d="M289.051 306.318C289.051 306.318 285.381 315.994 282.198 317.717C279.02 319.426 276.096 321.37 271.447 321.37C266.798 321.37 260.444 322.088 256.768 319.776C253.111 317.464 248.462 314.284 246.257 311.363C244.066 308.429 239.91 298.902 238.431 292.062C236.96 285.229 235.747 274.245 235.507 268.131C235.254 262.03 235.254 259.4 234.035 255.948C232.816 252.502 233.795 247.509 234.035 244.387C234.275 241.272 234.528 239.801 236.72 237.845C238.924 235.896 241.129 233.454 243.573 234.672C246.018 235.896 254.816 241.978 258.24 246.259C261.67 250.546 263.381 252.813 266.798 255.948C270.215 259.096 271.447 260.074 274.384 262.276C277.309 264.471 280.006 265.935 280.006 265.935" fill="#D9D9D9"/>
<path d="M282.198 317.717L282.673 318.596L282.671 318.597L282.198 317.717ZM256.768 319.776L256.235 320.623L256.233 320.621L256.768 319.776ZM246.257 311.363L245.459 311.965L245.456 311.961L246.257 311.363ZM238.431 292.062L237.454 292.274L237.454 292.273L238.431 292.062ZM235.507 268.131L236.506 268.089L236.506 268.091L235.507 268.131ZM234.035 255.948L234.978 255.614L234.978 255.615L234.035 255.948ZM234.035 244.387L233.038 244.31L233.038 244.31L234.035 244.387ZM236.72 237.845L236.054 237.099L236.057 237.096L236.72 237.845ZM243.573 234.672L244.019 233.777L244.021 233.778L243.573 234.672ZM258.24 246.259L257.459 246.883L257.459 246.883L258.24 246.259ZM266.798 255.948L267.474 255.211L267.476 255.212L266.798 255.948ZM274.384 262.276L274.984 261.476L274.985 261.476L274.384 262.276ZM289.051 306.318C289.986 306.672 289.986 306.672 289.986 306.672C289.986 306.673 289.986 306.673 289.986 306.673C289.985 306.673 289.985 306.674 289.985 306.675C289.984 306.676 289.984 306.678 289.983 306.681C289.981 306.686 289.978 306.694 289.974 306.703C289.967 306.723 289.956 306.751 289.941 306.788C289.913 306.862 289.871 306.969 289.816 307.106C289.708 307.38 289.549 307.771 289.349 308.245C288.95 309.192 288.383 310.476 287.713 311.818C287.045 313.156 286.264 314.573 285.435 315.776C284.629 316.946 283.691 318.046 282.673 318.596L281.722 316.837C282.296 316.526 283.01 315.77 283.788 314.641C284.543 313.546 285.276 312.221 285.923 310.924C286.569 309.632 287.118 308.389 287.506 307.468C287.7 307.008 287.853 306.63 287.958 306.367C288.01 306.236 288.05 306.134 288.077 306.065C288.09 306.031 288.1 306.004 288.107 305.987C288.11 305.979 288.112 305.972 288.114 305.968C288.115 305.966 288.115 305.965 288.116 305.964C288.116 305.963 288.116 305.963 288.116 305.963C288.116 305.963 288.116 305.963 288.116 305.963C288.116 305.963 288.116 305.963 289.051 306.318ZM282.671 318.597C279.568 320.268 276.401 322.37 271.447 322.37V320.37C275.791 320.37 278.473 318.585 281.724 316.836L282.671 318.597ZM271.447 322.37C269.233 322.37 266.34 322.549 263.701 322.439C261.038 322.328 258.306 321.925 256.235 320.623L257.3 318.93C258.906 319.939 261.189 320.333 263.784 320.441C266.404 320.55 269.013 320.37 271.447 320.37V322.37ZM256.233 320.621C254.395 319.459 252.29 318.068 250.36 316.592C248.443 315.126 246.644 313.535 245.459 311.965L247.056 310.761C248.075 312.112 249.703 313.571 251.575 315.004C253.436 316.427 255.484 317.781 257.302 318.931L256.233 320.621ZM245.456 311.961C244.281 310.388 242.655 307.173 241.154 303.561C239.642 299.925 238.21 295.773 237.454 292.274L239.409 291.851C240.131 295.191 241.516 299.222 243 302.793C244.494 306.388 246.042 309.404 247.059 310.765L245.456 311.961ZM237.454 292.273C235.968 285.374 234.75 274.331 234.508 268.17L236.506 268.091C236.744 274.159 237.951 285.085 239.409 291.852L237.454 292.273ZM234.508 268.172C234.253 262.01 234.25 259.558 233.092 256.281L234.978 255.615C236.259 259.242 236.256 262.049 236.506 268.089L234.508 268.172ZM233.093 256.281C232.414 254.363 232.366 252.087 232.49 249.987C232.553 248.925 232.662 247.879 232.769 246.916C232.877 245.942 232.98 245.069 233.038 244.31L235.032 244.464C234.971 245.266 234.862 246.188 234.757 247.136C234.65 248.094 234.546 249.098 234.486 250.105C234.366 252.143 234.438 254.087 234.978 255.614L233.093 256.281ZM233.038 244.31C233.157 242.767 233.285 241.487 233.707 240.337C234.145 239.143 234.87 238.156 236.054 237.099L237.386 238.591C236.378 239.491 235.881 240.217 235.585 241.026C235.272 241.879 235.153 242.892 235.032 244.464L233.038 244.31ZM236.057 237.096C237.088 236.185 238.302 234.982 239.53 234.221C240.81 233.427 242.359 232.95 244.019 233.777L243.127 235.567C242.343 235.176 241.567 235.311 240.583 235.921C239.547 236.563 238.556 237.557 237.382 238.595L236.057 237.096ZM244.021 233.778C245.327 234.432 248.197 236.303 251.141 238.52C254.083 240.735 257.225 243.389 259.021 245.634L257.459 246.883C255.831 244.847 252.862 242.32 249.938 240.118C247.015 237.917 244.264 236.136 243.125 235.566L244.021 233.778ZM259.02 245.634C262.463 249.937 264.125 252.139 267.474 255.211L266.122 256.685C262.637 253.488 260.876 251.155 257.459 246.883L259.02 245.634ZM267.476 255.212C270.866 258.336 272.072 259.292 274.984 261.476L273.785 263.076C270.823 260.855 269.564 259.856 266.121 256.683L267.476 255.212ZM274.985 261.476C276.416 262.55 277.794 263.448 278.816 264.077C279.326 264.391 279.746 264.638 280.037 264.805C280.182 264.888 280.295 264.952 280.371 264.994C280.409 265.016 280.438 265.032 280.457 265.042C280.466 265.047 280.473 265.051 280.478 265.053C280.48 265.054 280.481 265.055 280.482 265.056C280.483 265.056 280.483 265.056 280.483 265.056C280.483 265.056 280.483 265.056 280.483 265.056C280.483 265.056 280.483 265.056 280.483 265.056C280.483 265.056 280.483 265.056 280.006 265.935C279.529 266.814 279.529 266.814 279.529 266.814C279.529 266.814 279.529 266.814 279.529 266.814C279.528 266.814 279.528 266.814 279.528 266.813C279.527 266.813 279.527 266.813 279.526 266.812C279.524 266.811 279.522 266.81 279.519 266.808C279.513 266.805 279.504 266.8 279.493 266.794C279.471 266.782 279.439 266.764 279.397 266.741C279.314 266.695 279.194 266.627 279.041 266.539C278.734 266.363 278.297 266.106 277.767 265.78C276.709 265.129 275.277 264.197 273.784 263.075L274.985 261.476Z" fill="#0E6F3B" mask="url(#path-11-inside-1_220_532)"/>
<path d="M241.375 306.318L240.876 306.282L240.876 306.281L240.876 306.28L240.877 306.274L240.879 306.249L240.885 306.149C240.891 306.061 240.9 305.93 240.911 305.758C240.932 305.416 240.962 304.914 240.994 304.276C241.06 302.999 241.14 301.18 241.193 299.008C241.3 294.664 241.303 288.919 240.889 283.303L241.343 283.27L240.889 283.303C240.481 277.756 238.25 271.967 236.101 267.541C235.029 265.333 233.983 263.475 233.205 262.17C232.816 261.518 232.494 261.004 232.27 260.654C232.158 260.479 232.071 260.345 232.012 260.255C231.995 260.229 231.98 260.207 231.968 260.189L231.812 260.071C231.665 259.96 231.447 259.796 231.164 259.581C230.598 259.153 229.772 258.525 228.732 257.73C226.652 256.14 223.715 253.878 220.286 251.192C216.867 248.514 215.98 247.759 215.249 246.996C215.074 246.813 214.911 246.633 214.724 246.427C214.14 245.784 213.325 244.886 211.204 242.857C208.44 240.214 205.992 238.85 203.895 238.114C201.888 237.409 200.181 237.271 198.754 237.155C198.686 237.15 198.62 237.144 198.554 237.139L198.553 237.139C198.239 237.113 198.119 237.169 198.082 237.197C198.062 237.212 198.008 237.259 197.993 237.455C197.977 237.658 198.011 237.951 198.108 238.353C198.203 238.748 198.351 239.215 198.539 239.755C198.717 240.265 198.93 240.836 199.163 241.46C199.908 243.453 200.855 245.989 201.513 248.847C202.38 252.596 202.508 254.498 202.508 256.565C202.508 256.956 202.504 257.352 202.499 257.766C202.479 259.515 202.455 261.6 202.75 265.109C203.311 271.788 203.726 273.67 204.553 277.411C204.802 278.535 205.088 279.828 205.425 281.469C206.145 284.946 208.261 290.087 210.463 294.895C212.131 298.536 213.831 301.95 214.983 304.263C215.348 304.997 215.659 305.62 215.895 306.104C216.869 308.085 217.889 309.791 218.981 311.055C220.075 312.321 221.203 313.101 222.389 313.319C224.514 313.697 225.661 313.616 228.127 313.443C228.701 313.403 229.347 313.358 230.093 313.312M230.093 313.312C230.093 313.312 230.093 313.312 230.093 313.312L230.126 313.811L230.095 313.312C230.094 313.312 230.094 313.312 230.093 313.312Z" fill="#D9D9D9" stroke="#0E6F3B"/>
<mask id="path-14-inside-2_220_532" fill="white">
<path fill-rule="evenodd" clip-rule="evenodd" d="M449.144 269.271C451.653 271.861 452.918 273.668 459.518 275.864C466.119 278.066 466.43 276.499 471.462 275.864C476.5 275.236 483.418 273.357 489.928 270.216C496.451 267.075 503.531 261.11 506.669 255.954C509.82 250.805 507.934 238.5 506.669 232.761C505.418 227.023 499.135 214.95 495.361 207.729C491.588 200.514 490.635 200.196 486.563 194.859C482.471 189.522 475.242 184.807 471.468 182.923C471.468 182.923 469.277 181.355 465.185 182.923C461.094 184.49 454.811 188.175 452.924 191.2C451.038 194.225 447.971 200.196 446.667 207.729C445.377 215.268 445.695 216.524 443.49 220.915C441.286 225.319 439.717 230.164 439.717 232.761"/>
</mask>
<path fill-rule="evenodd" clip-rule="evenodd" d="M449.144 269.271C451.653 271.861 452.918 273.668 459.518 275.864C466.119 278.066 466.43 276.499 471.462 275.864C476.5 275.236 483.418 273.357 489.928 270.216C496.451 267.075 503.531 261.11 506.669 255.954C509.82 250.805 507.934 238.5 506.669 232.761C505.418 227.023 499.135 214.95 495.361 207.729C491.588 200.514 490.635 200.196 486.563 194.859C482.471 189.522 475.242 184.807 471.468 182.923C471.468 182.923 469.277 181.355 465.185 182.923C461.094 184.49 454.811 188.175 452.924 191.2C451.038 194.225 447.971 200.196 446.667 207.729C445.377 215.268 445.695 216.524 443.49 220.915C441.286 225.319 439.717 230.164 439.717 232.761" fill="#D9D9D9"/>
<path d="M459.518 275.864L459.834 274.915L459.835 274.915L459.518 275.864ZM471.462 275.864L471.337 274.872L471.338 274.872L471.462 275.864ZM489.928 270.216L489.493 269.316L489.494 269.315L489.928 270.216ZM506.669 255.954L505.815 255.434L505.816 255.432L506.669 255.954ZM506.669 232.761L505.693 232.976L505.692 232.974L506.669 232.761ZM495.361 207.729L496.247 207.265L496.248 207.265L495.361 207.729ZM486.563 194.859L487.356 194.251L487.358 194.253L486.563 194.859ZM471.468 182.923L471.021 183.817L470.951 183.782L470.886 183.736L471.468 182.923ZM446.667 207.729L445.682 207.56L445.682 207.558L446.667 207.729ZM443.49 220.915L442.596 220.468L442.597 220.467L443.49 220.915ZM449.863 268.575C451.161 269.916 452.02 270.921 453.382 271.905C454.727 272.875 456.592 273.837 459.834 274.915L459.203 276.813C455.845 275.696 453.776 274.656 452.212 273.526C450.664 272.409 449.636 271.216 448.426 269.966L449.863 268.575ZM459.835 274.915C463.063 275.992 464.628 276.105 465.952 275.936C466.65 275.847 467.3 275.678 468.168 275.469C469.022 275.264 470.026 275.037 471.337 274.872L471.587 276.856C470.382 277.008 469.46 277.215 468.635 277.414C467.823 277.609 467.039 277.813 466.205 277.92C464.465 278.142 462.574 277.938 459.202 276.813L459.835 274.915ZM471.338 274.872C476.266 274.257 483.08 272.41 489.493 269.316L490.362 271.117C483.756 274.305 476.733 276.214 471.585 276.856L471.338 274.872ZM489.494 269.315C495.886 266.237 502.799 260.389 505.815 255.435L507.523 256.474C504.263 261.831 497.016 267.913 490.362 271.117L489.494 269.315ZM505.816 255.432C506.498 254.318 506.946 252.744 507.184 250.841C507.421 248.952 507.442 246.815 507.326 244.632C507.094 240.266 506.317 235.811 505.693 232.976L507.646 232.546C508.285 235.449 509.084 240.017 509.324 244.526C509.443 246.78 509.425 249.044 509.169 251.09C508.914 253.122 508.416 255.016 507.522 256.476L505.816 255.432ZM505.692 232.974C505.094 230.233 503.261 225.878 501.057 221.229C498.868 216.611 496.363 211.804 494.475 208.192L496.248 207.265C498.134 210.875 500.656 215.715 502.865 220.373C505.058 225 506.993 229.551 507.646 232.548L505.692 232.974ZM494.475 208.192C490.753 201.076 489.885 200.863 485.768 195.466L487.358 194.253C491.384 199.53 492.422 199.951 496.247 207.265L494.475 208.192ZM485.769 195.468C481.807 190.299 474.726 185.667 471.021 183.817L471.915 182.028C475.758 183.947 483.136 188.746 487.356 194.251L485.769 195.468ZM471.468 182.923C470.886 183.736 470.887 183.736 470.888 183.737C470.888 183.737 470.888 183.737 470.889 183.738C470.889 183.738 470.89 183.738 470.89 183.739C470.892 183.74 470.893 183.74 470.894 183.741C470.895 183.742 470.897 183.743 470.898 183.744C470.9 183.745 470.899 183.745 470.897 183.744C470.893 183.741 470.88 183.733 470.86 183.721C470.82 183.698 470.749 183.659 470.648 183.613C470.445 183.521 470.121 183.4 469.679 183.318C468.804 183.156 467.42 183.138 465.543 183.857L464.828 181.989C467.042 181.14 468.799 181.122 470.043 181.352C470.66 181.466 471.139 181.639 471.476 181.792C471.644 181.868 471.776 181.939 471.872 181.996C471.92 182.024 471.958 182.048 471.988 182.067C472.003 182.077 472.016 182.085 472.026 182.092C472.031 182.096 472.036 182.099 472.04 182.102C472.042 182.103 472.043 182.105 472.045 182.106C472.046 182.107 472.047 182.107 472.048 182.108C472.048 182.108 472.049 182.108 472.049 182.109C472.049 182.109 472.05 182.109 471.468 182.923ZM465.543 183.857C463.568 184.613 461.036 185.894 458.77 187.355C456.469 188.84 454.591 190.417 453.773 191.729L452.076 190.671C453.144 188.958 455.351 187.181 457.686 185.675C460.056 184.146 462.711 182.8 464.828 181.989L465.543 183.857ZM453.773 191.729C451.933 194.679 448.928 200.529 447.653 207.899L445.682 207.558C447.013 199.863 450.143 193.77 452.076 190.671L453.773 191.729ZM447.653 207.897C446.385 215.306 446.676 216.798 444.384 221.364L442.597 220.467C444.713 216.25 444.369 215.229 445.682 207.56L447.653 207.897ZM444.385 221.363C443.304 223.522 442.38 225.786 441.729 227.821C441.071 229.878 440.717 231.62 440.717 232.761H438.717C438.717 231.306 439.147 229.327 439.824 227.211C440.509 225.073 441.472 222.713 442.596 220.468L444.385 221.363Z" fill="#0E6F3B" mask="url(#path-14-inside-2_220_532)"/>
<path d="M510.402 243.962C510.389 243.952 510.372 243.938 510.351 243.921C510.342 243.914 510.332 243.907 510.322 243.899C510.249 243.84 510.141 243.753 510.002 243.639C509.726 243.412 509.329 243.078 508.85 242.655C507.893 241.809 506.614 240.61 505.321 239.198C504.028 237.783 502.73 236.164 501.731 234.477C500.729 232.787 500.045 231.061 499.939 229.426C499.719 225.96 499.719 221.046 499.774 216.988C499.802 214.962 499.843 213.153 499.877 211.85C499.895 211.199 499.91 210.675 499.921 210.313C499.926 210.146 499.931 210.014 499.934 209.92C499.999 209.838 500.092 209.719 500.208 209.566C500.444 209.252 500.775 208.795 501.155 208.219C501.915 207.069 502.875 205.438 503.675 203.517C504.924 200.541 505.973 197.562 507.499 193.228C507.914 192.048 508.365 190.768 508.865 189.36L510.402 243.962ZM510.402 243.962L510.414 243.969L510.551 244.045C510.672 244.112 510.848 244.209 511.074 244.333C511.526 244.582 512.174 244.937 512.96 245.364C514.533 246.218 516.655 247.358 518.856 248.503C521.081 249.658 521.705 249.977 522.553 250.122C522.974 250.194 523.451 250.223 524.216 250.268L524.308 250.274C525.118 250.322 526.208 250.389 527.791 250.548L527.792 250.548C531.816 250.954 534.505 250.837 537.609 250.701C539.331 250.626 541.181 250.545 543.459 250.545C546.578 250.545 547.903 250.15 548.894 249.253C549.41 248.787 549.86 248.162 550.412 247.302C550.582 247.038 550.761 246.752 550.954 246.443C551.379 245.764 551.869 244.98 552.466 244.1L552.466 244.1C554.162 241.602 555.246 239.073 556.227 236.584C556.382 236.19 556.535 235.796 556.688 235.404C557.494 233.328 558.29 231.278 559.368 229.356C561.823 224.954 563.06 219.273 562.748 214.347L562.748 214.346C562.599 211.892 562.22 210.466 561.39 208.768C560.895 207.756 560.25 206.665 559.397 205.221C558.772 204.164 558.036 202.918 557.165 201.375C554.064 195.893 552.602 193.687 549.722 189.34C548.818 187.975 547.774 186.4 546.496 184.446C543.805 180.333 541.826 176.302 540.52 173.301C539.867 171.8 539.381 170.555 539.058 169.683C538.898 169.25 538.777 168.909 538.697 168.675C538.654 168.677 538.609 168.679 538.56 168.682C538.224 168.7 537.731 168.728 537.103 168.767C535.849 168.844 534.058 168.964 531.915 169.134C527.627 169.475 521.93 170.016 516.29 170.82C510.669 171.622 508.976 173.261 508.536 174.458C508.312 175.065 508.377 175.637 508.506 176.071C508.57 176.287 508.649 176.464 508.711 176.585C508.742 176.645 508.768 176.691 508.786 176.719C508.794 176.734 508.801 176.744 508.805 176.75L508.807 176.753L508.807 176.754L508.807 176.754L508.808 176.755L508.808 176.755L508.835 176.794L508.854 176.84L508.394 177.035C508.854 176.84 508.854 176.84 508.854 176.841L508.855 176.841L508.855 176.843L508.857 176.847L508.863 176.862C508.869 176.875 508.876 176.893 508.885 176.916C508.903 176.962 508.929 177.03 508.96 177.117C509.023 177.29 509.109 177.543 509.204 177.865C509.394 178.51 509.621 179.436 509.772 180.573C510.074 182.845 510.075 185.967 508.865 189.359L510.402 243.962Z" fill="#D9D9D9" stroke="#0E6F3B"/>
<path d="M578.043 159.69C578.004 159.638 577.97 159.593 577.94 159.554C577.916 159.557 577.891 159.56 577.864 159.564C577.635 159.593 577.299 159.638 576.87 159.699C576.014 159.82 574.79 160.005 573.323 160.258C570.389 160.765 566.49 161.545 562.622 162.638C558.747 163.733 554.936 165.133 552.156 166.869C549.351 168.62 547.76 170.605 547.945 172.836L547.945 172.836C548.424 178.676 550.094 193.926 552.77 205.478C555.437 216.935 562.411 223.955 565.412 225.828C566.98 226.807 567.758 227.219 568.586 227.351C569.43 227.485 570.361 227.335 572.282 227.015C574.215 226.694 575.492 226.761 576.627 227.183C577.571 227.534 578.394 228.127 579.378 228.837C579.541 228.955 579.709 229.075 579.882 229.199C580.995 229.988 582.262 230.101 583.914 229.933C584.624 229.861 585.385 229.739 586.224 229.604C586.363 229.582 586.504 229.56 586.648 229.537C587.65 229.378 588.749 229.212 589.95 229.109C592.213 228.913 593.589 228.272 594.826 227.102C595.916 226.071 596.899 224.633 598.25 222.656C598.485 222.313 598.731 221.953 598.99 221.577C601.635 217.738 602.203 214.878 602.927 211.239C603.132 210.21 603.349 209.119 603.628 207.925L603.629 207.924C604.235 205.366 603.938 202.944 603.32 200.567C603.011 199.377 602.623 198.206 602.23 197.035C602.207 196.966 602.184 196.897 602.16 196.828C601.792 195.731 601.422 194.63 601.124 193.533L601.124 193.533C600.522 191.321 599.622 189.868 598.214 188.335C597.332 187.375 596.272 186.402 594.962 185.201C594.13 184.438 593.196 183.582 592.145 182.579C589.442 180.003 588.229 178.329 587.179 176.335C586.776 175.571 586.397 174.757 585.968 173.839C585.846 173.577 585.72 173.307 585.588 173.027C584.991 171.759 584.268 170.266 583.252 168.394C581.21 164.636 579.833 162.365 578.969 161.038C578.537 160.374 578.235 159.948 578.043 159.69Z" fill="#D9D9D9" stroke="#0E6F3B"/>
<path d="M588.685 172.843C588.648 172.908 588.616 172.963 588.59 173.007C588.591 173.016 588.591 173.025 588.591 173.034C588.594 173.144 588.6 173.307 588.609 173.517C588.626 173.937 588.657 174.543 588.711 175.286C588.82 176.773 589.02 178.804 589.386 180.983C589.752 183.165 590.284 185.483 591.051 187.548C591.82 189.622 592.811 191.395 594.07 192.532C596.709 194.918 599.806 196.636 602.254 197.761C603.476 198.322 604.531 198.732 605.28 199.002C605.654 199.137 605.951 199.237 606.154 199.303C606.196 199.316 606.233 199.328 606.267 199.339C606.365 199.287 606.499 199.215 606.661 199.13C607.022 198.94 607.527 198.679 608.101 198.393C609.242 197.825 610.682 197.151 611.816 196.757L611.818 196.757C613.006 196.348 614.182 196.305 615.525 196.316C615.778 196.318 616.038 196.322 616.307 196.326C617.471 196.344 618.795 196.364 620.43 196.239L620.43 196.239C622.195 196.105 623.632 196.311 624.911 196.494C625.162 196.53 625.407 196.565 625.647 196.596C627.11 196.788 628.431 196.855 630.048 196.268C630.842 195.979 631.331 195.615 631.673 195.195C632.022 194.767 632.245 194.249 632.456 193.601C632.534 193.357 632.611 193.097 632.691 192.822C633.035 191.648 633.46 190.198 634.517 188.611L634.518 188.61C635.741 186.781 636.261 185.36 636.486 183.688C636.666 182.346 636.657 180.849 636.645 178.833C636.641 178.28 636.638 177.687 636.638 177.048C636.638 171.335 633.868 166.226 631.391 162.809C630.132 161.086 628.576 159.011 627.334 157.366C626.714 156.544 626.172 155.829 625.785 155.32C625.591 155.066 625.437 154.863 625.33 154.723L625.323 154.713L592.81 155.783C592.501 156.403 592.36 156.693 592.304 156.862C592.298 156.879 592.294 156.892 592.291 156.902C592.297 156.914 592.305 156.93 592.316 156.953C592.412 157.146 592.549 157.434 592.637 158.049C592.721 158.644 592.758 159.545 592.678 160.975L592.678 160.975C592.514 163.886 591.464 166.932 590.473 169.228C589.975 170.381 589.487 171.355 589.124 172.041C588.942 172.385 588.791 172.656 588.685 172.843Z" fill="#D9D9D9" stroke="#0E6F3B"/>
<path d="M176.207 241.381L176.216 241.452L176.216 241.452L176.216 241.452L176.216 241.454L176.217 241.463L176.222 241.5C176.226 241.535 176.233 241.587 176.243 241.657C176.263 241.798 176.294 242.011 176.341 242.299C176.433 242.874 176.585 243.746 176.821 244.928C177.293 247.29 178.104 250.888 179.456 255.816L179.457 255.816C179.833 257.196 180.167 258.435 180.469 259.555C182.342 266.495 182.986 268.883 184.816 272.079C185.83 273.851 187.069 274.524 188.024 274.775C188.509 274.902 188.932 274.922 189.231 274.912C189.381 274.907 189.498 274.894 189.575 274.882C189.613 274.877 189.642 274.872 189.659 274.869L189.674 274.866L189.676 274.865L189.692 274.861C189.71 274.856 189.737 274.849 189.774 274.837C189.848 274.815 189.96 274.779 190.102 274.725C190.386 274.617 190.792 274.44 191.264 274.166C192.206 273.619 193.406 272.686 194.423 271.145L194.424 271.144C194.873 270.47 195.081 269.326 195.057 267.71C195.034 266.116 194.788 264.159 194.42 261.939C194.115 260.097 193.729 258.091 193.322 255.979C193.239 255.547 193.155 255.111 193.071 254.672C192.575 252.082 192.068 249.361 191.661 246.63C191.259 243.929 190.75 242.187 190.127 241.035C189.517 239.909 188.796 239.344 187.917 238.995C187.113 238.677 186.18 238.538 185.019 238.365C184.848 238.339 184.673 238.313 184.492 238.285C183.103 238.074 181.475 237.784 179.597 237.083L179.597 237.083C177.8 236.411 176.797 236.437 176.264 236.681C175.782 236.902 175.549 237.373 175.504 238.07C175.46 238.768 175.62 239.572 175.806 240.225C175.897 240.547 175.992 240.822 176.063 241.016C176.099 241.113 176.128 241.189 176.149 241.241C176.159 241.266 176.167 241.286 176.172 241.298L176.178 241.312L176.179 241.315L176.179 241.315L176.179 241.315L176.179 241.315L176.207 241.381Z" fill="#D9D9D9" stroke="#0E6F3B"/>
<path d="M187.59 239.272C187.59 239.268 187.59 239.264 187.589 239.26C187.588 239.21 187.588 239.135 187.588 239.042C187.59 238.854 187.599 238.589 187.627 238.287C187.685 237.672 187.819 236.946 188.105 236.383C188.384 235.833 188.764 235.507 189.325 235.488C189.944 235.467 190.919 235.809 192.384 237.008C192.384 237.008 192.384 237.008 192.384 237.008L187.59 239.272ZM187.59 239.272L187.601 239.311C187.622 239.378 187.651 239.478 187.689 239.608C187.763 239.868 187.87 240.25 187.997 240.738C188.252 241.715 188.592 243.121 188.931 244.84C189.61 248.276 190.289 252.975 190.289 258.014C190.289 261.892 189.722 264.685 189.249 267.016C189.105 267.723 188.97 268.386 188.862 269.025C188.63 270.402 188.519 271.669 188.688 273.033C188.857 274.396 189.309 275.883 190.234 277.689L187.59 239.272Z" fill="#D9D9D9" stroke="#0E6F3B"/>
<path d="M384.543 331.086L384.544 331.086C385.63 334.615 386.519 338.006 387.137 340.513C387.445 341.767 387.686 342.801 387.85 343.522C387.919 343.825 387.974 344.072 388.015 344.258C388.076 344.258 388.144 344.257 388.219 344.257C388.612 344.255 389.188 344.247 389.918 344.228C391.377 344.19 393.447 344.103 395.891 343.91C400.782 343.525 407.15 342.715 413.093 341.025L413.094 341.025C419.05 339.337 425.259 336.781 429.986 334.641C432.347 333.572 434.336 332.609 435.733 331.914C436.431 331.566 436.982 331.285 437.358 331.091C437.425 331.057 437.487 331.025 437.543 330.996L437.465 330.789L436.839 329.129C436.317 327.743 435.608 325.865 434.866 323.899C433.381 319.965 431.76 315.679 431.216 314.262L431.216 314.26C430.962 313.59 430.684 313.15 430.262 312.858C429.834 312.561 429.184 312.367 428.085 312.351C425.864 312.319 422.098 313.012 415.399 314.57L415.398 314.57C412.81 315.17 410.384 315.716 408.117 316.227C404.519 317.037 401.32 317.758 398.501 318.459C393.903 319.603 390.376 320.683 387.842 321.989C387.668 322.078 387.501 322.164 387.339 322.248C386.281 322.792 385.468 323.21 384.847 323.616C384.138 324.078 383.749 324.479 383.55 324.951C383.348 325.429 383.306 326.059 383.473 327.05C383.639 328.042 384.001 329.328 384.543 331.086Z" fill="#D9D9D9" stroke="#0E6F3B"/>
<path d="M339.6 330.693L339.6 330.694C339.625 332.265 340.17 335.735 340.721 338.857C340.994 340.409 341.266 341.859 341.469 342.922C341.571 343.454 341.656 343.888 341.715 344.19C341.745 344.34 341.768 344.458 341.784 344.537L341.802 344.628L341.805 344.644L341.811 344.666C341.818 344.691 341.83 344.731 341.847 344.783C341.881 344.888 341.936 345.044 342.017 345.241C342.18 345.634 342.449 346.188 342.867 346.813C343.702 348.061 345.134 349.597 347.526 350.716C349.897 351.818 352.47 351.96 355.476 351.741C356.856 351.641 358.312 351.466 359.876 351.278C360.016 351.261 360.158 351.244 360.3 351.227C362.021 351.021 363.864 350.807 365.844 350.67C369.756 350.4 373.969 349.838 377.785 348.832C381.61 347.824 384.992 346.382 387.283 344.38C388.249 343.537 388.43 342.059 387.96 340.079C387.496 338.128 386.438 335.873 385.212 333.712C383.99 331.559 382.618 329.53 381.55 328.037C381.016 327.291 380.559 326.681 380.236 326.257C380.075 326.046 379.947 325.881 379.86 325.769C379.835 325.738 379.814 325.711 379.796 325.688C379.668 325.659 379.388 325.618 378.822 325.588C377.576 325.523 375.049 325.522 369.951 325.787C364.877 326.058 360.344 326.75 356.524 327.406C355.75 327.538 355.002 327.67 354.284 327.797C351.481 328.291 349.124 328.707 347.348 328.799C346.288 328.857 345.256 328.838 344.317 328.821C344.269 328.821 344.222 328.82 344.175 328.819C343.187 328.801 342.323 328.791 341.602 328.869C340.872 328.948 340.375 329.11 340.065 329.372C339.783 329.609 339.586 329.988 339.6 330.693ZM380.117 325.288L379.728 325.599C379.728 325.599 379.728 325.599 379.728 325.599L380.117 325.288Z" fill="#D9D9D9" stroke="#0E6F3B"/>
<path d="M334.658 328.643L334.658 328.643L334.658 328.644L334.488 328.829L334.238 328.803L334.289 328.306L334.238 328.803L334.237 328.803L334.236 328.803L334.229 328.803L334.202 328.8L334.095 328.789C334.001 328.78 333.861 328.767 333.681 328.75C333.321 328.717 332.8 328.671 332.155 328.62C330.865 328.517 329.082 328.394 327.112 328.313C323.152 328.148 318.498 328.153 315.54 328.795L334.658 328.643ZM334.658 328.643L334.658 328.643L334.659 328.643L334.665 328.636C334.67 328.63 334.68 328.62 334.692 328.607C334.718 328.581 334.756 328.543 334.806 328.495C334.906 328.399 335.05 328.268 335.226 328.131C335.587 327.848 336.035 327.573 336.473 327.477C336.876 327.389 337.258 327.451 337.609 327.837C337.998 328.263 338.39 329.129 338.604 330.773C338.935 333.346 339.936 337.049 340.9 340.615C341.21 341.763 341.517 342.896 341.796 343.972C342.374 346.207 342.835 348.193 342.992 349.608C343.071 350.325 343.065 350.838 342.988 351.15C342.951 351.303 342.908 351.359 342.894 351.373C342.893 351.373 342.893 351.374 342.893 351.374C342.889 351.375 342.881 351.376 342.866 351.375L342.865 351.375C342.43 351.36 341.931 351.349 341.366 351.336C338.515 351.27 333.986 351.166 327.51 350.368C324.456 349.992 321.95 350.191 319.951 350.35C319.368 350.397 318.829 350.44 318.331 350.464C317.213 350.518 316.338 350.478 315.618 350.225C314.923 349.981 314.335 349.525 313.821 348.66C312.725 346.814 312.234 345.026 312.016 343.7C311.907 343.037 311.867 342.491 311.854 342.114C311.848 341.926 311.848 341.78 311.85 341.683C311.851 341.634 311.852 341.598 311.853 341.575L311.853 341.565C312.035 340.431 311.997 339.107 311.941 337.787C311.934 337.641 311.928 337.495 311.922 337.35C311.869 336.144 311.816 334.941 311.892 333.814C311.978 332.55 312.224 331.443 312.769 330.584C313.301 329.745 314.148 329.098 315.54 328.795L334.658 328.643Z" fill="#D9D9D9" stroke="#0E6F3B"/>
<path d="M300.734 334.139L300.734 334.139L300.74 334.156L300.747 334.173L300.747 334.173L300.747 334.173L300.747 334.173L300.748 334.175L300.752 334.185C300.756 334.194 300.762 334.209 300.77 334.229C300.785 334.27 300.809 334.331 300.838 334.411C300.896 334.572 300.977 334.81 301.065 335.111C301.242 335.712 301.447 336.562 301.558 337.549C301.782 339.531 301.625 342.015 300.177 344.181C299.489 345.21 298.703 345.619 297.736 345.691C296.716 345.768 295.47 345.472 293.881 344.98C293.393 344.829 292.879 344.661 292.335 344.483C289.386 343.521 285.602 342.286 280.801 341.998L280.801 341.998C275.23 341.67 271.441 340.324 269.523 338.463C268.577 337.545 268.092 336.511 268.046 335.397C268 334.274 268.397 333.011 269.331 331.645C271.208 328.903 273.681 327.518 275.695 326.817C276.702 326.466 277.591 326.288 278.226 326.198C278.543 326.152 278.796 326.129 278.967 326.118C279.053 326.112 279.118 326.109 279.161 326.107C279.182 326.106 279.198 326.106 279.208 326.106L279.218 326.105L279.219 326.105L279.219 326.105L279.22 326.105L279.22 326.105L279.316 326.105L279.405 326.068L279.405 326.068L279.405 326.068L279.406 326.067L279.41 326.066L279.427 326.059L279.494 326.032C279.553 326.008 279.641 325.973 279.756 325.928C279.984 325.838 280.317 325.71 280.733 325.557C281.566 325.25 282.727 324.844 284.045 324.444C286.699 323.64 289.921 322.887 292.361 322.996L300.734 334.139ZM300.734 334.139L300.734 334.139L300.734 334.137L300.732 334.132L300.724 334.109C300.717 334.089 300.707 334.059 300.693 334.018C300.665 333.938 300.622 333.819 300.567 333.668C300.456 333.364 300.291 332.93 300.077 332.407C299.649 331.359 299.028 329.964 298.253 328.565C297.476 327.163 296.556 325.778 295.536 324.736C294.51 323.687 293.44 323.044 292.361 322.996L300.734 334.139Z" fill="#D9D9D9" stroke="#0E6F3B"/>
<path d="M434.227 312.227L434.187 312.248C434.164 312.282 434.134 312.324 434.1 312.374C434 312.518 433.858 312.727 433.689 312.988C433.35 313.508 432.905 314.229 432.478 315.032C432.05 315.837 431.645 316.712 431.382 317.543C431.115 318.385 431.012 319.125 431.123 319.685L431.124 319.687C431.182 319.99 431.244 320.368 431.315 320.802C431.579 322.411 431.967 324.78 432.782 326.855C433.296 328.166 433.96 329.296 434.818 330.017C435.652 330.718 436.693 331.056 438.06 330.758L438.061 330.758C438.763 330.605 439.9 330.156 441.404 329.45C442.895 328.75 444.708 327.817 446.747 326.722C450.753 324.571 455.607 321.807 460.556 318.99L460.818 318.841C465.854 315.973 470.974 313.061 475.37 310.7C479.524 308.469 483.072 306.708 485.298 305.954C485.294 305.913 485.288 305.868 485.28 305.82C485.232 305.54 485.109 305.158 484.799 304.771C484.189 304.009 482.745 303.1 479.301 303.1C478.146 303.1 476.994 303.084 475.841 303.068C469.931 302.988 463.975 302.906 457.258 304.937C453.248 306.158 449.587 306.779 446.61 307.285L446.441 307.313C444.932 307.569 443.615 307.796 442.513 308.057C441.404 308.321 440.559 308.61 439.973 308.971C438.65 309.787 437.176 310.62 436.036 311.249C435.465 311.563 434.977 311.827 434.631 312.012C434.458 312.105 434.321 312.178 434.227 312.227Z" fill="#D9D9D9" stroke="#0E6F3B"/>
<path d="M513.565 280.911L513.563 280.911C508.748 282.51 506.083 284.101 502.324 286.783L502.323 286.783C501.35 287.475 500.314 288.061 499.287 288.612C499.003 288.764 498.72 288.913 498.44 289.062C497.699 289.453 496.974 289.837 496.271 290.249C494.343 291.38 492.684 292.673 491.665 294.708C490.602 296.833 489.961 298.81 489.587 300.254C489.4 300.976 489.28 301.564 489.206 301.969C489.177 302.131 489.155 302.264 489.14 302.364C489.168 302.383 489.204 302.405 489.249 302.427C489.476 302.542 489.954 302.687 490.872 302.631C492.72 302.519 496.219 301.6 502.678 298.251L502.679 298.25C514.925 291.907 522.124 288.954 526.062 287.338C526.3 287.241 526.526 287.148 526.741 287.06L526.742 287.059C527.601 286.707 527.927 286.307 528.04 285.98C528.155 285.644 528.091 285.251 527.886 284.821C527.682 284.395 527.367 283.995 527.09 283.693C526.954 283.545 526.831 283.425 526.743 283.343C526.709 283.31 526.679 283.284 526.657 283.264L526.627 283.25C526.565 283.222 526.471 283.18 526.35 283.128C526.108 283.022 525.756 282.873 525.317 282.699C524.44 282.35 523.22 281.903 521.853 281.506C520.484 281.109 518.977 280.766 517.521 280.621C516.06 280.476 514.687 280.534 513.565 280.911Z" fill="#D9D9D9" stroke="#0E6F3B"/>
</svg>
